GeoramaExtraCondensed-Medium.ufo
<glyph name="exclam" format="2">
  <advance width="150.98"/>
  <unicode hex="0021"/>
  <outline>
    <contour>
      <point x="36.68" y="261.85" type="line"/>
      <point x="113.44" y="261.85" type="line"/>
      <point x="120.32" y="740.0" type="line"/>
      <point x="31.09" y="740.0" type="line"/>
    </contour>
    <contour>
      <point x="27.52" y="55.7" type="curve" smooth="yes"/>
      <point x="27.52" y="13.04"/>
      <point x="40.13" y="-4.3"/>
      <point x="75.49" y="-4.3" type="curve" smooth="yes"/>
      <point x="111.42" y="-4.3"/>
      <point x="123.46000000000001" y="13.04"/>
      <point x="123.46000000000001" y="55.7" type="curve" smooth="yes"/>
      <point x="123.46000000000001" y="98.78999999999999"/>
      <point x="111.42" y="116.13"/>
      <point x="75.49" y="116.13" type="curve" smooth="yes"/>
      <point x="39.56" y="116.13"/>
      <point x="27.52" y="98.78999999999999"/>
    </contour>
  </outline>
</glyph>
<glyph name="numbersign" format="2">
  <advance width="323.1"/>
  <unicode hex="0023"/>
  <outline>
    <contour>
      <point x="33.72" y="442.58" type="line"/>
      <point x="78.7" y="442.58" type="line"/>
      <point x="58.74" y="252.82999999999998" type="line"/>
      <point x="15.17" y="252.82999999999998" type="line"/>
      <point x="15.17" y="173.06" type="line"/>
      <point x="54.16" y="173.06" type="line"/>
      <point x="37.47" y="0.0" type="line"/>
      <point x="102.62" y="0.0" type="line"/>
      <point x="119.31" y="173.06" type="line"/>
      <point x="175.1" y="173.06" type="line"/>
      <point x="158.41" y="0.0" type="line"/>
      <point x="223.56" y="0.0" type="line"/>
      <point x="240.25" y="173.06" type="line"/>
      <point x="289.38" y="173.06" type="line"/>
      <point x="289.38" y="252.82999999999998" type="line"/>
      <point x="244.82999999999998" y="252.82999999999998" type="line"/>
      <point x="264.78999999999996" y="442.58" type="line"/>
      <point x="307.93" y="442.58" type="line"/>
      <point x="307.93" y="523.21" type="line"/>
      <point x="269.94" y="523.21" type="line"/>
      <point x="287.06" y="700.0" type="line"/>
      <point x="221.91" y="700.0" type="line"/>
      <point x="204.79" y="523.21" type="line"/>
      <point x="149.0" y="523.21" type="line"/>
      <point x="166.12" y="700.0" type="line"/>
      <point x="100.97" y="700.0" type="line"/>
      <point x="83.85" y="523.21" type="line"/>
      <point x="33.72" y="523.21" type="line"/>
    </contour>
    <contour>
      <point x="143.85" y="442.58" type="line"/>
      <point x="199.64" y="442.58" type="line"/>
      <point x="179.68" y="252.82999999999998" type="line"/>
      <point x="123.89" y="252.82999999999998" type="line"/>
    </contour>
  </outline>
</glyph>
<glyph name="dollar" format="2">
  <advance width="323.1"/>
  <unicode hex="0024"/>
  <outline>
    <contour>
      <point x="137.82999999999998" y="-10.0" type="curve" smooth="yes"/>
      <point x="217.89" y="-10.0"/>
      <point x="291.57" y="41.42"/>
      <point x="291.57" y="159.26" type="curve" smooth="yes"/>
      <point x="291.57" y="266.88"/>
      <point x="240.66" y="326.71"/>
      <point x="194.91" y="381.95" type="curve" smooth="yes"/>
      <point x="157.47" y="431.32"/>
      <point x="122.61" y="479.11"/>
      <point x="122.61" y="544.75" type="curve" smooth="yes"/>
      <point x="122.61" y="595.4"/>
      <point x="144.31" y="624.92"/>
      <point x="185.31" y="624.92" type="curve" smooth="yes"/>
      <point x="211.76" y="624.92"/>
      <point x="234.65" y="619.06"/>
      <point x="256.53999999999996" y="609.05" type="curve"/>
      <point x="275.72" y="686.54" type="line"/>
      <point x="252.55" y="700.27"/>
      <point x="212.05" y="710.0"/>
      <point x="170.26" y="710.0" type="curve" smooth="yes"/>
      <point x="88.45" y="710.0"/>
      <point x="36.82" y="645.1"/>
      <point x="36.82" y="544.75" type="curve" smooth="yes"/>
      <point x="36.82" y="443.15"/>
      <point x="81.85" y="377.74"/>
      <point x="125.45" y="321.07" type="curve" smooth="yes"/>
      <point x="167.19" y="266.4"/>
      <point x="207.5" y="219.18"/>
      <point x="207.5" y="154.54" type="curve" smooth="yes"/>
      <point x="207.5" y="105.74000000000001"/>
      <point x="180.23" y="73.07"/>
      <point x="137.24" y="73.07" type="curve" smooth="yes"/>
      <point x="110.37" y="73.07"/>
      <point x="82.91" y="79.65"/>
      <point x="49.71" y="93.81" type="curve"/>
      <point x="31.53" y="16.47" type="line"/>
      <point x="59.14" y="1.0199999999999996"/>
      <point x="100.35" y="-10.0"/>
    </contour>
    <contour>
      <point x="122.15" y="-105.0" type="line"/>
      <point x="202.78" y="-105.0" type="line"/>
      <point x="202.78" y="10.89" type="line"/>
      <point x="122.15" y="2.88" type="line"/>
    </contour>
    <contour>
      <point x="122.15" y="690.1" type="line"/>
      <point x="202.78" y="698.12" type="line"/>
      <point x="202.78" y="804.14" type="line"/>
      <point x="122.15" y="804.14" type="line"/>
    </contour>
  </outline>
</glyph>
<glyph name="ampersand" format="2">
  <advance width="415.68"/>
  <unicode hex="0026"/>
  <outline>
    <contour>
      <point x="324.32" y="-9.120000000000001" type="line"/>
      <point x="412.84000000000003" y="-3.2800000000000002" type="line"/>
      <point x="174.92000000000002" y="417.48" type="line" smooth="yes"/>
      <point x="148.94" y="464.58"/>
      <point x="139.07999999999998" y="503.26"/>
      <point x="139.07999999999998" y="537.5" type="curve" smooth="yes"/>
      <point x="139.07999999999998" y="596.26"/>
      <point x="157.62" y="624.64"/>
      <point x="190.0" y="624.64" type="curve" smooth="yes"/>
      <point x="223.24" y="624.64"/>
      <point x="237.5" y="593.26"/>
      <point x="237.5" y="540.48" type="curve" smooth="yes"/>
      <point x="237.5" y="503.54"/>
      <point x="233.8" y="473.02"/>
      <point x="214.54" y="450.2" type="curve"/>
      <point x="247.74" y="401.5" type="line"/>
      <point x="289.78" y="436.34"/>
      <point x="311.68" y="488.06"/>
      <point x="311.68" y="558.82" type="curve" smooth="yes"/>
      <point x="311.68" y="658.0"/>
      <point x="267.92" y="710.0"/>
      <point x="189.14" y="710.0" type="curve" smooth="yes"/>
      <point x="100.62" y="710.0"/>
      <point x="53.72" y="650.68"/>
      <point x="53.72" y="540.94" type="curve" smooth="yes"/>
      <point x="53.72" y="485.78"/>
      <point x="72.74" y="427.78"/>
      <point x="106.88" y="367.8" type="curve" smooth="yes"/>
    </contour>
    <contour>
      <point x="170.5" y="-10.0" type="curve" smooth="yes"/>
      <point x="231.52" y="-10.0"/>
      <point x="269.38" y="17.98"/>
      <point x="297.54" y="71.94" type="curve"/>
      <point x="260.88" y="134.94" type="line"/>
      <point x="243.76" y="91.3"/>
      <point x="223.92" y="67.62"/>
      <point x="179.96" y="67.62" type="curve" smooth="yes"/>
      <point x="129.44" y="67.62"/>
      <point x="96.46000000000001" y="118.84"/>
      <point x="96.46000000000001" y="187.76" type="curve" smooth="yes"/>
      <point x="96.46000000000001" y="253.24"/>
      <point x="113.02" y="290.76"/>
      <point x="150.26" y="333.12" type="curve"/>
      <point x="114.02" y="397.14" type="line"/>
      <point x="43.84" y="340.72"/>
      <point x="16.259999999999998" y="273.14"/>
      <point x="16.259999999999998" y="179.16" type="curve" smooth="yes"/>
      <point x="16.259999999999998" y="67.14"/>
      <point x="75.88" y="-10.0"/>
    </contour>
    <contour>
      <point x="333.64" y="116.34" type="line"/>
      <point x="356.94" y="171.76"/>
      <point x="373.96" y="236.72"/>
      <point x="373.96" y="308.4" type="curve" smooth="yes"/>
      <point x="373.96" y="330.68"/>
      <point x="372.96" y="349.4"/>
      <point x="369.96" y="368.26" type="curve"/>
      <point x="302.8" y="366.98" type="line"/>
      <point x="304.94" y="352.42"/>
      <point x="305.94" y="339.0"/>
      <point x="305.94" y="320.44" type="curve" smooth="yes"/>
      <point x="305.94" y="269.96"/>
      <point x="298.8" y="225.9"/>
      <point x="289.96" y="194.38" type="curve"/>
    </contour>
  </outline>
</glyph>
<glyph name="quotesingle" format="2">
  <advance width="148.55"/>
  <unicode hex="0027"/>
  <outline>
    <contour>
      <point x="37.96" y="427.0" type="line"/>
      <point x="109.3" y="427.0" type="line"/>
      <point x="116.02" y="700.0" type="line"/>
      <point x="32.53" y="700.0" type="line"/>
    </contour>
  </outline>
</glyph>
<glyph name="parenleft" format="2">
  <advance width="200.24"/>
  <unicode hex="0028"/>
  <outline>
    <contour>
      <point x="34.519999999999996" y="265.0" type="curve" smooth="yes"/>
      <point x="34.519999999999996" y="-15.44"/>
      <point x="87.11" y="-195.86"/>
      <point x="193.95" y="-220.57" type="curve"/>
      <point x="193.95" y="-138.38" type="line"/>
      <point x="138.67" y="-105.24000000000001"/>
      <point x="107.25999999999999" y="9.17"/>
      <point x="107.25999999999999" y="265.0" type="curve" smooth="yes"/>
      <point x="107.25999999999999" y="520.83"/>
      <point x="138.67" y="635.24"/>
      <point x="193.95" y="668.38" type="curve"/>
      <point x="193.95" y="750.57" type="line"/>
      <point x="87.11" y="725.86"/>
      <point x="34.519999999999996" y="545.44"/>
    </contour>
  </outline>
</glyph>
<glyph name="parenright" format="2">
  <advance width="200.24"/>
  <unicode hex="0029"/>
  <outline>
    <contour>
      <point x="6.29" y="-138.38" type="curve"/>
      <point x="6.29" y="-220.57" type="line"/>
      <point x="113.13" y="-195.86"/>
      <point x="165.72" y="-15.44"/>
      <point x="165.72" y="265.0" type="curve" smooth="yes"/>
      <point x="165.72" y="545.44"/>
      <point x="113.13" y="725.86"/>
      <point x="6.29" y="750.57" type="curve"/>
      <point x="6.29" y="668.38" type="line"/>
      <point x="61.57" y="635.24"/>
      <point x="92.98" y="520.83"/>
      <point x="92.98" y="265.0" type="curve" smooth="yes"/>
      <point x="92.98" y="9.17"/>
      <point x="61.57" y="-105.24000000000001"/>
    </contour>
  </outline>
</glyph>
<glyph name="asterisk" format="2">
  <advance width="249.94"/>
  <unicode hex="002A"/>
  <outline>
    <contour>
      <point x="71.38" y="410.9" type="line"/>
      <point x="124.97" y="488.44" type="line"/>
      <point x="178.56" y="410.9" type="line"/>
      <point x="215.49" y="436.38" type="line"/>
      <point x="168.93" y="521.79" type="line"/>
      <point x="247.36" y="563.07" type="line"/>
      <point x="232.62" y="605.3" type="line"/>
      <point x="152.46" y="575.05" type="line"/>
      <point x="147.73" y="676.73" type="line"/>
      <point x="102.21000000000001" y="676.73" type="line"/>
      <point x="97.48" y="575.05" type="line"/>
      <point x="17.32" y="605.3" type="line"/>
      <point x="2.58" y="563.07" type="line"/>
      <point x="81.01" y="521.79" type="line"/>
      <point x="34.45" y="436.38" type="line"/>
    </contour>
  </outline>
</glyph>
<glyph name="plus" format="2">
  <advance width="391.5"/>
  <unicode hex="002B"/>
  <outline>
    <contour>
      <point x="155.65" y="111.13" type="line"/>
      <point x="235.85" y="111.13" type="line"/>
      <point x="235.85" y="266.96" type="line"/>
      <point x="351.21" y="266.96" type="line"/>
      <point x="351.21" y="347.15999999999997" type="line"/>
      <point x="235.85" y="347.15999999999997" type="line"/>
      <point x="235.85" y="502.99" type="line"/>
      <point x="155.65" y="502.99" type="line"/>
      <point x="155.65" y="347.15999999999997" type="line"/>
      <point x="40.29" y="347.15999999999997" type="line"/>
      <point x="40.29" y="266.96" type="line"/>
      <point x="155.65" y="266.96" type="line"/>
    </contour>
  </outline>
</glyph>
<glyph name="comma" format="2">
  <advance width="137.3"/>
  <unicode hex="002C"/>
  <outline>
    <contour>
      <point x="24.69" y="67.11" type="line"/>
      <point x="31.259999999999998" y="38.08"/>
      <point x="33.54" y="10.350000000000001"/>
      <point x="33.54" y="-4.93" type="curve" smooth="yes"/>
      <point x="33.54" y="-60.480000000000004"/>
      <point x="16.11" y="-124.18"/>
      <point x="-19.72" y="-167.79" type="curve"/>
      <point x="42.88" y="-192.39" type="line"/>
      <point x="96.02" y="-136.62"/>
      <point x="115.46000000000001" y="-66.09"/>
      <point x="115.46000000000001" y="-2.780000000000001" type="curve" smooth="yes"/>
      <point x="115.46000000000001" y="25.099999999999998"/>
      <point x="111.17" y="49.39"/>
      <point x="105.03" y="71.53" type="curve"/>
    </contour>
  </outline>
</glyph>
<glyph name="hyphen" format="2">
  <advance width="238.91"/>
  <unicode hex="002D"/>
  <outline>
    <contour>
      <point x="22.17" y="245.97" type="line"/>
      <point x="216.74" y="245.97" type="line"/>
      <point x="216.74" y="332.19" type="line"/>
      <point x="22.17" y="332.19" type="line"/>
    </contour>
  </outline>
</glyph>
<glyph name="period" format="2">
  <advance width="137.3"/>
  <unicode hex="002E"/>
  <outline>
    <contour>
      <point x="20.68" y="56.99" type="curve" smooth="yes"/>
      <point x="20.68" y="14.33"/>
      <point x="33.29" y="-3.01"/>
      <point x="68.65" y="-3.01" type="curve" smooth="yes"/>
      <point x="104.58" y="-3.01"/>
      <point x="116.62" y="14.33"/>
      <point x="116.62" y="56.99" type="curve" smooth="yes"/>
      <point x="116.62" y="100.08"/>
      <point x="104.58" y="117.42"/>
      <point x="68.65" y="117.42" type="curve" smooth="yes"/>
      <point x="32.72" y="117.42"/>
      <point x="20.68" y="100.08"/>
    </contour>
  </outline>
</glyph>
<glyph name="slash" format="2">
  <advance width="276.0"/>
  <unicode hex="002F"/>
  <outline>
    <contour>
      <point x="-3.16" y="-210.0" type="line"/>
      <point x="71.74000000000001" y="-210.0" type="line"/>
      <point x="279.15999999999997" y="740.0" type="line"/>
      <point x="203.82999999999998" y="740.0" type="line"/>
    </contour>
  </outline>
</glyph>
<glyph name="zero" format="2">
  <advance width="323.1"/>
  <unicode hex="0030"/>
  <outline>
    <contour>
      <point x="15.0" y="350.0" type="curve" smooth="yes"/>
      <point x="15.0" y="76.02"/>
      <point x="54.45" y="-10.0"/>
      <point x="161.55" y="-10.0" type="curve" smooth="yes"/>
      <point x="267.36" y="-10.0"/>
      <point x="308.1" y="77.74"/>
      <point x="308.1" y="350.0" type="curve" smooth="yes"/>
      <point x="308.1" y="623.26"/>
      <point x="273.81" y="710.0"/>
      <point x="161.55" y="710.0" type="curve" smooth="yes"/>
      <point x="53.16" y="710.0"/>
      <point x="15.0" y="626.7"/>
    </contour>
    <contour>
      <point x="102.51" y="344.41" type="curve" smooth="yes"/>
      <point x="102.51" y="584.47"/>
      <point x="119.19" y="627.22"/>
      <point x="161.55" y="627.22" type="curve" smooth="yes"/>
      <point x="203.91" y="627.22"/>
      <point x="220.59" y="584.9"/>
      <point x="220.59" y="344.41" type="curve" smooth="yes"/>
      <point x="220.59" y="118.68"/>
      <point x="205.2" y="72.78"/>
      <point x="161.55" y="72.78" type="curve" smooth="yes"/>
      <point x="117.9" y="72.78"/>
      <point x="102.51" y="118.25"/>
    </contour>
  </outline>
</glyph>
<glyph name="one" format="2">
  <advance width="323.1"/>
  <unicode hex="0031"/>
  <outline>
    <contour>
      <point x="34.92" y="0.0" type="line"/>
      <point x="304.35" y="0.0" type="line"/>
      <point x="304.35" y="80.19999999999999" type="line"/>
      <point x="218.39" y="80.19999999999999" type="line"/>
      <point x="218.39" y="700.0" type="line"/>
      <point x="173.28" y="700.0" type="line"/>
      <point x="19.2" y="610.1" type="line"/>
      <point x="37.65" y="522.57" type="line"/>
      <point x="131.31" y="585.45" type="line"/>
      <point x="131.31" y="80.19999999999999" type="line"/>
      <point x="34.92" y="80.19999999999999" type="line"/>
    </contour>
  </outline>
</glyph>
<glyph name="two" format="2">
  <advance width="323.1"/>
  <unicode hex="0032"/>
  <outline>
    <contour>
      <point x="33.6" y="72.03999999999999" type="curve"/>
      <point x="36.45" y="0.0" type="line"/>
      <point x="297.07" y="0.0" type="line"/>
      <point x="297.07" y="80.19999999999999" type="line"/>
      <point x="129.99" y="80.19999999999999" type="line"/>
      <point x="239.69" y="303.01"/>
      <point x="276.53" y="410.35"/>
      <point x="276.53" y="523.38" type="curve" smooth="yes"/>
      <point x="276.53" y="652.39"/>
      <point x="230.07" y="710.0"/>
      <point x="146.13" y="710.0" type="curve" smooth="yes"/>
      <point x="97.50999999999999" y="710.0"/>
      <point x="57.61" y="693.99"/>
      <point x="17.86" y="653.99" type="curve"/>
      <point x="52.36" y="568.03" type="line"/>
      <point x="76.78999999999999" y="594.72"/>
      <point x="97.5" y="604.57"/>
      <point x="125.92" y="604.57" type="curve" smooth="yes"/>
      <point x="164.61" y="604.57"/>
      <point x="189.59" y="575.88"/>
      <point x="189.59" y="494.7" type="curve" smooth="yes"/>
      <point x="189.59" y="413.05"/>
      <point x="140.55" y="285.51"/>
    </contour>
  </outline>
</glyph>
<glyph name="three" format="2">
  <advance width="323.1"/>
  <unicode hex="0033"/>
  <outline>
    <contour>
      <point x="9.16" y="35.15" type="line"/>
      <point x="47.79" y="3.14"/>
      <point x="82.09" y="-10.0"/>
      <point x="131.41" y="-10.0" type="curve" smooth="yes"/>
      <point x="229.34" y="-10.0"/>
      <point x="287.1" y="68.72"/>
      <point x="287.1" y="201.44" type="curve" smooth="yes"/>
      <point x="287.1" y="283.56"/>
      <point x="260.23" y="343.99"/>
      <point x="209.5" y="372.15" type="curve"/>
      <point x="251.51999999999998" y="403.32"/>
      <point x="275.68" y="464.75"/>
      <point x="275.68" y="535.29" type="curve" smooth="yes"/>
      <point x="275.68" y="641.86"/>
      <point x="225.48" y="710.0"/>
      <point x="133.99" y="710.0" type="curve" smooth="yes"/>
      <point x="87.50999999999999" y="710.0"/>
      <point x="44.75" y="694.56"/>
      <point x="14.28" y="665.82" type="curve"/>
      <point x="45.629999999999995" y="591.76" type="line"/>
      <point x="63.06" y="606.32"/>
      <point x="88.36" y="614.32"/>
      <point x="114.64" y="614.32" type="curve" smooth="yes"/>
      <point x="165.18" y="614.32"/>
      <point x="189.46" y="572.24"/>
      <point x="189.46" y="506.05" type="curve" smooth="yes"/>
      <point x="189.46" y="443.43"/>
      <point x="166.9" y="399.21"/>
      <point x="131.62" y="399.21" type="curve" smooth="yes"/>
      <point x="80.49" y="399.21" type="line"/>
      <point x="80.49" y="322.88" type="line"/>
      <point x="122.36" y="322.88" type="line" smooth="yes"/>
      <point x="173.18" y="322.88"/>
      <point x="200.45" y="283.36"/>
      <point x="200.45" y="208.32" type="curve" smooth="yes"/>
      <point x="200.45" y="128.59"/>
      <point x="169.9" y="80.52"/>
      <point x="119.94" y="80.52" type="curve" smooth="yes"/>
      <point x="89.24" y="80.52"/>
      <point x="68.53" y="89.37"/>
      <point x="44.370000000000005" y="109.92999999999999" type="curve"/>
    </contour>
  </outline>
</glyph>
<glyph name="four" format="2">
  <advance width="323.1"/>
  <unicode hex="0034"/>
  <outline>
    <contour>
      <point x="18.86" y="142.12" type="line"/>
      <point x="175.04" y="142.12" type="line"/>
      <point x="175.04" y="0.0" type="line"/>
      <point x="259.53999999999996" y="0.0" type="line"/>
      <point x="259.53999999999996" y="142.12" type="line"/>
      <point x="313.24" y="142.12" type="line"/>
      <point x="313.24" y="222.32" type="line"/>
      <point x="259.53999999999996" y="222.32" type="line"/>
      <point x="259.53999999999996" y="699.0" type="line"/>
      <point x="159.4" y="702.28" type="line"/>
      <point x="15.3" y="224.48" type="line"/>
    </contour>
    <contour>
      <point x="80.3" y="222.32" type="line"/>
      <point x="179.34" y="563.8" type="line"/>
      <point x="179.34" y="222.32" type="line"/>
    </contour>
  </outline>
</glyph>
<glyph name="five" format="2">
  <advance width="323.1"/>
  <unicode hex="0035"/>
  <outline>
    <contour>
      <point x="23.44" y="34.13" type="line"/>
      <point x="55.76" y="5.28"/>
      <point x="91.06" y="-10.0"/>
      <point x="137.1" y="-10.0" type="curve" smooth="yes"/>
      <point x="235.75" y="-10.0"/>
      <point x="302.53" y="70.02"/>
      <point x="302.53" y="211.78" type="curve" smooth="yes"/>
      <point x="302.53" y="334.36"/>
      <point x="254.07999999999998" y="399.21"/>
      <point x="172.07" y="402.22" type="curve" smooth="yes"/>
      <point x="135.95999999999998" y="403.08" type="line"/>
      <point x="146.81" y="616.79" type="line"/>
      <point x="285.11" y="616.79" type="line"/>
      <point x="285.11" y="700.0" type="line"/>
      <point x="75.35" y="700.0" type="line"/>
      <point x="50.6" y="339.9" type="line"/>
      <point x="59.74" y="328.04" type="line"/>
      <point x="125.92" y="328.04" type="line" smooth="yes"/>
      <point x="184.18" y="328.04"/>
      <point x="214.59" y="286.96"/>
      <point x="214.59" y="208.34" type="curve" smooth="yes"/>
      <point x="214.59" y="128.46"/>
      <point x="185.05" y="79.66"/>
      <point x="126.35" y="79.66" type="curve" smooth="yes"/>
      <point x="90.77" y="79.66"/>
      <point x="66.19" y="93.92999999999999"/>
      <point x="46.75" y="110.63" type="curve"/>
    </contour>
  </outline>
</glyph>
<glyph name="six" format="2">
  <advance width="323.1"/>
  <unicode hex="0036"/>
  <outline>
    <contour>
      <point x="165.55" y="-10.0" type="curve" smooth="yes"/>
      <point x="257.94" y="-10.0"/>
      <point x="308.97" y="73.0"/>
      <point x="308.97" y="221.64" type="curve" smooth="yes"/>
      <point x="308.97" y="349.8"/>
      <point x="265.81" y="425.67"/>
      <point x="193.21" y="425.67" type="curve" smooth="yes"/>
      <point x="149.37" y="425.67"/>
      <point x="113.11" y="394.3"/>
      <point x="97.51" y="346.65" type="curve"/>
      <point x="97.92" y="270.35" type="line"/>
      <point x="109.92" y="321.83"/>
      <point x="134.31" y="352.92"/>
      <point x="165.55" y="352.92" type="curve" smooth="yes"/>
      <point x="200.78" y="352.92"/>
      <point x="221.89" y="304.55"/>
      <point x="221.89" y="217.35" type="curve" smooth="yes"/>
      <point x="221.89" y="121.7"/>
      <point x="199.36" y="69.49000000000001"/>
      <point x="166.7" y="69.49000000000001" type="curve" smooth="yes"/>
      <point x="124.34" y="69.49000000000001"/>
      <point x="107.95" y="123.1"/>
      <point x="107.95" y="341.2" type="curve" smooth="yes"/>
      <point x="107.95" y="533.42"/>
      <point x="124.61" y="625.35"/>
      <point x="207.49" y="625.35" type="curve" smooth="yes"/>
      <point x="232.63" y="625.35"/>
      <point x="251.65" y="615.21"/>
      <point x="268.93" y="599.36" type="curve"/>
      <point x="299.56" y="673.99" type="line"/>
      <point x="275.12" y="695.99"/>
      <point x="234.62" y="710.0"/>
      <point x="194.87" y="710.0" type="curve" smooth="yes"/>
      <point x="76.35" y="710.0"/>
      <point x="17.43" y="595.52"/>
      <point x="17.43" y="326.14" type="curve" smooth="yes"/>
      <point x="17.43" y="83.46"/>
      <point x="61.76" y="-10.0"/>
    </contour>
  </outline>
</glyph>
<glyph name="seven" format="2">
  <advance width="323.1"/>
  <unicode hex="0037"/>
  <outline>
    <contour>
      <point x="87.69" y="0.0" type="curve"/>
      <point x="180.36" y="0.0" type="line"/>
      <point x="180.93" y="132.68"/>
      <point x="195.5" y="233.62"/>
      <point x="229.38" y="359.38" type="curve" smooth="yes"/>
      <point x="302.23" y="635.27" type="line"/>
      <point x="302.23" y="700.0" type="line"/>
      <point x="19.87" y="700.0" type="line"/>
      <point x="19.87" y="617.65" type="line"/>
      <point x="210.57" y="617.65" type="line"/>
      <point x="146.7" y="399.76" type="line" smooth="yes"/>
      <point x="104.12" y="252.55"/>
      <point x="87.69" y="138.14"/>
    </contour>
  </outline>
</glyph>
<glyph name="eight" format="2">
  <advance width="323.1"/>
  <unicode hex="0038"/>
  <outline>
    <contour>
      <point x="155.97" y="386.51" type="curve"/>
      <point x="200.36" y="350.71" type="line"/>
      <point x="269.65" y="405.29"/>
      <point x="296.81" y="467.0"/>
      <point x="296.81" y="542.84" type="curve" smooth="yes"/>
      <point x="296.81" y="647.56"/>
      <point x="246.91" y="710.0"/>
      <point x="164.7" y="710.0" type="curve" smooth="yes"/>
      <point x="76.03999999999999" y="710.0"/>
      <point x="25.71" y="646.7"/>
      <point x="25.71" y="533.38" type="curve" smooth="yes"/>
      <point x="25.71" y="321.1"/>
      <point x="225.03" y="345.44"/>
      <point x="225.03" y="171.03" type="curve" smooth="yes"/>
      <point x="225.03" y="105.42"/>
      <point x="202.35" y="68.47999999999999"/>
      <point x="163.41" y="68.47999999999999" type="curve" smooth="yes"/>
      <point x="122.03999999999999" y="68.47999999999999"/>
      <point x="99.07" y="107.85"/>
      <point x="99.07" y="181.32" type="curve" smooth="yes"/>
      <point x="99.07" y="251.39"/>
      <point x="120.19" y="298.32"/>
      <point x="165.85" y="336.73" type="curve"/>
      <point x="116.59" y="378.4" type="line"/>
      <point x="46.3" y="327.27"/>
      <point x="15.43" y="259.43"/>
      <point x="15.43" y="174.45" type="curve" smooth="yes"/>
      <point x="15.43" y="56.58"/>
      <point x="67.76" y="-10.0"/>
      <point x="160.26" y="-10.0" type="curve" smooth="yes"/>
      <point x="255.2" y="-10.0"/>
      <point x="308.67" y="56.01"/>
      <point x="308.67" y="173.47" type="curve" smooth="yes"/>
      <point x="308.67" y="405.46"/>
      <point x="107.63" y="373.37"/>
      <point x="107.63" y="536.52" type="curve" smooth="yes"/>
      <point x="107.63" y="594.85"/>
      <point x="128.6" y="630.37"/>
      <point x="161.69" y="630.37" type="curve" smooth="yes"/>
      <point x="197.93" y="630.37"/>
      <point x="218.33" y="594.85"/>
      <point x="218.33" y="528.94" type="curve" smooth="yes"/>
      <point x="218.33" y="467.28"/>
      <point x="204.63" y="425.62"/>
    </contour>
  </outline>
</glyph>
<glyph name="nine" format="2">
  <advance width="323.1"/>
  <unicode hex="0039"/>
  <outline>
    <contour>
      <point x="133.81" y="-10.0" type="curve" smooth="yes"/>
      <point x="252.32999999999998" y="-10.0"/>
      <point x="308.97" y="104.48"/>
      <point x="308.97" y="373.86" type="curve" smooth="yes"/>
      <point x="308.97" y="616.54"/>
      <point x="264.64" y="710.0"/>
      <point x="160.85" y="710.0" type="curve" smooth="yes"/>
      <point x="68.46" y="710.0"/>
      <point x="17.43" y="627.0"/>
      <point x="17.43" y="478.36" type="curve" smooth="yes"/>
      <point x="17.43" y="350.2"/>
      <point x="60.59" y="274.33"/>
      <point x="133.19" y="274.33" type="curve" smooth="yes"/>
      <point x="177.03" y="274.33"/>
      <point x="213.29" y="306.84000000000003"/>
      <point x="228.89" y="354.49" type="curve"/>
      <point x="231.9" y="436.49" type="line"/>
      <point x="218.19" y="377.6"/>
      <point x="192.09" y="347.08"/>
      <point x="160.85" y="347.08" type="curve" smooth="yes"/>
      <point x="125.62" y="347.08"/>
      <point x="104.51" y="395.45"/>
      <point x="104.51" y="482.65" type="curve" smooth="yes"/>
      <point x="104.51" y="578.3"/>
      <point x="127.03999999999999" y="630.51"/>
      <point x="160.56" y="630.51" type="curve" smooth="yes"/>
      <point x="202.06" y="630.51"/>
      <point x="218.45" y="576.9"/>
      <point x="218.45" y="358.8" type="curve" smooth="yes"/>
      <point x="218.45" y="166.57999999999998"/>
      <point x="204.07" y="74.65"/>
      <point x="121.19" y="74.65" type="curve" smooth="yes"/>
      <point x="96.05" y="74.65"/>
      <point x="74.75" y="84.78999999999999"/>
      <point x="57.47" y="100.64" type="curve"/>
      <point x="26.84" y="26.009999999999998" type="line"/>
      <point x="51.28" y="4.01"/>
      <point x="94.06" y="-10.0"/>
    </contour>
  </outline>
</glyph>
<glyph name="less" format="2">
  <advance width="391.5"/>
  <unicode hex="003C"/>
  <outline>
    <contour>
      <point x="359.67" y="97.17" type="line"/>
      <point x="359.67" y="171.91" type="line"/>
      <point x="113.75" y="299.46" type="line"/>
      <point x="359.67" y="428.01" type="line"/>
      <point x="359.67" y="501.18" type="line"/>
      <point x="31.83" y="339.13" type="line"/>
      <point x="31.83" y="259.79" type="line"/>
    </contour>
  </outline>
</glyph>
<glyph name="equal" format="2">
  <advance width="382.9"/>
  <unicode hex="003D"/>
  <outline>
    <contour>
      <point x="342.61" y="233.12" type="line"/>
      <point x="40.29" y="233.12" type="line"/>
      <point x="40.29" y="152.92000000000002" type="line"/>
      <point x="342.61" y="152.92000000000002" type="line"/>
    </contour>
    <contour>
      <point x="342.61" y="447.0" type="line"/>
      <point x="40.29" y="447.0" type="line"/>
      <point x="40.29" y="366.8" type="line"/>
      <point x="342.61" y="366.8" type="line"/>
    </contour>
  </outline>
</glyph>
<glyph name="greater" format="2">
  <advance width="391.5"/>
  <unicode hex="003E"/>
  <outline>
    <contour>
      <point x="359.67" y="259.22" type="line"/>
      <point x="359.67" y="338.56" type="line"/>
      <point x="31.83" y="501.18" type="line"/>
      <point x="31.83" y="426.87" type="line"/>
      <point x="277.75" y="298.89" type="line"/>
      <point x="31.83" y="170.76999999999998" type="line"/>
      <point x="31.83" y="97.17" type="line"/>
    </contour>
  </outline>
</glyph>
<glyph name="question" format="2">
  <advance width="286.76"/>
  <unicode hex="003F"/>
  <outline>
    <contour>
      <point x="92.57" y="261.85" type="line"/>
      <point x="169.76" y="261.85" type="line"/>
      <point x="169.76" y="337.7" type="line"/>
      <point x="241.63" y="400.21"/>
      <point x="274.90999999999997" y="461.27"/>
      <point x="274.90999999999997" y="565.53" type="curve" smooth="yes"/>
      <point x="274.90999999999997" y="687.83"/>
      <point x="215.46" y="749.57"/>
      <point x="125.07" y="749.57" type="curve" smooth="yes"/>
      <point x="79.61" y="749.57"/>
      <point x="37.44" y="729.0"/>
      <point x="7.14" y="698.72" type="curve"/>
      <point x="41.07" y="619.9300000000001" type="line"/>
      <point x="69.21000000000001" y="647.34"/>
      <point x="90.9" y="655.32"/>
      <point x="112.6" y="655.32" type="curve" smooth="yes"/>
      <point x="156.0" y="655.32"/>
      <point x="184.68" y="613.09"/>
      <point x="184.68" y="550.33" type="curve" smooth="yes"/>
      <point x="184.68" y="485.85"/>
      <point x="165.84" y="437.73"/>
      <point x="90.85" y="376.37" type="curve"/>
    </contour>
    <contour>
      <point x="82.84" y="55.7" type="curve" smooth="yes"/>
      <point x="82.84" y="13.04"/>
      <point x="96.16" y="-4.3"/>
      <point x="131.38" y="-4.3" type="curve" smooth="yes"/>
      <point x="166.31" y="-4.3"/>
      <point x="179.35" y="13.04"/>
      <point x="179.35" y="55.7" type="curve" smooth="yes"/>
      <point x="179.35" y="98.78999999999999"/>
      <point x="166.31" y="116.13"/>
      <point x="131.38" y="116.13" type="curve" smooth="yes"/>
      <point x="95.02" y="116.13"/>
      <point x="82.84" y="98.78999999999999"/>
    </contour>
  </outline>
</glyph>
<glyph name="at" format="2">
  <advance width="561.06"/>
  <unicode hex="0040"/>
  <outline>
    <contour>
      <point x="291.88" y="-123.86" type="curve" smooth="yes"/>
      <point x="346.15999999999997" y="-123.86"/>
      <point x="406.5" y="-99.46"/>
      <point x="432.68" y="-71.76" type="curve"/>
      <point x="415.24" y="-36.1" type="line"/>
      <point x="383.48" y="-60.22"/>
      <point x="340.74" y="-78.34"/>
      <point x="291.88" y="-78.34" type="curve" smooth="yes"/>
      <point x="155.24" y="-78.34"/>
      <point x="72.4" y="4.079999999999998"/>
      <point x="72.4" y="265.42" type="curve" smooth="yes"/>
      <point x="72.4" y="500.24"/>
      <point x="132.38" y="667.2"/>
      <point x="288.88" y="667.2" type="curve" smooth="yes"/>
      <point x="448.14" y="667.2"/>
      <point x="492.96000000000004" y="553.32"/>
      <point x="492.96000000000004" y="344.54" type="curve" smooth="yes"/>
      <point x="492.96000000000004" y="215.6"/>
      <point x="472.9" y="112.84"/>
      <point x="433.34000000000003" y="112.84" type="curve" smooth="yes"/>
      <point x="409.32" y="112.84"/>
      <point x="385.9" y="132.56"/>
      <point x="392.9" y="249.44" type="curve" smooth="yes"/>
      <point x="411.06" y="526.02" type="line"/>
      <point x="371.44" y="543.9"/>
      <point x="339.26" y="552.62"/>
      <point x="297.32" y="552.62" type="curve" smooth="yes"/>
      <point x="187.5" y="552.62"/>
      <point x="148.28" y="421.04"/>
      <point x="148.28" y="264.84" type="curve" smooth="yes"/>
      <point x="148.28" y="105.14"/>
      <point x="185.62" y="55.42"/>
      <point x="238.22" y="55.42" type="curve" smooth="yes"/>
      <point x="289.5" y="55.42"/>
      <point x="307.98" y="99.08"/>
      <point x="328.74" y="170.34" type="curve"/>
      <point x="336.48" y="80.02"/>
      <point x="364.08" y="50.7"/>
      <point x="417.86" y="50.7" type="curve" smooth="yes"/>
      <point x="504.52" y="50.7"/>
      <point x="542.2" y="182.38"/>
      <point x="542.2" y="352.28" type="curve" smooth="yes"/>
      <point x="542.2" y="595.1"/>
      <point x="459.42" y="710.0"/>
      <point x="295.76" y="710.0" type="curve" smooth="yes"/>
      <point x="99.6" y="710.0"/>
      <point x="19.72" y="528.3"/>
      <point x="19.72" y="271.44" type="curve" smooth="yes"/>
      <point x="19.72" y="-15.66"/>
      <point x="119.3" y="-123.86"/>
    </contour>
    <contour>
      <point x="270.32" y="139.92000000000002" type="curve" smooth="yes"/>
      <point x="251.92000000000002" y="139.92000000000002"/>
      <point x="236.22" y="167.01999999999998"/>
      <point x="236.22" y="260.54" type="curve" smooth="yes"/>
      <point x="236.22" y="367.5"/>
      <point x="253.94" y="489.76"/>
      <point x="298.03999999999996" y="489.76" type="curve" smooth="yes"/>
      <point x="307.6" y="489.76"/>
      <point x="318.02" y="485.76"/>
      <point x="329.14" y="480.2" type="curve"/>
      <point x="318.12" y="341.3" type="line" smooth="yes"/>
      <point x="304.28" y="159.18"/>
      <point x="296.0" y="139.92000000000002"/>
    </contour>
  </outline>
</glyph>
<glyph name="A" format="2">
  <advance width="351.51"/>
  <unicode hex="0041"/>
  <anchor x="339.25" y="0.0" name="ogonek"/>
  <anchor x="175.68" y="0.0" name="bottom"/>
  <anchor x="175.68" y="700.0" name="top"/>
  <outline>
    <contour>
      <point x="12.26" y="0.0" type="line"/>
      <point x="99.34" y="0.0" type="line"/>
      <point x="122.3" y="165.1" type="line"/>
      <point x="228.06" y="165.1" type="line"/>
      <point x="251.31" y="0.0" type="line"/>
      <point x="339.25" y="0.0" type="line"/>
      <point x="234.85" y="705.7" type="line"/>
      <point x="115.65" y="705.7" type="line"/>
    </contour>
    <contour>
      <point x="130.46" y="257.63" type="line"/>
      <point x="175.68" y="621.46" type="line"/>
      <point x="219.9" y="257.63" type="line"/>
    </contour>
  </outline>
</glyph>
<glyph name="B" format="2">
  <advance width="338.08"/>
  <unicode hex="0042"/>
  <anchor x="161.56" y="700.0" name="top"/>
  <anchor x="161.56" y="0.0" name="bottom"/>
  <outline>
    <contour>
      <point x="33.97" y="-1.2700000000000005" type="line"/>
      <point x="95.1" y="-8.57"/>
      <point x="107.22" y="-10.0"/>
      <point x="152.57999999999998" y="-10.0" type="curve" smooth="yes"/>
      <point x="269.22" y="-10.0"/>
      <point x="322.39" y="54.01"/>
      <point x="322.39" y="194.76" type="curve" smooth="yes"/>
      <point x="322.39" y="280.73"/>
      <point x="290.53999999999996" y="345.59"/>
      <point x="235.84" y="371.19" type="curve"/>
      <point x="235.84" y="372.62" type="line"/>
      <point x="277.53999999999996" y="398.78"/>
      <point x="303.81" y="460.61"/>
      <point x="303.81" y="534.86" type="curve" smooth="yes"/>
      <point x="303.81" y="654.14"/>
      <point x="255.35" y="710.0"/>
      <point x="152.57999999999998" y="710.0" type="curve" smooth="yes"/>
      <point x="120.68" y="710.0"/>
      <point x="81.19" y="706.71"/>
      <point x="33.97" y="700.13" type="curve"/>
    </contour>
    <contour>
      <point x="121.05" y="389.8" type="line"/>
      <point x="121.05" y="622.21" type="line"/>
      <point x="131.04" y="625.21"/>
      <point x="141.6" y="626.21"/>
      <point x="154.87" y="626.21" type="curve" smooth="yes"/>
      <point x="202.51" y="626.21"/>
      <point x="225.76" y="587.97"/>
      <point x="225.76" y="509.49" type="curve" smooth="yes"/>
      <point x="225.76" y="438.43"/>
      <point x="200.66" y="389.8"/>
      <point x="158.57" y="389.8" type="curve" smooth="yes"/>
    </contour>
    <contour>
      <point x="121.05" y="76.92999999999999" type="curve"/>
      <point x="121.05" y="315.19" type="line"/>
      <point x="158.99" y="315.19" type="line" smooth="yes"/>
      <point x="209.5" y="315.19"/>
      <point x="236.6" y="270.83"/>
      <point x="236.6" y="197.48" type="curve" smooth="yes"/>
      <point x="236.6" y="110.74000000000001"/>
      <point x="212.21" y="73.92999999999999"/>
      <point x="153.59" y="73.92999999999999" type="curve" smooth="yes"/>
      <point x="144.88" y="73.92999999999999"/>
      <point x="136.6" y="74.92999999999999"/>
    </contour>
  </outline>
</glyph>
<glyph name="C" format="2">
  <advance width="295.04"/>
  <unicode hex="0043"/>
  <anchor x="178.23" y="700.0" name="top"/>
  <anchor x="181.53" y="0.0" name="bottom"/>
  <outline>
    <contour>
      <point x="19.83" y="342.02" type="curve" smooth="yes"/>
      <point x="19.83" y="69.48"/>
      <point x="76.41" y="-10.0"/>
      <point x="188.52" y="-10.0" type="curve" smooth="yes"/>
      <point x="220.14" y="-10.0"/>
      <point x="257.15999999999997" y="-4.99"/>
      <point x="283.76" y="6.6" type="curve"/>
      <point x="268.58" y="89.24" type="line"/>
      <point x="252.0" y="82.52"/>
      <point x="220.57999999999998" y="77.23"/>
      <point x="204.14" y="77.23" type="curve" smooth="yes"/>
      <point x="140.01" y="77.23"/>
      <point x="107.34" y="130.9"/>
      <point x="107.34" y="339.87" type="curve" smooth="yes"/>
      <point x="107.34" y="567.24"/>
      <point x="140.87" y="622.63"/>
      <point x="205.13" y="622.63" type="curve" smooth="yes"/>
      <point x="225.0" y="622.63"/>
      <point x="242.29" y="619.34"/>
      <point x="265.15999999999997" y="611.19" type="curve"/>
      <point x="282.49" y="692.4" type="line"/>
      <point x="257.62" y="704.13"/>
      <point x="224.43" y="710.0"/>
      <point x="192.95" y="710.0" type="curve" smooth="yes"/>
      <point x="73.57" y="710.0"/>
      <point x="19.83" y="616.41"/>
    </contour>
  </outline>
</glyph>
<glyph name="D" format="2">
  <advance width="350.64"/>
  <unicode hex="0044"/>
  <anchor x="165.98" y="700.0" name="top"/>
  <outline>
    <contour>
      <point x="148.82" y="-10.0" type="curve" smooth="yes"/>
      <point x="281.34" y="-10.0"/>
      <point x="330.81" y="91.29"/>
      <point x="330.81" y="351.72" type="curve" smooth="yes"/>
      <point x="330.81" y="608.42"/>
      <point x="287.36" y="710.0"/>
      <point x="151.11" y="710.0" type="curve" smooth="yes"/>
      <point x="109.33" y="710.0"/>
      <point x="73.58" y="707.57"/>
      <point x="33.97" y="701.42" type="curve"/>
      <point x="33.97" y="-3.42" type="line"/>
      <point x="65.58" y="-8.14"/>
      <point x="105.34" y="-10.0"/>
    </contour>
    <contour>
      <point x="152.3" y="72.92999999999999" type="curve" smooth="yes"/>
      <point x="141.16" y="72.92999999999999"/>
      <point x="132.46" y="73.92999999999999"/>
      <point x="120.62" y="75.5" type="curve"/>
      <point x="120.62" y="622.64" type="line"/>
      <point x="131.32" y="624.64"/>
      <point x="144.01999999999998" y="625.64"/>
      <point x="154.01" y="625.64" type="curve" smooth="yes"/>
      <point x="220.62" y="625.64"/>
      <point x="240.58" y="567.58"/>
      <point x="240.58" y="350.0" type="curve" smooth="yes"/>
      <point x="240.58" y="137.15"/>
      <point x="220.9" y="72.92999999999999"/>
    </contour>
  </outline>
</glyph>
<glyph name="E" format="2">
  <advance width="291.89"/>
  <unicode hex="0045"/>
  <anchor x="280.46" y="0.0" name="ogonek"/>
  <anchor x="157.07" y="0.0" name="bottom"/>
  <anchor x="154.22" y="700.0" name="top"/>
  <outline>
    <contour>
      <point x="33.97" y="0.0" type="line"/>
      <point x="280.46" y="0.0" type="line"/>
      <point x="280.46" y="87.94" type="line"/>
      <point x="121.05" y="87.94" type="line"/>
      <point x="121.05" y="315.3" type="line"/>
      <point x="251.59" y="315.3" type="line"/>
      <point x="251.59" y="398.37" type="line"/>
      <point x="121.05" y="398.37" type="line"/>
      <point x="121.05" y="609.91" type="line"/>
      <point x="270.03" y="609.91" type="line"/>
      <point x="270.03" y="700.0" type="line"/>
      <point x="33.97" y="700.0" type="line"/>
    </contour>
  </outline>
</glyph>
<glyph name="F" format="2">
  <advance width="277.04"/>
  <unicode hex="0046"/>
  <outline>
    <contour>
      <point x="33.97" y="0.0" type="line"/>
      <point x="121.47999999999999" y="0.0" type="line"/>
      <point x="121.47999999999999" y="288.94" type="line"/>
      <point x="240.76" y="288.94" type="line"/>
      <point x="240.76" y="378.46" type="line"/>
      <point x="120.62" y="378.46" type="line"/>
      <point x="120.62" y="609.91" type="line"/>
      <point x="269.6" y="609.91" type="line"/>
      <point x="269.6" y="700.0" type="line"/>
      <point x="33.97" y="700.0" type="line"/>
    </contour>
  </outline>
</glyph>
<glyph name="G" format="2">
  <advance width="328.51"/>
  <unicode hex="0047"/>
  <anchor x="180.38" y="700.0" name="top"/>
  <anchor x="181.52" y="0.0" name="bottom"/>
  <outline>
    <contour>
      <point x="19.83" y="342.88" type="curve" smooth="yes"/>
      <point x="19.83" y="98.01"/>
      <point x="67.58" y="-10.0"/>
      <point x="181.64" y="-10.0" type="curve" smooth="yes"/>
      <point x="230.28" y="-10.0"/>
      <point x="271.61" y="-0.5499999999999998"/>
      <point x="302.39" y="19.5" type="curve"/>
      <point x="302.39" y="371.68" type="line"/>
      <point x="164.54" y="371.68" type="line"/>
      <point x="164.54" y="287.32" type="line"/>
      <point x="221.76" y="287.32" type="line"/>
      <point x="221.76" y="78.65" type="line"/>
      <point x="213.34" y="74.78999999999999"/>
      <point x="201.06" y="72.92999999999999"/>
      <point x="184.36" y="72.92999999999999" type="curve" smooth="yes"/>
      <point x="128.87" y="72.92999999999999"/>
      <point x="106.47999999999999" y="146.7"/>
      <point x="106.47999999999999" y="336.86" type="curve" smooth="yes"/>
      <point x="106.47999999999999" y="542.41"/>
      <point x="134.46" y="623.49"/>
      <point x="204.26999999999998" y="623.49" type="curve" smooth="yes"/>
      <point x="226.29" y="623.49"/>
      <point x="253.9" y="618.48"/>
      <point x="274.62" y="610.76" type="curve"/>
      <point x="290.23" y="692.83" type="line"/>
      <point x="267.07" y="702.7"/>
      <point x="225.28" y="710.0"/>
      <point x="194.24" y="710.0" type="curve" smooth="yes"/>
      <point x="71.3" y="710.0"/>
      <point x="19.83" y="600.42"/>
    </contour>
  </outline>
</glyph>
<glyph name="H" format="2">
  <advance width="361.75"/>
  <unicode hex="0048"/>
  <anchor x="181.09" y="700.0" name="top"/>
  <outline>
    <contour>
      <point x="33.97" y="0.0" type="line"/>
      <point x="120.62" y="0.0" type="line"/>
      <point x="120.62" y="263.91" type="line"/>
      <point x="241.13" y="263.91" type="line"/>
      <point x="241.13" y="0.0" type="line"/>
      <point x="327.78" y="0.0" type="line"/>
      <point x="327.78" y="700.0" type="line"/>
      <point x="241.13" y="700.0" type="line"/>
      <point x="241.13" y="354.29" type="line"/>
      <point x="120.62" y="354.29" type="line"/>
      <point x="120.62" y="700.0" type="line"/>
      <point x="33.97" y="700.0" type="line"/>
    </contour>
  </outline>
</glyph>
<glyph name="I" format="2">
  <advance width="154.59"/>
  <unicode hex="0049"/>
  <anchor x="120.62" y="0.0" name="ogonek"/>
  <anchor x="77.50999999999999" y="0.0" name="bottom"/>
  <anchor x="77.50999999999999" y="700.0" name="top"/>
  <outline>
    <contour>
      <point x="33.97" y="0.0" type="line"/>
      <point x="120.62" y="0.0" type="line"/>
      <point x="120.62" y="700.0" type="line"/>
      <point x="33.97" y="700.0" type="line"/>
    </contour>
  </outline>
</glyph>
<glyph name="J" format="2">
  <advance width="248.87"/>
  <unicode hex="004A"/>
  <anchor x="127.25" y="700.0" name="top"/>
  <outline>
    <contour>
      <point x="2.85" y="8.61" type="line"/>
      <point x="27.44" y="-1.9800000000000004"/>
      <point x="57.76" y="-10.0"/>
      <point x="92.97" y="-10.0" type="curve" smooth="yes"/>
      <point x="185.12" y="-10.0"/>
      <point x="218.61" y="50.31"/>
      <point x="218.61" y="145.41" type="curve" smooth="yes"/>
      <point x="218.61" y="700.0" type="line"/>
      <point x="26.61" y="700.0" type="line"/>
      <point x="26.61" y="610.91" type="line"/>
      <point x="131.96" y="610.91" type="line"/>
      <point x="131.96" y="175.09" type="line" smooth="yes"/>
      <point x="131.96" y="97.78"/>
      <point x="110.55" y="76.51"/>
      <point x="63.3" y="76.51" type="curve" smooth="yes"/>
      <point x="50.45" y="76.51"/>
      <point x="33.45" y="79.23"/>
      <point x="18.17" y="84.23" type="curve"/>
    </contour>
  </outline>
</glyph>
<glyph name="K" format="2">
  <advance width="340.14"/>
  <unicode hex="004B"/>
  <anchor x="173.57999999999998" y="700.0" name="top"/>
  <anchor x="186.72" y="0.0" name="bottom"/>
  <outline>
    <contour>
      <point x="313.22" y="-10.0" type="curve" smooth="yes"/>
      <point x="318.8" y="-10.0"/>
      <point x="324.52" y="-10.0"/>
      <point x="333.1" y="-8.0" type="curve"/>
      <point x="333.1" y="101.58" type="line"/>
      <point x="330.24" y="101.44"/>
      <point x="327.24" y="101.44"/>
      <point x="324.38" y="101.44" type="curve" smooth="yes"/>
      <point x="311.24" y="101.44"/>
      <point x="294.64" y="107.86"/>
      <point x="253.78" y="188.68" type="curve" smooth="yes"/>
      <point x="121.47999999999999" y="450.14" type="line"/>
      <point x="121.47999999999999" y="700.0" type="line"/>
      <point x="34.4" y="700.0" type="line"/>
      <point x="34.4" y="0.0" type="line"/>
      <point x="121.47999999999999" y="0.0" type="line"/>
      <point x="121.47999999999999" y="281.15999999999997" type="line"/>
      <point x="219.57999999999998" y="81.64" type="line" smooth="yes"/>
      <point x="250.14" y="19.84"/>
      <point x="276.32" y="-10.0"/>
    </contour>
    <contour>
      <point x="180.7" y="283.38" type="line"/>
      <point x="247.78" y="376.58"/>
      <point x="302.9" y="506.28"/>
      <point x="328.46" y="683.38" type="curve"/>
      <point x="250.98" y="701.14" type="line"/>
      <point x="228.86" y="542.8"/>
      <point x="175.86" y="423.52"/>
      <point x="135.44" y="357.7" type="curve"/>
    </contour>
  </outline>
</glyph>
<glyph name="L" format="2">
  <advance width="266.90999999999997"/>
  <unicode hex="004C"/>
  <anchor x="133.67" y="350.0" name="center"/>
  <anchor x="77.50999999999999" y="700.0" name="top"/>
  <anchor x="178.82999999999998" y="700.0" name="topright"/>
  <anchor x="148.36" y="0.0" name="bottom"/>
  <outline>
    <contour>
      <point x="33.97" y="0.0" type="line"/>
      <point x="260.33" y="0.0" type="line"/>
      <point x="260.33" y="87.37" type="line"/>
      <point x="121.05" y="87.37" type="line"/>
      <point x="121.05" y="700.0" type="line"/>
      <point x="33.97" y="700.0" type="line"/>
    </contour>
  </outline>
</glyph>
<glyph name="M" format="2">
  <advance width="417.17"/>
  <unicode hex="004D"/>
  <outline>
    <contour>
      <point x="33.97" y="0.0" type="line"/>
      <point x="112.88" y="0.0" type="line"/>
      <point x="112.88" y="523.48" type="line"/>
      <point x="184.53" y="213.79" type="line"/>
      <point x="231.21" y="213.79" type="line"/>
      <point x="304.29" y="522.91" type="line"/>
      <point x="304.29" y="0.0" type="line"/>
      <point x="383.2" y="0.0" type="line"/>
      <point x="383.2" y="700.0" type="line"/>
      <point x="292.54" y="700.0" type="line"/>
      <point x="210.16" y="363.27" type="line"/>
      <point x="127.78" y="700.0" type="line"/>
      <point x="33.97" y="700.0" type="line"/>
    </contour>
  </outline>
</glyph>
<glyph name="N" format="2">
  <advance width="367.07"/>
  <unicode hex="004E"/>
  <anchor x="183.82" y="700.0" name="top"/>
  <anchor x="183.82" y="0.0" name="bottom"/>
  <outline>
    <contour>
      <point x="33.97" y="0.0" type="line"/>
      <point x="111.59" y="0.0" type="line"/>
      <point x="111.59" y="480.63" type="line"/>
      <point x="242.44" y="0.0" type="line"/>
      <point x="333.1" y="0.0" type="line"/>
      <point x="333.1" y="700.0" type="line"/>
      <point x="255.48" y="700.0" type="line"/>
      <point x="255.48" y="204.19" type="line"/>
      <point x="125.06" y="700.0" type="line"/>
      <point x="33.97" y="700.0" type="line"/>
    </contour>
  </outline>
</glyph>
<glyph name="O" format="2">
  <advance width="352.32"/>
  <unicode hex="004F"/>
  <anchor x="229.76" y="5.16" name="ogonek"/>
  <anchor x="175.66" y="700.0" name="top"/>
  <anchor x="261.6" y="694.3" name="topright"/>
  <anchor x="175.66" y="0.0" name="bottom"/>
  <outline>
    <contour>
      <point x="175.66" y="74.22" type="curve" smooth="yes"/>
      <point x="126.16" y="74.22"/>
      <point x="109.06" y="125.16"/>
      <point x="109.06" y="349.0" type="curve" smooth="yes"/>
      <point x="109.06" y="574.84"/>
      <point x="126.16" y="626.64"/>
      <point x="175.66" y="626.64" type="curve" smooth="yes"/>
      <point x="226.16" y="626.64"/>
      <point x="243.26" y="575.7"/>
      <point x="243.26" y="349.86" type="curve" smooth="yes"/>
      <point x="243.26" y="126.02"/>
      <point x="226.16" y="74.22"/>
    </contour>
    <contour>
      <point x="175.66" y="-10.0" type="curve" smooth="yes"/>
      <point x="284.88" y="-10.0"/>
      <point x="332.06" y="67.88"/>
      <point x="332.06" y="350.72" type="curve" smooth="yes"/>
      <point x="332.06" y="632.98"/>
      <point x="285.74" y="710.0"/>
      <point x="175.66" y="710.0" type="curve" smooth="yes"/>
      <point x="66.58" y="710.0"/>
      <point x="20.259999999999998" y="632.12"/>
      <point x="20.259999999999998" y="349.0" type="curve" smooth="yes"/>
      <point x="20.259999999999998" y="67.02"/>
      <point x="66.58" y="-10.0"/>
    </contour>
  </outline>
</glyph>
<glyph name="P" format="2">
  <advance width="328.84000000000003"/>
  <unicode hex="0050"/>
  <outline>
    <contour>
      <point x="33.97" y="0.0" type="line"/>
      <point x="121.05" y="0.0" type="line"/>
      <point x="121.05" y="235.66" type="line"/>
      <point x="138.79" y="233.37"/>
      <point x="149.06" y="233.37"/>
      <point x="167.64" y="233.37" type="curve" smooth="yes"/>
      <point x="267.98" y="233.37"/>
      <point x="315.85" y="309.56"/>
      <point x="315.85" y="480.18" type="curve" smooth="yes"/>
      <point x="315.85" y="644.51"/>
      <point x="275.53" y="710.0"/>
      <point x="152.15" y="710.0" type="curve" smooth="yes"/>
      <point x="130.57" y="710.0"/>
      <point x="90.65" y="708.43"/>
      <point x="33.97" y="703.14" type="curve"/>
    </contour>
    <contour>
      <point x="121.47999999999999" y="623.9300000000001" type="line"/>
      <point x="135.32999999999998" y="626.9300000000001"/>
      <point x="148.18" y="627.5"/>
      <point x="157.88" y="627.5" type="curve" smooth="yes"/>
      <point x="214.93" y="627.5"/>
      <point x="228.77" y="585.96"/>
      <point x="228.77" y="483.63" type="curve" smooth="yes"/>
      <point x="228.77" y="360.69"/>
      <point x="204.81" y="315.72"/>
      <point x="154.01999999999998" y="315.72" type="curve" smooth="yes"/>
      <point x="141.03" y="315.72"/>
      <point x="131.47" y="315.72"/>
      <point x="121.47999999999999" y="317.15" type="curve"/>
    </contour>
  </outline>
</glyph>
<glyph name="Q" format="2">
  <advance width="352.32"/>
  <unicode hex="0051"/>
  <outline>
    <contour>
      <point x="231.36" y="27.22" type="curve"/>
      <point x="166.92" y="6.02" type="line"/>
      <point x="182.06" y="-136.92000000000002"/>
      <point x="204.22" y="-188.5"/>
      <point x="265.28" y="-188.5" type="curve" smooth="yes"/>
      <point x="283.44" y="-188.5"/>
      <point x="303.74" y="-183.5"/>
      <point x="321.88" y="-176.5" type="curve"/>
      <point x="310.72" y="-89.84" type="line"/>
      <point x="300.02" y="-95.12"/>
      <point x="288.74" y="-99.12"/>
      <point x="279.6" y="-99.12" type="curve" smooth="yes"/>
      <point x="253.48" y="-99.12"/>
      <point x="243.92000000000002" y="-67.3"/>
    </contour>
    <component base="O"/>
  </outline>
</glyph>
<glyph name="R" format="2">
  <advance width="342.12"/>
  <unicode hex="0052"/>
  <anchor x="170.14" y="700.0" name="top"/>
  <anchor x="174.7" y="0.0" name="bottom"/>
  <outline>
    <contour>
      <point x="304.04" y="-10.0" type="curve" smooth="yes"/>
      <point x="319.5" y="-10.0"/>
      <point x="328.8" y="-7.0"/>
      <point x="336.1" y="-5.0" type="curve"/>
      <point x="332.96" y="90.26" type="line"/>
      <point x="331.68" y="90.12"/>
      <point x="324.1" y="89.98"/>
      <point x="322.96" y="89.98" type="curve" smooth="yes"/>
      <point x="299.36" y="89.98"/>
      <point x="283.92" y="104.12"/>
      <point x="237.42000000000002" y="289.78" type="curve"/>
      <point x="290.0" y="316.08"/>
      <point x="315.42" y="391.84"/>
      <point x="315.42" y="500.66" type="curve" smooth="yes"/>
      <point x="315.42" y="651.1"/>
      <point x="261.8" y="710.0"/>
      <point x="158.6" y="710.0" type="curve" smooth="yes"/>
      <point x="113.8" y="710.0"/>
      <point x="74.74" y="707.14"/>
      <point x="34.4" y="702.28" type="curve"/>
      <point x="34.4" y="0.0" type="line"/>
      <point x="119.75999999999999" y="0.0" type="line"/>
      <point x="119.75999999999999" y="259.42" type="line"/>
      <point x="125.46000000000001" y="258.42"/>
      <point x="135.3" y="258.42"/>
      <point x="144.42000000000002" y="258.42" type="curve" smooth="yes"/>
      <point x="150.26" y="258.42"/>
      <point x="157.68" y="259.42"/>
      <point x="163.38" y="260.56" type="curve"/>
      <point x="229.36" y="0.7000000000000002"/>
      <point x="253.28" y="-10.0"/>
    </contour>
    <contour>
      <point x="152.3" y="339.48" type="curve" smooth="yes"/>
      <point x="139.74" y="339.48"/>
      <point x="130.18" y="340.34"/>
      <point x="119.75999999999999" y="341.34" type="curve"/>
      <point x="119.75999999999999" y="623.5" type="line"/>
      <point x="134.04" y="626.5"/>
      <point x="146.46" y="627.5"/>
      <point x="156.16" y="627.5" type="curve" smooth="yes"/>
      <point x="212.52" y="627.5"/>
      <point x="227.48" y="585.96"/>
      <point x="227.48" y="486.48" type="curve" smooth="yes"/>
      <point x="227.48" y="387.62"/>
      <point x="203.82" y="339.48"/>
    </contour>
  </outline>
</glyph>
<glyph name="S" format="2">
  <advance width="309.38"/>
  <unicode hex="0053"/>
  <anchor x="160.39" y="700.0" name="top"/>
  <anchor x="151.68" y="0.0" name="bottom"/>
  <outline>
    <contour>
      <point x="277.40999999999997" y="686.54" type="line"/>
      <point x="256.68" y="698.41"/>
      <point x="211.03" y="710.0"/>
      <point x="169.84" y="710.0" type="curve" smooth="yes"/>
      <point x="63.96" y="710.0"/>
      <point x="19.54" y="633.19"/>
      <point x="19.54" y="544.75" type="curve" smooth="yes"/>
      <point x="19.54" y="446.3"/>
      <point x="65.84" y="381.46"/>
      <point x="112.57" y="325.36" type="curve" smooth="yes"/>
      <point x="160.02" y="268.54"/>
      <point x="208.47" y="220.61"/>
      <point x="208.47" y="154.11" type="curve" smooth="yes"/>
      <point x="208.47" y="97.9"/>
      <point x="169.8" y="73.64"/>
      <point x="126.95" y="73.64" type="curve" smooth="yes"/>
      <point x="97.50999999999999" y="73.64"/>
      <point x="67.34" y="79.65"/>
      <point x="30.009999999999998" y="94.52" type="curve"/>
      <point x="10.83" y="17.18" type="line"/>
      <point x="47.04" y="-1.71"/>
      <point x="90.65" y="-10.0"/>
      <point x="130.82" y="-10.0" type="curve" smooth="yes"/>
      <point x="230.68" y="-10.0"/>
      <point x="293.83" y="54.79"/>
      <point x="293.83" y="158.82999999999998" type="curve" smooth="yes"/>
      <point x="293.83" y="261.29"/>
      <point x="242.95" y="322.98"/>
      <point x="194.5" y="378.36" type="curve" smooth="yes"/>
      <point x="149.63" y="430.88"/>
      <point x="106.62" y="476.1"/>
      <point x="106.62" y="542.6" type="curve" smooth="yes"/>
      <point x="106.62" y="595.54"/>
      <point x="134.17000000000002" y="624.92"/>
      <point x="178.87" y="624.92" type="curve" smooth="yes"/>
      <point x="206.3" y="624.92"/>
      <point x="229.19" y="620.92"/>
      <point x="257.8" y="609.05" type="curve"/>
    </contour>
  </outline>
</glyph>
<glyph name="T" format="2">
  <advance width="303.65999999999997"/>
  <unicode hex="0054"/>
  <anchor x="151.82999999999998" y="700.0" name="top"/>
  <anchor x="151.82999999999998" y="0.0" name="bottom"/>
  <outline>
    <contour>
      <point x="296.51" y="610.91" type="line"/>
      <point x="296.51" y="700.0" type="line"/>
      <point x="7.15" y="700.0" type="line"/>
      <point x="7.15" y="610.91" type="line"/>
      <point x="108.72" y="610.91" type="line"/>
      <point x="108.72" y="0.0" type="line"/>
      <point x="195.37" y="0.0" type="line"/>
      <point x="195.37" y="610.91" type="line"/>
    </contour>
  </outline>
</glyph>
<glyph name="U" format="2">
  <advance width="353.76"/>
  <unicode hex="0055"/>
  <anchor x="225.47" y="0.86" name="ogonek"/>
  <anchor x="177.38" y="700.0" name="top"/>
  <anchor x="323.5" y="700.0" name="topright"/>
  <anchor x="177.38" y="0.0" name="bottom"/>
  <outline>
    <contour>
      <point x="30.259999999999998" y="165.24" type="line"/>
      <point x="30.259999999999998" y="29.759999999999998"/>
      <point x="92.42" y="-10.0"/>
      <point x="176.52" y="-10.0" type="curve" smooth="yes"/>
      <point x="263.63" y="-10.0"/>
      <point x="323.5" y="29.759999999999998"/>
      <point x="323.5" y="165.24" type="curve" smooth="yes"/>
      <point x="323.5" y="700.0" type="line"/>
      <point x="235.99" y="700.0" type="line"/>
      <point x="235.99" y="154.49" type="line" smooth="yes"/>
      <point x="235.99" y="87.05"/>
      <point x="208.05" y="72.78"/>
      <point x="176.52" y="72.78" type="curve" smooth="yes"/>
      <point x="145.42000000000002" y="72.78"/>
      <point x="116.91" y="87.05"/>
      <point x="116.91" y="154.49" type="curve" smooth="yes"/>
      <point x="116.91" y="700.0" type="line"/>
      <point x="30.259999999999998" y="700.0" type="line"/>
    </contour>
  </outline>
</glyph>
<glyph name="V" format="2">
  <advance width="338.84000000000003"/>
  <unicode hex="0056"/>
  <outline>
    <contour>
      <point x="115.42" y="0.0" type="line"/>
      <point x="226.86" y="0.0" type="line"/>
      <point x="334.0" y="699.86" type="line"/>
      <point x="242.76" y="701.14" type="line"/>
      <point x="171.14" y="109.9" type="line"/>
      <point x="96.08" y="701.14" type="line"/>
      <point x="4.84" y="699.86" type="line"/>
    </contour>
  </outline>
</glyph>
<glyph name="W" format="2">
  <advance width="454.03999999999996"/>
  <unicode hex="0057"/>
  <anchor x="227.01999999999998" y="700.0" name="top"/>
  <anchor x="227.01999999999998" y="0.0" name="bottom"/>
  <outline>
    <contour>
      <point x="376.9" y="0.0" type="line"/>
      <point x="449.34000000000003" y="699.86" type="line"/>
      <point x="354.52" y="701.14" type="line"/>
      <point x="325.06" y="128.1" type="line"/>
      <point x="261.52" y="675.92" type="line"/>
      <point x="195.96" y="675.92" type="line"/>
      <point x="132.42000000000002" y="128.1" type="line"/>
      <point x="99.52" y="701.14" type="line"/>
      <point x="4.7" y="699.86" type="line"/>
      <point x="77.28" y="0.0" type="line"/>
      <point x="170.8" y="0.0" type="line"/>
      <point x="225.16" y="500.08000000000004" type="line"/>
      <point x="277.94" y="0.0" type="line"/>
    </contour>
  </outline>
</glyph>
<glyph name="X" format="2">
  <advance width="355.44"/>
  <unicode hex="0058"/>
  <outline>
    <contour>
      <point x="12.1" y="1.1400000000000001" type="line"/>
      <point x="112.66" y="-2.2800000000000002" type="line"/>
      <point x="177.01" y="291.87" type="line"/>
      <point x="241.78" y="-2.2800000000000002" type="line"/>
      <point x="342.77" y="1.1400000000000001" type="line"/>
      <point x="243.62" y="356.71" type="line"/>
      <point x="335.90999999999997" y="698.29" type="line"/>
      <point x="237.07" y="701.71" type="line"/>
      <point x="178.29" y="423.68" type="line"/>
      <point x="117.8" y="701.71" type="line"/>
      <point x="19.39" y="698.29" type="line"/>
      <point x="111.82" y="357.56" type="line"/>
    </contour>
  </outline>
</glyph>
<glyph name="Y" format="2">
  <advance width="334.28"/>
  <unicode hex="0059"/>
  <anchor x="167.71" y="700.0" name="top"/>
  <anchor x="167.14" y="0.0" name="bottom"/>
  <outline>
    <contour>
      <point x="124.17" y="0.0" type="line"/>
      <point x="210.82" y="0.0" type="line"/>
      <point x="210.82" y="268.99" type="line"/>
      <point x="327.73" y="698.29" type="line"/>
      <point x="231.04" y="701.71" type="line"/>
      <point x="167.71" y="339.7" type="line"/>
      <point x="100.96" y="701.71" type="line"/>
      <point x="4.2700000000000005" y="698.29" type="line"/>
      <point x="124.17" y="268.99" type="line"/>
    </contour>
  </outline>
</glyph>
<glyph name="Z" format="2">
  <advance width="314.5"/>
  <unicode hex="005A"/>
  <anchor x="162.38" y="350.0" name="center"/>
  <anchor x="162.38" y="0.0" name="bottom"/>
  <anchor x="163.68" y="700.0" name="top"/>
  <outline>
    <contour>
      <point x="13.28" y="0.0" type="line"/>
      <point x="304.78" y="0.0" type="line"/>
      <point x="304.78" y="85.22" type="line"/>
      <point x="96.34" y="85.22" type="line"/>
      <point x="96.34" y="86.36" type="line"/>
      <point x="294.22" y="614.48" type="line"/>
      <point x="294.22" y="700.0" type="line"/>
      <point x="22.1" y="700.0" type="line"/>
      <point x="22.1" y="615.64" type="line"/>
      <point x="208.58" y="615.64" type="line"/>
      <point x="208.58" y="613.64" type="line"/>
      <point x="13.28" y="86.38" type="line"/>
    </contour>
  </outline>
</glyph>
<glyph name="bracketleft" format="2">
  <advance width="200.24"/>
  <unicode hex="005B"/>
  <outline>
    <contour>
      <point x="103.11" y="-134.96" type="line"/>
      <point x="103.11" y="664.96" type="line"/>
      <point x="193.38" y="664.96" type="line"/>
      <point x="193.38" y="740.0" type="line"/>
      <point x="34.519999999999996" y="740.0" type="line"/>
      <point x="34.519999999999996" y="-210.0" type="line"/>
      <point x="193.38" y="-210.0" type="line"/>
      <point x="193.38" y="-134.96" type="line"/>
    </contour>
  </outline>
</glyph>
<glyph name="backslash" format="2">
  <advance width="276.0"/>
  <unicode hex="005C"/>
  <outline>
    <contour>
      <point x="72.17" y="740.0" type="line"/>
      <point x="-3.16" y="740.0" type="line"/>
      <point x="204.26" y="-210.0" type="line"/>
      <point x="279.15999999999997" y="-210.0" type="line"/>
    </contour>
  </outline>
</glyph>
<glyph name="bracketright" format="2">
  <advance width="200.24"/>
  <unicode hex="005D"/>
  <outline>
    <contour>
      <point x="6.86" y="-134.96" type="line"/>
      <point x="6.86" y="-210.0" type="line"/>
      <point x="165.72" y="-210.0" type="line"/>
      <point x="165.72" y="740.0" type="line"/>
      <point x="6.86" y="740.0" type="line"/>
      <point x="6.86" y="664.96" type="line"/>
      <point x="97.13" y="664.96" type="line"/>
      <point x="97.13" y="-134.96" type="line"/>
    </contour>
  </outline>
</glyph>
<glyph name="asciicircum" format="2">
  <advance width="391.5"/>
  <unicode hex="005E"/>
  <outline>
    <contour>
      <point x="40.74" y="263.09" type="line"/>
      <point x="106.46000000000001" y="263.09" type="line"/>
      <point x="195.75" y="614.04" type="line"/>
      <point x="285.47" y="263.09" type="line"/>
      <point x="350.76" y="263.09" type="line"/>
      <point x="239.72" y="705.7" type="line"/>
      <point x="151.78" y="705.7" type="line"/>
    </contour>
  </outline>
</glyph>
<glyph name="underscore" format="2">
  <advance width="615.74"/>
  <unicode hex="005F"/>
  <outline>
    <contour>
      <point x="8.6" y="-167.39" type="line"/>
      <point x="607.14" y="-167.39" type="line"/>
      <point x="607.14" y="-83.75" type="line"/>
      <point x="8.6" y="-83.75" type="line"/>
    </contour>
  </outline>
</glyph>
<glyph name="a" format="2">
  <advance width="322.24"/>
  <unicode hex="0061"/>
  <anchor x="322.8" y="5.88" name="ogonek"/>
  <anchor x="153.14" y="0.0" name="bottom"/>
  <anchor x="150.98" y="538.6" name="top"/>
  <outline>
    <contour>
      <point x="7.28" y="130.94" type="curve" smooth="yes"/>
      <point x="7.28" y="51.64"/>
      <point x="39.42" y="-10.0"/>
      <point x="109.62" y="-10.0" type="curve" smooth="yes"/>
      <point x="147.92" y="-10.0"/>
      <point x="171.62" y="5.7"/>
      <point x="197.2" y="32.56" type="curve"/>
      <point x="206.66" y="5.5600000000000005"/>
      <point x="227.68" y="-10.0"/>
      <point x="264.58" y="-10.0" type="curve" smooth="yes"/>
      <point x="290.06" y="-10.0"/>
      <point x="307.08" y="-3.7"/>
      <point x="322.8" y="5.88" type="curve"/>
      <point x="314.08" y="85.66" type="line"/>
      <point x="306.52" y="81.52"/>
      <point x="299.24" y="80.38"/>
      <point x="292.1" y="80.38" type="curve" smooth="yes"/>
      <point x="283.53999999999996" y="80.38"/>
      <point x="277.4" y="86.66"/>
      <point x="277.4" y="109.8" type="curve" smooth="yes"/>
      <point x="277.4" y="392.62" type="line" smooth="yes"/>
      <point x="277.4" y="491.7"/>
      <point x="240.22" y="548.6"/>
      <point x="139.38" y="548.6" type="curve" smooth="yes"/>
      <point x="108.06" y="548.6"/>
      <point x="64.14" y="540.3"/>
      <point x="28.12" y="524.86" type="curve"/>
      <point x="48.019999999999996" y="442.5" type="line"/>
      <point x="85.34" y="455.94"/>
      <point x="111.78" y="458.08"/>
      <point x="129.06" y="458.08" type="curve" smooth="yes"/>
      <point x="166.02" y="458.08"/>
      <point x="191.18" y="433.26"/>
      <point x="191.18" y="389.18" type="curve" smooth="yes"/>
      <point x="191.18" y="307.24" type="line"/>
      <point x="78.4" y="285.54"/>
      <point x="7.28" y="248.4"/>
    </contour>
    <contour>
      <point x="92.64" y="141.1" type="curve" smooth="yes"/>
      <point x="92.64" y="212.6"/>
      <point x="139.68" y="230.54"/>
      <point x="191.18" y="241.8" type="curve"/>
      <point x="191.18" y="95.96000000000001" type="line"/>
      <point x="180.34" y="79.56"/>
      <point x="161.52" y="64.9"/>
      <point x="138.28" y="64.9" type="curve" smooth="yes"/>
      <point x="110.03999999999999" y="64.9"/>
      <point x="92.64" y="90.72"/>
    </contour>
  </outline>
</glyph>
<glyph name="b" format="2">
  <advance width="324.37"/>
  <unicode hex="0062"/>
  <outline>
    <contour>
      <point x="33.25" y="10.45" type="line"/>
      <point x="71.42" y="-2.56"/>
      <point x="111.92" y="-10.0"/>
      <point x="144.68" y="-10.0" type="curve" smooth="yes"/>
      <point x="260.93" y="-10.0"/>
      <point x="303.53999999999996" y="68.72"/>
      <point x="303.53999999999996" y="283.74" type="curve" smooth="yes"/>
      <point x="303.53999999999996" y="460.76"/>
      <point x="266.24" y="548.6"/>
      <point x="188.76" y="548.6" type="curve" smooth="yes"/>
      <point x="166.62" y="548.6"/>
      <point x="136.76" y="538.74"/>
      <point x="119.9" y="526.45" type="curve"/>
      <point x="119.9" y="740.0" type="line"/>
      <point x="33.25" y="740.0" type="line"/>
    </contour>
    <contour>
      <point x="119.9" y="68.32" type="curve"/>
      <point x="119.9" y="450.12" type="line"/>
      <point x="135.87" y="461.53"/>
      <point x="145.71" y="465.24"/>
      <point x="160.54" y="465.24" type="curve" smooth="yes"/>
      <point x="195.34" y="465.24"/>
      <point x="212.16" y="407.91"/>
      <point x="212.16" y="274.71" type="curve" smooth="yes"/>
      <point x="212.16" y="109.25999999999999"/>
      <point x="197.05" y="62.47"/>
      <point x="148.71" y="62.47" type="curve" smooth="yes"/>
      <point x="140.57999999999998" y="62.47"/>
      <point x="134.16" y="64.03999999999999"/>
    </contour>
  </outline>
</glyph>
<glyph name="c" format="2">
  <advance width="268.64"/>
  <unicode hex="0063"/>
  <anchor x="166.56" y="538.6" name="top"/>
  <anchor x="170.14" y="0.0" name="bottom"/>
  <outline>
    <contour>
      <point x="21.259999999999998" y="266.88" type="curve" smooth="yes"/>
      <point x="21.259999999999998" y="74.74"/>
      <point x="68.02" y="-10.0"/>
      <point x="167.82" y="-10.0" type="curve" smooth="yes"/>
      <point x="198.57999999999998" y="-10.0"/>
      <point x="238.92000000000002" y="-3.56"/>
      <point x="257.94" y="4.6" type="curve"/>
      <point x="239.32" y="83.66" type="line"/>
      <point x="223.88" y="79.94"/>
      <point x="202.32" y="76.94"/>
      <point x="187.6" y="76.94" type="curve" smooth="yes"/>
      <point x="137.34" y="76.94"/>
      <point x="110.92" y="122.28"/>
      <point x="110.92" y="266.04" type="curve" smooth="yes"/>
      <point x="110.92" y="417.34"/>
      <point x="136.92000000000002" y="461.66"/>
      <point x="192.46" y="461.66" type="curve" smooth="yes"/>
      <point x="209.18" y="461.66"/>
      <point x="222.9" y="459.66"/>
      <point x="236.9" y="455.66" type="curve"/>
      <point x="252.07999999999998" y="537.3" type="line"/>
      <point x="233.64" y="544.88"/>
      <point x="203.16" y="548.6"/>
      <point x="176.54" y="548.6" type="curve" smooth="yes"/>
      <point x="69.6" y="548.6"/>
      <point x="21.259999999999998" y="462.86"/>
    </contour>
  </outline>
</glyph>
<glyph name="d" format="2">
  <advance width="324.8"/>
  <unicode hex="0064"/>
  <anchor x="161.54" y="275.0" name="center"/>
  <anchor x="161.67" y="740.0" name="top"/>
  <anchor x="340.36" y="740.0" name="topright"/>
  <anchor x="161.54" y="0.0" name="bottom"/>
  <outline>
    <contour>
      <point x="214.06" y="0.0" type="line"/>
      <point x="291.55" y="0.0" type="line"/>
      <point x="291.55" y="740.0" type="line"/>
      <point x="204.47" y="740.0" type="line"/>
      <point x="204.47" y="541.89" type="line"/>
      <point x="189.34" y="546.6"/>
      <point x="174.48" y="548.6"/>
      <point x="161.2" y="548.6" type="curve" smooth="yes"/>
      <point x="65.16" y="548.6"/>
      <point x="20.83" y="459.56"/>
      <point x="20.83" y="258.73" type="curve" smooth="yes"/>
      <point x="20.83" y="80.86"/>
      <point x="59.56" y="-10.0"/>
      <point x="135.31" y="-10.0" type="curve" smooth="yes"/>
      <point x="161.32" y="-10.0"/>
      <point x="188.76" y="-1.28"/>
      <point x="206.62" y="13.01" type="curve"/>
    </contour>
    <contour>
      <point x="204.47" y="85.9" type="line"/>
      <point x="189.79" y="75.78"/>
      <point x="179.09" y="72.07"/>
      <point x="164.12" y="72.07" type="curve" smooth="yes"/>
      <point x="129.46" y="72.07"/>
      <point x="112.64" y="130.98"/>
      <point x="112.64" y="271.2" type="curve" smooth="yes"/>
      <point x="112.64" y="429.34"/>
      <point x="127.75" y="474.84000000000003"/>
      <point x="175.66" y="474.84000000000003" type="curve" smooth="yes"/>
      <point x="184.22" y="474.84000000000003"/>
      <point x="190.78" y="473.27"/>
      <point x="204.47" y="467.7" type="curve"/>
    </contour>
  </outline>
</glyph>
<glyph name="e" format="2">
  <advance width="313.52"/>
  <unicode hex="0065"/>
  <anchor x="256.94" y="5.16" name="ogonek"/>
  <anchor x="164.96" y="0.0" name="bottom"/>
  <anchor x="165.26" y="538.6" name="top"/>
  <outline>
    <contour>
      <point x="166.96" y="-10.0" type="curve" smooth="yes"/>
      <point x="210.32" y="-10.0"/>
      <point x="248.36" y="-2.42"/>
      <point x="288.12" y="15.459999999999999" type="curve"/>
      <point x="275.38" y="91.94" type="line"/>
      <point x="244.07999999999998" y="80.94"/>
      <point x="215.34" y="74.36"/>
      <point x="188.6" y="74.36" type="curve" smooth="yes"/>
      <point x="128.04" y="74.36"/>
      <point x="110.06" y="111.88"/>
      <point x="110.06" y="228.88" type="curve" smooth="yes"/>
      <point x="110.06" y="234.16"/>
      <point x="110.06" y="239.57999999999998"/>
      <point x="110.06" y="244.86" type="curve"/>
      <point x="175.0" y="245.72"/>
      <point x="252.94" y="256.44"/>
      <point x="294.68" y="263.3" type="curve"/>
      <point x="294.68" y="274.04"/>
      <point x="295.68" y="304.38"/>
      <point x="295.68" y="313.82" type="curve" smooth="yes"/>
      <point x="295.68" y="482.58"/>
      <point x="256.36" y="548.6"/>
      <point x="170.26" y="548.6" type="curve" smooth="yes"/>
      <point x="73.72" y="548.6"/>
      <point x="21.259999999999998" y="480.56"/>
      <point x="21.259999999999998" y="257.74" type="curve" smooth="yes"/>
      <point x="21.259999999999998" y="64.46"/>
      <point x="65.6" y="-10.0"/>
    </contour>
    <contour>
      <point x="110.06" y="311.02" type="curve"/>
      <point x="114.47999999999999" y="448.74"/>
      <point x="135.57999999999998" y="476.42"/>
      <point x="165.96" y="476.42" type="curve" smooth="yes"/>
      <point x="195.2" y="476.42"/>
      <point x="210.32" y="440.76"/>
      <point x="210.32" y="318.86" type="curve"/>
      <point x="193.62" y="315.44"/>
      <point x="146.7" y="311.02"/>
    </contour>
  </outline>
</glyph>
<glyph name="f" format="2">
  <advance width="227.41"/>
  <unicode hex="0066"/>
  <outline>
    <contour>
      <point x="61.11" y="0.0" type="line"/>
      <point x="146.04" y="0.0" type="line"/>
      <point x="146.04" y="428.02" type="line"/>
      <point x="214.41" y="428.02" type="line"/>
      <point x="214.41" y="503.35" type="line"/>
      <point x="146.47" y="503.35" type="line"/>
      <point x="146.47" y="526.61" type="line" smooth="yes"/>
      <point x="146.47" y="628.3"/>
      <point x="166.73" y="669.94"/>
      <point x="211.67" y="669.94" type="curve" smooth="yes"/>
      <point x="222.95" y="669.94"/>
      <point x="234.23" y="668.51"/>
      <point x="250.52" y="663.08" type="curve"/>
      <point x="264.40999999999997" y="733.54" type="line"/>
      <point x="237.52" y="745.42"/>
      <point x="214.78" y="750.0"/>
      <point x="189.74" y="750.0" type="curve" smooth="yes"/>
      <point x="103.42" y="750.0"/>
      <point x="61.11" y="678.28"/>
      <point x="61.11" y="527.47" type="curve" smooth="yes"/>
      <point x="61.11" y="503.35" type="line"/>
      <point x="8.42" y="496.92" type="line"/>
      <point x="8.42" y="428.02" type="line"/>
      <point x="61.11" y="428.02" type="line"/>
    </contour>
  </outline>
</glyph>
<glyph name="g" format="2">
  <advance width="330.53999999999996"/>
  <unicode hex="0067"/>
  <anchor x="157.36" y="538.6" name="top"/>
  <anchor x="168.1" y="-210.0" name="bottom"/>
  <outline>
    <contour>
      <point x="157.34" y="-220.0" type="curve" smooth="yes"/>
      <point x="264.76" y="-220.0"/>
      <point x="320.38" y="-156.54"/>
      <point x="320.38" y="-52.2" type="curve" smooth="yes"/>
      <point x="320.38" y="39.26"/>
      <point x="278.36" y="93.86"/>
      <point x="203.76" y="93.86" type="curve" smooth="yes"/>
      <point x="149.4" y="93.86" type="line" smooth="yes"/>
      <point x="116.3" y="93.86"/>
      <point x="100.14" y="109.1"/>
      <point x="100.14" y="137.36" type="curve" smooth="yes"/>
      <point x="100.14" y="166.04"/>
      <point x="109.97999999999999" y="181.98"/>
      <point x="133.68" y="200.96" type="curve"/>
      <point x="86.56" y="223.0" type="line"/>
      <point x="53.42" y="195.58"/>
      <point x="30.4" y="161.02"/>
      <point x="30.4" y="113.14" type="curve" smooth="yes"/>
      <point x="30.4" y="54.54"/>
      <point x="66.32" y="8.64"/>
      <point x="134.78" y="8.64" type="curve" smooth="yes"/>
      <point x="186.7" y="8.64" type="line" smooth="yes"/>
      <point x="221.36" y="8.64"/>
      <point x="240.18" y="-16.88"/>
      <point x="240.18" y="-60.8" type="curve" smooth="yes"/>
      <point x="240.18" y="-111.28"/>
      <point x="216.78" y="-140.8"/>
      <point x="163.36" y="-140.8" type="curve" smooth="yes"/>
      <point x="116.12" y="-140.8"/>
      <point x="89.42" y="-114.28"/>
      <point x="89.42" y="-59.94" type="curve" smooth="yes"/>
      <point x="89.42" y="-24.28"/>
      <point x="102.14" y="0.09999999999999964"/>
      <point x="124.7" y="20.92" type="curve"/>
      <point x="71.14" y="40.82" type="line"/>
      <point x="35.84" y="13.42"/>
      <point x="16.96" y="-24.86"/>
      <point x="16.96" y="-80.58" type="curve" smooth="yes"/>
      <point x="16.96" y="-171.72"/>
      <point x="68.86" y="-220.0"/>
    </contour>
    <contour>
      <point x="160.96" y="184.94" type="curve" smooth="yes"/>
      <point x="243.76" y="184.94"/>
      <point x="286.52" y="246.1"/>
      <point x="286.52" y="366.7" type="curve" smooth="yes"/>
      <point x="286.52" y="487.3"/>
      <point x="243.76" y="548.6"/>
      <point x="160.96" y="548.6" type="curve" smooth="yes"/>
      <point x="77.3" y="548.6"/>
      <point x="34.54" y="487.3"/>
      <point x="34.54" y="366.7" type="curve" smooth="yes"/>
      <point x="34.54" y="246.1"/>
      <point x="77.3" y="184.94"/>
    </contour>
    <contour>
      <point x="160.96" y="258.98" type="curve" smooth="yes"/>
      <point x="131.44" y="258.98"/>
      <point x="118.18" y="288.78"/>
      <point x="118.18" y="366.7" type="curve" smooth="yes"/>
      <point x="118.18" y="444.76"/>
      <point x="131.44" y="474.56"/>
      <point x="160.96" y="474.56" type="curve" smooth="yes"/>
      <point x="190.48" y="474.56"/>
      <point x="202.88" y="444.76"/>
      <point x="202.88" y="366.7" type="curve" smooth="yes"/>
      <point x="202.88" y="288.78"/>
      <point x="190.48" y="258.98"/>
    </contour>
    <contour>
      <point x="263.94" y="442.02" type="line"/>
      <point x="275.5" y="467.0"/>
      <point x="287.64" y="478.28"/>
      <point x="301.92" y="478.28" type="curve" smooth="yes"/>
      <point x="309.5" y="478.28"/>
      <point x="313.08" y="477.42"/>
      <point x="317.52" y="476.42" type="curve"/>
      <point x="329.7" y="555.76" type="line"/>
      <point x="322.68" y="560.2"/>
      <point x="312.22" y="562.78"/>
      <point x="300.2" y="562.78" type="curve" smooth="yes"/>
      <point x="272.18" y="562.78"/>
      <point x="247.6" y="544.78"/>
      <point x="231.57999999999998" y="510.18" type="curve"/>
    </contour>
  </outline>
</glyph>
<glyph name="h" format="2">
  <advance width="327.65"/>
  <unicode hex="0068"/>
  <anchor x="164.11" y="395.0" name="center"/>
  <anchor x="164.11" y="0.0" name="bottom"/>
  <anchor x="168.97" y="740.0" name="top"/>
  <outline>
    <contour>
      <point x="33.25" y="0.0" type="line"/>
      <point x="119.9" y="0.0" type="line"/>
      <point x="119.9" y="446.12" type="line"/>
      <point x="132.74" y="456.82"/>
      <point x="153.26999999999998" y="463.95"/>
      <point x="167.68" y="463.95" type="curve" smooth="yes"/>
      <point x="193.34" y="463.95"/>
      <point x="208.18" y="447.7"/>
      <point x="208.18" y="413.75" type="curve" smooth="yes"/>
      <point x="208.18" y="0.0" type="line"/>
      <point x="295.26" y="0.0" type="line"/>
      <point x="295.26" y="435.25" type="line" smooth="yes"/>
      <point x="295.26" y="518.58"/>
      <point x="257.25" y="548.6"/>
      <point x="206.5" y="548.6" type="curve" smooth="yes"/>
      <point x="178.21" y="548.6"/>
      <point x="144.2" y="537.31"/>
      <point x="119.9" y="515.71" type="curve"/>
      <point x="119.9" y="740.0" type="line"/>
      <point x="33.25" y="740.0" type="line"/>
    </contour>
  </outline>
</glyph>
<glyph name="i" format="2">
  <advance width="153.15"/>
  <unicode hex="0069"/>
  <anchor x="119.9" y="0.0" name="ogonek"/>
  <anchor x="76.78999999999999" y="0.0" name="bottom"/>
  <outline>
    <contour>
      <point x="76.78999999999999" y="630.56" type="curve" smooth="yes"/>
      <point x="112.28999999999999" y="630.56"/>
      <point x="126.91" y="647.04"/>
      <point x="126.91" y="687.55" type="curve" smooth="yes"/>
      <point x="126.91" y="728.92"/>
      <point x="111.43" y="744.97"/>
      <point x="76.78999999999999" y="744.97" type="curve" smooth="yes"/>
      <point x="41.72" y="744.97"/>
      <point x="26.240000000000002" y="728.92"/>
      <point x="26.240000000000002" y="687.55" type="curve" smooth="yes"/>
      <point x="26.240000000000002" y="646.61"/>
      <point x="42.29" y="630.56"/>
    </contour>
    <contour>
      <point x="33.25" y="0.0" type="line"/>
      <point x="119.9" y="0.0" type="line"/>
      <point x="119.9" y="538.6" type="line"/>
      <point x="33.25" y="538.6" type="line"/>
    </contour>
  </outline>
</glyph>
<glyph name="j" format="2">
  <advance width="152.57999999999998"/>
  <unicode hex="006A"/>
  <outline>
    <contour>
      <point x="119.33" y="538.6" type="line"/>
      <point x="32.68" y="538.6" type="line"/>
      <point x="32.68" y="17.009999999999998" type="line" smooth="yes"/>
      <point x="32.68" y="-56.91"/>
      <point x="18.84" y="-98.55000000000001"/>
      <point x="-10.0" y="-116.78999999999999" type="curve" smooth="yes"/>
      <point x="-18.009999999999998" y="-119.64"/>
      <point x="-25.16" y="-120.63"/>
      <point x="-35.03" y="-120.19" type="curve"/>
      <point x="-41.51" y="-205.99" type="line"/>
      <point x="-21.47" y="-208.3"/>
      <point x="-3.7199999999999998" y="-207.46"/>
      <point x="13.17" y="-204.04" type="curve" smooth="yes"/>
      <point x="88.58" y="-182.95"/>
      <point x="119.33" y="-114.08"/>
      <point x="119.33" y="10.129999999999999" type="curve" smooth="yes"/>
    </contour>
    <contour>
      <point x="76.22" y="630.56" type="curve" smooth="yes"/>
      <point x="111.15" y="630.56"/>
      <point x="126.34" y="647.04"/>
      <point x="126.34" y="687.55" type="curve" smooth="yes"/>
      <point x="126.34" y="728.92"/>
      <point x="110.28999999999999" y="744.97"/>
      <point x="76.22" y="744.97" type="curve" smooth="yes"/>
      <point x="41.15" y="744.97"/>
      <point x="25.67" y="728.92"/>
      <point x="25.67" y="687.55" type="curve" smooth="yes"/>
      <point x="25.67" y="646.61"/>
      <point x="41.72" y="630.56"/>
    </contour>
  </outline>
</glyph>
<glyph name="l" format="2">
  <advance width="177.72"/>
  <unicode hex="006C"/>
  <anchor x="89.36" y="395.0" name="center"/>
  <anchor x="76.78999999999999" y="740.0" name="top"/>
  <anchor x="168.71" y="740.0" name="topright"/>
  <anchor x="106.06" y="0.0" name="bottom"/>
  <outline>
    <contour>
      <point x="119.9" y="740.0" type="line"/>
      <point x="33.25" y="740.0" type="line"/>
      <point x="33.25" y="124.56" type="line" smooth="yes"/>
      <point x="33.25" y="22.77"/>
      <point x="61.0" y="-10.0"/>
      <point x="122.94" y="-10.0" type="curve" smooth="yes"/>
      <point x="143.12" y="-10.0"/>
      <point x="163.29" y="-2.84"/>
      <point x="177.01" y="5.17" type="curve"/>
      <point x="170.43" y="81.78999999999999" type="line"/>
      <point x="159.73" y="78.51"/>
      <point x="152.59" y="77.51"/>
      <point x="147.45" y="77.51" type="curve" smooth="yes"/>
      <point x="130.18" y="77.51"/>
      <point x="119.9" y="87.36"/>
      <point x="119.9" y="136.17000000000002" type="curve" smooth="yes"/>
    </contour>
  </outline>
</glyph>
<glyph name="m" format="2">
  <advance width="496.6"/>
  <unicode hex="006D"/>
  <outline>
    <contour>
      <point x="33.25" y="0.0" type="line"/>
      <point x="120.33" y="0.0" type="line"/>
      <point x="120.33" y="448.4" type="line"/>
      <point x="132.74" y="457.53"/>
      <point x="151.42000000000002" y="463.95"/>
      <point x="164.69" y="463.95" type="curve" smooth="yes"/>
      <point x="190.35" y="463.95"/>
      <point x="205.19" y="447.7"/>
      <point x="205.19" y="413.75" type="curve" smooth="yes"/>
      <point x="205.19" y="0.0" type="line"/>
      <point x="292.27" y="0.0" type="line"/>
      <point x="292.27" y="417.19" type="line" smooth="yes"/>
      <point x="292.27" y="428.59000000000003"/>
      <point x="290.56" y="438.14"/>
      <point x="287.71" y="445.55" type="curve"/>
      <point x="303.53999999999996" y="457.53"/>
      <point x="322.22" y="463.95"/>
      <point x="336.63" y="463.95" type="curve" smooth="yes"/>
      <point x="362.29" y="463.95"/>
      <point x="377.13" y="447.7"/>
      <point x="377.13" y="413.75" type="curve" smooth="yes"/>
      <point x="377.13" y="0.0" type="line"/>
      <point x="464.21" y="0.0" type="line"/>
      <point x="464.21" y="437.4" type="line" smooth="yes"/>
      <point x="464.21" y="514.71"/>
      <point x="429.21" y="548.6"/>
      <point x="375.45" y="548.6" type="curve" smooth="yes"/>
      <point x="338.31" y="548.6"/>
      <point x="303.15999999999997" y="535.04"/>
      <point x="274.98" y="511.29" type="curve"/>
      <point x="259.69" y="536.16"/>
      <point x="234.68" y="548.6"/>
      <point x="203.51" y="548.6" type="curve" smooth="yes"/>
      <point x="173.78" y="548.6"/>
      <point x="142.05" y="539.6"/>
      <point x="113.02" y="517.42" type="curve"/>
      <point x="113.02" y="538.6" type="line"/>
      <point x="33.25" y="538.6" type="line"/>
    </contour>
  </outline>
</glyph>
<glyph name="n" format="2">
  <advance width="328.08"/>
  <unicode hex="006E"/>
  <anchor x="165.68" y="538.6" name="top"/>
  <anchor x="166.82" y="0.0" name="bottom"/>
  <outline>
    <contour>
      <point x="33.25" y="0.0" type="line"/>
      <point x="120.33" y="0.0" type="line"/>
      <point x="120.33" y="446.12" type="line"/>
      <point x="132.74" y="456.39"/>
      <point x="153.7" y="463.95"/>
      <point x="168.11" y="463.95" type="curve" smooth="yes"/>
      <point x="193.77" y="463.95"/>
      <point x="208.61" y="447.7"/>
      <point x="208.61" y="413.75" type="curve" smooth="yes"/>
      <point x="208.61" y="0.0" type="line"/>
      <point x="295.69" y="0.0" type="line"/>
      <point x="295.69" y="437.4" type="line" smooth="yes"/>
      <point x="295.69" y="514.71"/>
      <point x="260.69" y="548.6"/>
      <point x="206.93" y="548.6" type="curve" smooth="yes"/>
      <point x="176.06" y="548.6"/>
      <point x="142.05" y="539.03"/>
      <point x="113.02" y="515.71" type="curve"/>
      <point x="113.02" y="538.6" type="line"/>
      <point x="33.25" y="538.6" type="line"/>
    </contour>
  </outline>
</glyph>
<glyph name="o" format="2">
  <advance width="323.38"/>
  <unicode hex="006F"/>
  <anchor x="217.93" y="4.3" name="ogonek"/>
  <anchor x="161.69" y="538.6" name="top"/>
  <anchor x="242.2" y="528.6" name="topright"/>
  <anchor x="161.69" y="0.0" name="bottom"/>
  <outline>
    <contour>
      <point x="20.83" y="269.73" type="curve" smooth="yes"/>
      <point x="20.83" y="76.25"/>
      <point x="50.55" y="-10.0"/>
      <point x="161.69" y="-10.0" type="curve" smooth="yes"/>
      <point x="272.83" y="-10.0"/>
      <point x="302.55" y="76.25"/>
      <point x="302.55" y="269.73" type="curve" smooth="yes"/>
      <point x="302.55" y="463.21"/>
      <point x="272.83" y="548.6"/>
      <point x="161.69" y="548.6" type="curve" smooth="yes"/>
      <point x="50.55" y="548.6"/>
      <point x="20.83" y="463.21"/>
    </contour>
    <contour>
      <point x="111.35" y="269.73" type="curve" smooth="yes"/>
      <point x="111.35" y="433.45"/>
      <point x="124.75" y="466.1"/>
      <point x="161.69" y="466.1" type="curve" smooth="yes"/>
      <point x="198.2" y="466.1"/>
      <point x="212.03" y="433.45"/>
      <point x="212.03" y="269.73" type="curve" smooth="yes"/>
      <point x="212.03" y="106.00999999999999"/>
      <point x="198.2" y="72.92999999999999"/>
      <point x="161.69" y="72.92999999999999" type="curve" smooth="yes"/>
      <point x="124.75" y="72.92999999999999"/>
      <point x="111.35" y="106.00999999999999"/>
    </contour>
  </outline>
</glyph>
<glyph name="p" format="2">
  <advance width="324.8"/>
  <unicode hex="0070"/>
  <outline>
    <contour>
      <point x="33.25" y="-210.0" type="line"/>
      <point x="120.33" y="-210.0" type="line"/>
      <point x="120.33" y="-3.29" type="line"/>
      <point x="136.32" y="-8.0"/>
      <point x="151.75" y="-10.0"/>
      <point x="163.6" y="-10.0" type="curve" smooth="yes"/>
      <point x="259.64" y="-10.0"/>
      <point x="303.97" y="79.47"/>
      <point x="303.97" y="280.3" type="curve" smooth="yes"/>
      <point x="303.97" y="456.46"/>
      <point x="265.81" y="548.6"/>
      <point x="191.76999999999998" y="548.6" type="curve" smooth="yes"/>
      <point x="164.9" y="548.6"/>
      <point x="138.05" y="540.03"/>
      <point x="118.18" y="525.59" type="curve"/>
      <point x="113.02" y="544.3" type="line"/>
      <point x="33.25" y="544.3" type="line"/>
    </contour>
    <contour>
      <point x="149.14" y="64.19" type="curve" smooth="yes"/>
      <point x="140.57999999999998" y="64.19"/>
      <point x="134.16" y="66.19"/>
      <point x="120.33" y="71.33" type="curve"/>
      <point x="120.33" y="453.13" type="line"/>
      <point x="135.44" y="463.68"/>
      <point x="145.71" y="466.96"/>
      <point x="160.11" y="466.96" type="curve" smooth="yes"/>
      <point x="195.34" y="466.96"/>
      <point x="212.16" y="408.77"/>
      <point x="212.16" y="267.83" type="curve" smooth="yes"/>
      <point x="212.16" y="110.12"/>
      <point x="197.05" y="64.19"/>
    </contour>
  </outline>
</glyph>
<glyph name="q" format="2">
  <advance width="325.23"/>
  <unicode hex="0071"/>
  <outline>
    <contour>
      <point x="291.98" y="530.44" type="line"/>
      <point x="255.54" y="542.59"/>
      <point x="216.32" y="548.6"/>
      <point x="180.55" y="548.6" type="curve" smooth="yes"/>
      <point x="68.6" y="548.6"/>
      <point x="20.83" y="466.87"/>
      <point x="20.83" y="266.9" type="curve" smooth="yes"/>
      <point x="20.83" y="80.56"/>
      <point x="58.27" y="-10.0"/>
      <point x="136.47" y="-10.0" type="curve" smooth="yes"/>
      <point x="159.47" y="-10.0"/>
      <point x="189.33" y="-0.14"/>
      <point x="205.33" y="11.72" type="curve"/>
      <point x="205.33" y="-210.0" type="line"/>
      <point x="291.98" y="-210.0" type="line"/>
    </contour>
    <contour>
      <point x="204.9" y="468.85" type="curve"/>
      <point x="204.9" y="87.62" type="line"/>
      <point x="189.79" y="76.64"/>
      <point x="179.52" y="72.5"/>
      <point x="164.69" y="72.5" type="curve" smooth="yes"/>
      <point x="130.46" y="72.5"/>
      <point x="113.07" y="130.97"/>
      <point x="113.07" y="263.03" type="curve" smooth="yes"/>
      <point x="113.07" y="428.48"/>
      <point x="128.18" y="475.27"/>
      <point x="176.52" y="475.27" type="curve" smooth="yes"/>
      <point x="183.65" y="475.27"/>
      <point x="191.07" y="473.7"/>
    </contour>
  </outline>
</glyph>
<glyph name="r" format="2">
  <advance width="235.88"/>
  <unicode hex="0072"/>
  <anchor x="131.63" y="538.6" name="top"/>
  <anchor x="76.36" y="0.0" name="bottom"/>
  <outline>
    <contour>
      <point x="112.59" y="538.6" type="line"/>
      <point x="33.25" y="538.6" type="line"/>
      <point x="33.25" y="0.0" type="line"/>
      <point x="119.47" y="0.0" type="line"/>
      <point x="119.47" y="420.55" type="line"/>
      <point x="142.31" y="445.51"/>
      <point x="161.86" y="454.92"/>
      <point x="184.84" y="454.92" type="curve" smooth="yes"/>
      <point x="194.26" y="454.92"/>
      <point x="207.98" y="453.78"/>
      <point x="220.98" y="449.78" type="curve"/>
      <point x="237.16" y="540.74" type="line"/>
      <point x="221.01" y="547.03"/>
      <point x="207.87" y="548.6"/>
      <point x="196.01999999999998" y="548.6" type="curve" smooth="yes"/>
      <point x="161.01" y="548.6"/>
      <point x="135.89" y="532.46"/>
      <point x="112.59" y="500.44" type="curve"/>
    </contour>
  </outline>
</glyph>
<glyph name="s" format="2">
  <advance width="268.94"/>
  <unicode hex="0073"/>
  <anchor x="133.98" y="538.6" name="top"/>
  <anchor x="132.42000000000002" y="0.0" name="bottom"/>
  <outline>
    <contour>
      <point x="7.16" y="14.16" type="line"/>
      <point x="38.480000000000004" y="-2.2800000000000002"/>
      <point x="74.64" y="-10.0"/>
      <point x="116.4" y="-10.0" type="curve" smooth="yes"/>
      <point x="205.64" y="-10.0"/>
      <point x="259.38" y="43.04"/>
      <point x="259.38" y="139.24" type="curve" smooth="yes"/>
      <point x="259.38" y="239.6"/>
      <point x="211.22" y="275.28"/>
      <point x="161.18" y="311.96" type="curve" smooth="yes"/>
      <point x="122.88" y="340.2"/>
      <point x="94.9" y="365.0"/>
      <point x="94.9" y="408.36" type="curve" smooth="yes"/>
      <point x="94.9" y="445.3"/>
      <point x="115.58" y="465.82"/>
      <point x="151.26" y="465.82" type="curve" smooth="yes"/>
      <point x="176.14" y="465.82"/>
      <point x="202.32" y="460.1"/>
      <point x="227.64" y="450.52" type="curve"/>
      <point x="242.51999999999998" y="528.72" type="line"/>
      <point x="218.64" y="541.16"/>
      <point x="181.57999999999998" y="548.6"/>
      <point x="148.68" y="548.6" type="curve" smooth="yes"/>
      <point x="62.74" y="548.6"/>
      <point x="12.98" y="490.56"/>
      <point x="12.98" y="398.9" type="curve" smooth="yes"/>
      <point x="12.98" y="320.3"/>
      <point x="49.12" y="277.32"/>
      <point x="100.02" y="240.92000000000002" type="curve" smooth="yes"/>
      <point x="141.32" y="210.68"/>
      <point x="177.46" y="184.88"/>
      <point x="177.46" y="135.8" type="curve" smooth="yes"/>
      <point x="177.46" y="95.74000000000001"/>
      <point x="151.5" y="71.92"/>
      <point x="112.96000000000001" y="71.92" type="curve" smooth="yes"/>
      <point x="82.94" y="71.92"/>
      <point x="43.04" y="78.64"/>
      <point x="19.740000000000002" y="89.64" type="curve"/>
    </contour>
  </outline>
</glyph>
<glyph name="t" format="2">
  <advance width="231.71"/>
  <unicode hex="0074"/>
  <anchor x="114.35" y="275.0" name="center"/>
  <anchor x="102.38" y="660.27" name="top"/>
  <anchor x="196.25" y="750.75" name="topright"/>
  <anchor x="138.2" y="0.0" name="bottom"/>
  <outline>
    <contour>
      <point x="158.32" y="-10.0" type="curve" smooth="yes"/>
      <point x="179.06" y="-10.0"/>
      <point x="207.39" y="-7.57"/>
      <point x="235.14" y="4.74" type="curve"/>
      <point x="221.68" y="78.21000000000001" type="line"/>
      <point x="209.69" y="74.5"/>
      <point x="197.98" y="73.5"/>
      <point x="187.56" y="73.5" type="curve" smooth="yes"/>
      <point x="154.04" y="73.5"/>
      <point x="139.05" y="93.03999999999999"/>
      <point x="139.05" y="151.0" type="curve" smooth="yes"/>
      <point x="139.05" y="463.27" type="line"/>
      <point x="223.26" y="463.27" type="line"/>
      <point x="223.26" y="538.6" type="line"/>
      <point x="139.05" y="538.6" type="line"/>
      <point x="139.05" y="660.27" type="line"/>
      <point x="65.14" y="660.27" type="line"/>
      <point x="52.4" y="538.6" type="line"/>
      <point x="6.71" y="532.6" type="line"/>
      <point x="6.71" y="463.7" type="line"/>
      <point x="52.4" y="463.7" type="line"/>
      <point x="52.4" y="141.54" type="line" smooth="yes"/>
      <point x="52.4" y="47.73"/>
      <point x="78.59" y="-10.0"/>
    </contour>
  </outline>
</glyph>
<glyph name="u" format="2">
  <advance width="339.52"/>
  <unicode hex="0075"/>
  <anchor x="339.8" y="5.88" name="ogonek"/>
  <anchor x="163.11" y="538.6" name="top"/>
  <anchor x="294.4" y="538.6" name="topright"/>
  <anchor x="170.26" y="0.0" name="bottom"/>
  <outline>
    <contour>
      <point x="125.02" y="-10.0" type="curve" smooth="yes"/>
      <point x="158.47" y="-10.0"/>
      <point x="191.62" y="2.58"/>
      <point x="217.63" y="22.740000000000002" type="curve"/>
      <point x="228.37" y="3.87"/>
      <point x="248.96" y="-10.0"/>
      <point x="277.28" y="-10.0" type="curve" smooth="yes"/>
      <point x="302.76" y="-10.0"/>
      <point x="321.5" y="-3.7"/>
      <point x="339.8" y="5.88" type="curve"/>
      <point x="331.08" y="84.8" type="line"/>
      <point x="324.09000000000003" y="81.52"/>
      <point x="316.38" y="79.95"/>
      <point x="309.53" y="79.95" type="curve" smooth="yes"/>
      <point x="299.11" y="79.95"/>
      <point x="294.4" y="86.23"/>
      <point x="294.4" y="104.95" type="curve" smooth="yes"/>
      <point x="294.4" y="538.6" type="line"/>
      <point x="207.75" y="538.6" type="line"/>
      <point x="207.75" y="92.47999999999999" type="line"/>
      <point x="195.34" y="81.78"/>
      <point x="173.95" y="74.65"/>
      <point x="159.97" y="74.65" type="curve" smooth="yes"/>
      <point x="134.31" y="74.65"/>
      <point x="119.47" y="90.9"/>
      <point x="119.47" y="124.85" type="curve" smooth="yes"/>
      <point x="119.47" y="538.6" type="line"/>
      <point x="32.39" y="538.6" type="line"/>
      <point x="32.39" y="111.95" type="line" smooth="yes"/>
      <point x="32.39" y="20.02"/>
      <point x="74.27" y="-10.0"/>
    </contour>
  </outline>
</glyph>
<glyph name="v" format="2">
  <advance width="317.12"/>
  <unicode hex="0076"/>
  <outline>
    <contour>
      <point x="103.12" y="0.0" type="line"/>
      <point x="213.57" y="0.0" type="line"/>
      <point x="308.71" y="537.46" type="line"/>
      <point x="215.61" y="539.74" type="line"/>
      <point x="158.56" y="96.6" type="line"/>
      <point x="101.94" y="539.74" type="line"/>
      <point x="8.41" y="537.46" type="line"/>
    </contour>
  </outline>
</glyph>
<glyph name="w" format="2">
  <advance width="474.7"/>
  <unicode hex="0077"/>
  <anchor x="237.35" y="538.6" name="top"/>
  <anchor x="237.35" y="0.0" name="bottom"/>
  <outline>
    <contour>
      <point x="81.26" y="0.0" type="line"/>
      <point x="189.85" y="0.0" type="line"/>
      <point x="238.21" y="414.5" type="line"/>
      <point x="285.42" y="0.0" type="line"/>
      <point x="393.58" y="0.0" type="line"/>
      <point x="466.85" y="536.89" type="line"/>
      <point x="379.34" y="539.17" type="line"/>
      <point x="333.55" y="96.59" type="line"/>
      <point x="283.9" y="538.6" type="line"/>
      <point x="190.8" y="538.6" type="line"/>
      <point x="141.29" y="96.59" type="line"/>
      <point x="95.78999999999999" y="539.17" type="line"/>
      <point x="7.85" y="536.89" type="line"/>
    </contour>
  </outline>
</glyph>
<glyph name="x" format="2">
  <advance width="331.4"/>
  <unicode hex="0078"/>
  <outline>
    <contour>
      <point x="5.28" y="-3.42" type="line"/>
      <point x="98.67" y="-5.7" type="line"/>
      <point x="165.56" y="223.92000000000002" type="line"/>
      <point x="234.59" y="-5.7" type="line"/>
      <point x="327.55" y="-3.42" type="line"/>
      <point x="232.17000000000002" y="273.3" type="line"/>
      <point x="319.13" y="537.46" type="line"/>
      <point x="227.46" y="539.74" type="line"/>
      <point x="166.7" y="318.93" type="line"/>
      <point x="104.8" y="540.31" type="line"/>
      <point x="13.56" y="536.89" type="line"/>
      <point x="100.09" y="276.72" type="line"/>
    </contour>
  </outline>
</glyph>
<glyph name="y" format="2">
  <advance width="318.84000000000003"/>
  <unicode hex="0079"/>
  <anchor x="159.28" y="538.6" name="top"/>
  <anchor x="284.15999999999997" y="0.0" name="bottom"/>
  <outline>
    <contour>
      <point x="89.44" y="-208.86" type="line"/>
      <point x="183.54" y="-212.14" type="line"/>
      <point x="309.72" y="537.46" type="line"/>
      <point x="214.9" y="539.74" type="line"/>
      <point x="161.54" y="88.44" type="line"/>
      <point x="103.8" y="539.74" type="line"/>
      <point x="8.98" y="537.46" type="line"/>
      <point x="109.26" y="0.0" type="line"/>
      <point x="127.46" y="0.0" type="line"/>
    </contour>
  </outline>
</glyph>
<glyph name="z" format="2">
  <advance width="290.19"/>
  <unicode hex="007A"/>
  <anchor x="146.1" y="538.6" name="top"/>
  <outline>
    <contour>
      <point x="15.99" y="0.0" type="line"/>
      <point x="277.76" y="0.0" type="line"/>
      <point x="277.76" y="80.92" type="line"/>
      <point x="108.08" y="80.92" type="line"/>
      <point x="267.06" y="465.99" type="line"/>
      <point x="267.06" y="538.6" type="line"/>
      <point x="22.85" y="538.6" type="line"/>
      <point x="22.85" y="458.54" type="line"/>
      <point x="175.54" y="458.54" type="line"/>
      <point x="15.99" y="73.9" type="line"/>
    </contour>
  </outline>
</glyph>
<glyph name="braceleft" format="2">
  <advance width="213.35"/>
  <unicode hex="007B"/>
  <outline>
    <contour>
      <point x="50.510000000000005" y="-56.230000000000004" type="curve" smooth="yes"/>
      <point x="50.510000000000005" y="-153.74"/>
      <point x="90.57" y="-210.43"/>
      <point x="149.73" y="-210.43" type="curve" smooth="yes"/>
      <point x="193.38" y="-210.43" type="line"/>
      <point x="193.38" y="-135.39" type="line"/>
      <point x="168.65" y="-135.39" type="line" smooth="yes"/>
      <point x="136.39" y="-135.39"/>
      <point x="122.97" y="-96.44"/>
      <point x="122.97" y="-46.34" type="curve" smooth="yes"/>
      <point x="122.97" y="21.740000000000002"/>
      <point x="151.24" y="77.14"/>
      <point x="151.24" y="151.94" type="curve" smooth="yes"/>
      <point x="151.24" y="191.39"/>
      <point x="139.52" y="239.11"/>
      <point x="106.06" y="265.0" type="curve"/>
      <point x="139.52" y="292.45"/>
      <point x="151.24" y="338.18"/>
      <point x="151.24" y="377.63" type="curve" smooth="yes"/>
      <point x="151.24" y="448.44"/>
      <point x="122.97" y="503.84"/>
      <point x="122.97" y="575.91" type="curve" smooth="yes"/>
      <point x="122.97" y="626.01"/>
      <point x="136.39" y="664.96"/>
      <point x="168.65" y="664.96" type="curve" smooth="yes"/>
      <point x="193.38" y="664.96" type="line"/>
      <point x="193.38" y="740.0" type="line"/>
      <point x="149.73" y="740.0" type="line" smooth="yes"/>
      <point x="90.57" y="740.0"/>
      <point x="50.510000000000005" y="683.31"/>
      <point x="50.510000000000005" y="585.8" type="curve" smooth="yes"/>
      <point x="50.510000000000005" y="491.39"/>
      <point x="82.65" y="438.84"/>
      <point x="82.65" y="372.9" type="curve" smooth="yes"/>
      <point x="82.65" y="338.05"/>
      <point x="74.8" y="304.24"/>
      <point x="53.370000000000005" y="304.24" type="curve" smooth="yes"/>
      <point x="34.519999999999996" y="304.24" type="line"/>
      <point x="34.519999999999996" y="225.33" type="line"/>
      <point x="53.370000000000005" y="225.33" type="line" smooth="yes"/>
      <point x="74.8" y="225.33"/>
      <point x="82.65" y="192.09"/>
      <point x="82.65" y="156.67" type="curve" smooth="yes"/>
      <point x="82.65" y="89.02"/>
      <point x="50.510000000000005" y="34.19"/>
    </contour>
  </outline>
</glyph>
<glyph name="bar" format="2">
  <advance width="134.66"/>
  <unicode hex="007C"/>
  <outline>
    <contour>
      <point x="105.28" y="790.43" type="line"/>
      <point x="29.380000000000003" y="790.43" type="line"/>
      <point x="29.380000000000003" y="-210.0" type="line"/>
      <point x="105.28" y="-210.0" type="line"/>
    </contour>
  </outline>
</glyph>
<glyph name="braceright" format="2">
  <advance width="213.35"/>
  <unicode hex="007D"/>
  <outline>
    <contour>
      <point x="19.97" y="-135.39" type="line"/>
      <point x="19.97" y="-210.43" type="line"/>
      <point x="64.19" y="-210.43" type="line" smooth="yes"/>
      <point x="123.35" y="-210.43"/>
      <point x="163.41" y="-153.74"/>
      <point x="163.41" y="-56.230000000000004" type="curve" smooth="yes"/>
      <point x="163.41" y="34.19"/>
      <point x="131.26999999999998" y="89.02"/>
      <point x="131.26999999999998" y="156.67" type="curve" smooth="yes"/>
      <point x="131.26999999999998" y="192.09"/>
      <point x="139.12" y="225.33"/>
      <point x="160.55" y="225.33" type="curve" smooth="yes"/>
      <point x="178.82999999999998" y="225.33" type="line"/>
      <point x="178.82999999999998" y="304.24" type="line"/>
      <point x="160.55" y="304.24" type="line" smooth="yes"/>
      <point x="138.55" y="304.24"/>
      <point x="131.26999999999998" y="338.05"/>
      <point x="131.26999999999998" y="372.9" type="curve" smooth="yes"/>
      <point x="131.26999999999998" y="438.84"/>
      <point x="163.41" y="491.39"/>
      <point x="163.41" y="585.8" type="curve" smooth="yes"/>
      <point x="163.41" y="683.31"/>
      <point x="123.35" y="740.0"/>
      <point x="64.19" y="740.0" type="curve" smooth="yes"/>
      <point x="19.97" y="740.0" type="line"/>
      <point x="19.97" y="664.96" type="line"/>
      <point x="37.96" y="664.96" type="line" smooth="yes"/>
      <point x="69.65" y="664.96"/>
      <point x="83.64" y="626.01"/>
      <point x="83.64" y="575.91" type="curve" smooth="yes"/>
      <point x="83.64" y="503.84"/>
      <point x="55.370000000000005" y="448.44"/>
      <point x="55.370000000000005" y="377.63" type="curve" smooth="yes"/>
      <point x="55.370000000000005" y="338.18"/>
      <point x="66.52" y="292.45"/>
      <point x="100.55" y="265.0" type="curve"/>
      <point x="66.52" y="239.11"/>
      <point x="55.370000000000005" y="191.39"/>
      <point x="55.370000000000005" y="151.94" type="curve" smooth="yes"/>
      <point x="55.370000000000005" y="77.14"/>
      <point x="83.64" y="21.740000000000002"/>
      <point x="83.64" y="-46.34" type="curve" smooth="yes"/>
      <point x="83.64" y="-96.44"/>
      <point x="69.65" y="-135.39"/>
      <point x="37.96" y="-135.39" type="curve" smooth="yes"/>
    </contour>
  </outline>
</glyph>
<glyph name="asciitilde" format="2">
  <advance width="391.5"/>
  <unicode hex="007E"/>
  <outline>
    <contour>
      <point x="338.36" y="244.98" type="curve"/>
      <point x="338.36" y="326.31" type="line"/>
      <point x="317.49" y="301.17"/>
      <point x="298.9" y="291.46"/>
      <point x="275.32" y="291.46" type="curve" smooth="yes"/>
      <point x="213.31" y="291.46"/>
      <point x="185.62" y="387.95"/>
      <point x="120.33" y="387.95" type="curve" smooth="yes"/>
      <point x="88.59" y="387.95"/>
      <point x="64.41" y="372.07"/>
      <point x="53.71" y="355.95" type="curve"/>
      <point x="53.71" y="274.62" type="line"/>
      <point x="65.55" y="292.45"/>
      <point x="89.73" y="309.47"/>
      <point x="119.76" y="309.47" type="curve" smooth="yes"/>
      <point x="178.78" y="309.47"/>
      <point x="207.04" y="212.98"/>
      <point x="274.75" y="212.98" type="curve" smooth="yes"/>
      <point x="300.04" y="212.98"/>
      <point x="318.63" y="221.55"/>
    </contour>
  </outline>
</glyph>
<glyph name="exclamdown" format="2">
  <advance width="150.98"/>
  <unicode hex="00A1"/>
  <outline>
    <contour>
      <point x="114.3" y="276.75" type="line"/>
      <point x="37.54" y="276.75" type="line"/>
      <point x="30.66" y="-201.4" type="line"/>
      <point x="119.89" y="-201.4" type="line"/>
    </contour>
    <contour>
      <point x="123.46000000000001" y="482.9" type="curve" smooth="yes"/>
      <point x="123.46000000000001" y="525.56"/>
      <point x="111.42" y="542.9"/>
      <point x="75.49" y="542.9" type="curve" smooth="yes"/>
      <point x="40.13" y="542.9"/>
      <point x="27.52" y="525.56"/>
      <point x="27.52" y="482.9" type="curve" smooth="yes"/>
      <point x="27.52" y="439.81"/>
      <point x="39.56" y="422.47"/>
      <point x="75.49" y="422.47" type="curve" smooth="yes"/>
      <point x="111.42" y="422.47"/>
      <point x="123.46000000000001" y="439.81"/>
    </contour>
  </outline>
</glyph>
<glyph name="cent" format="2">
  <advance width="323.1"/>
  <unicode hex="00A2"/>
  <outline>
    <contour>
      <point x="192.13" y="-10.43" type="curve" smooth="yes"/>
      <point x="219.47" y="-10.43"/>
      <point x="247.67000000000002" y="-4.99"/>
      <point x="270.55" y="5.17" type="curve"/>
      <point x="252.36" y="90.53999999999999" type="line"/>
      <point x="235.64" y="85.25"/>
      <point x="224.2" y="83.39"/>
      <point x="211.91" y="83.39" type="curve" smooth="yes"/>
      <point x="168.37" y="83.39"/>
      <point x="149.23000000000002" y="139.04"/>
      <point x="149.23000000000002" y="261.74" type="curve" smooth="yes"/>
      <point x="149.23000000000002" y="397.86"/>
      <point x="169.79" y="454.78"/>
      <point x="213.92000000000002" y="454.78" type="curve" smooth="yes"/>
      <point x="227.93" y="454.78"/>
      <point x="239.22" y="451.92"/>
      <point x="248.94" y="448.92" type="curve"/>
      <point x="265.12" y="537.3" type="line"/>
      <point x="249.68" y="542.73"/>
      <point x="219.62" y="549.46"/>
      <point x="191.13" y="549.46" type="curve" smooth="yes"/>
      <point x="88.58" y="549.46"/>
      <point x="57.85" y="437.68"/>
      <point x="57.85" y="259.16" type="curve" smooth="yes"/>
      <point x="57.85" y="76.44"/>
      <point x="97.9" y="-10.43"/>
    </contour>
    <contour>
      <point x="141.18" y="-105.43" type="line"/>
      <point x="221.81" y="-105.43" type="line"/>
      <point x="221.81" y="3.17" type="line"/>
      <point x="141.18" y="8.75" type="line"/>
    </contour>
    <contour>
      <point x="141.18" y="528.42" type="line"/>
      <point x="221.81" y="536.72" type="line"/>
      <point x="221.81" y="643.17" type="line"/>
      <point x="141.18" y="643.17" type="line"/>
    </contour>
  </outline>
</glyph>
<glyph name="sterling" format="2">
  <advance width="323.1"/>
  <unicode hex="00A3"/>
  <outline>
    <contour>
      <point x="51.14" y="0.0" type="line"/>
      <point x="284.36" y="0.0" type="line"/>
      <point x="284.36" y="80.19999999999999" type="line"/>
      <point x="143.38" y="80.19999999999999" type="line"/>
      <point x="176.22" y="136.12"/>
      <point x="205.38" y="179.38"/>
      <point x="205.38" y="256.62" type="curve" smooth="yes"/>
      <point x="205.38" y="345.28"/>
      <point x="157.12" y="409.42"/>
      <point x="157.12" y="500.04" type="curve" smooth="yes"/>
      <point x="157.12" y="590.52"/>
      <point x="189.51999999999998" y="622.06"/>
      <point x="227.92000000000002" y="622.06" type="curve" smooth="yes"/>
      <point x="242.78" y="622.06"/>
      <point x="252.64" y="619.06"/>
      <point x="263.78" y="614.06" type="curve"/>
      <point x="279.24" y="689.4" type="line"/>
      <point x="259.36" y="703.42"/>
      <point x="232.46" y="710.0"/>
      <point x="209.0" y="710.0" type="curve" smooth="yes"/>
      <point x="115.5" y="710.0"/>
      <point x="66.6" y="634.14"/>
      <point x="66.6" y="526.7" type="curve" smooth="yes"/>
      <point x="66.6" y="400.0"/>
      <point x="123.46" y="355.32"/>
      <point x="123.46" y="246.3" type="curve" smooth="yes"/>
      <point x="123.46" y="179.38"/>
      <point x="98.88" y="131.92"/>
      <point x="51.14" y="62.14" type="curve"/>
    </contour>
    <contour>
      <point x="37.74" y="333.32" type="line"/>
      <point x="265.68" y="333.32" type="line"/>
      <point x="265.68" y="392.88" type="line"/>
      <point x="37.74" y="392.88" type="line"/>
    </contour>
  </outline>
</glyph>
<glyph name="currency" format="2">
  <advance width="417.15"/>
  <unicode hex="00A4"/>
  <outline>
    <contour>
      <point x="25.55" y="416.6" type="line"/>
      <point x="86.65" y="354.5" type="line"/>
      <point x="74.96000000000001" y="336.66"/>
      <point x="67.69" y="314.83"/>
      <point x="67.69" y="290.72" type="curve" smooth="yes"/>
      <point x="67.69" y="266.18"/>
      <point x="74.96000000000001" y="243.49"/>
      <point x="87.65" y="225.22" type="curve"/>
      <point x="25.55" y="163.12" type="line"/>
      <point x="82.12" y="106.55" type="line"/>
      <point x="147.23" y="171.66" type="line"/>
      <point x="164.21" y="159.4"/>
      <point x="186.04" y="153.13"/>
      <point x="209.58" y="153.13" type="curve" smooth="yes"/>
      <point x="232.26" y="153.13"/>
      <point x="253.37" y="159.4"/>
      <point x="269.92" y="171.23" type="curve"/>
      <point x="335.03" y="106.55" type="line"/>
      <point x="391.6" y="163.12" type="line"/>
      <point x="331.22" y="223.07" type="line"/>
      <point x="344.34" y="242.2"/>
      <point x="352.04" y="265.32"/>
      <point x="352.04" y="290.72" type="curve" smooth="yes"/>
      <point x="352.04" y="315.26"/>
      <point x="344.34" y="337.95"/>
      <point x="331.65" y="356.65" type="curve"/>
      <point x="391.6" y="416.6" type="line"/>
      <point x="335.03" y="473.17" type="line"/>
      <point x="271.64" y="409.78" type="line"/>
      <point x="254.66" y="421.61"/>
      <point x="233.26" y="428.88"/>
      <point x="209.58" y="428.88" type="curve" smooth="yes"/>
      <point x="184.61" y="428.88"/>
      <point x="162.78" y="421.18"/>
      <point x="144.94" y="409.35" type="curve"/>
      <point x="82.12" y="473.17" type="line"/>
    </contour>
    <contour>
      <point x="209.58" y="213.98" type="curve" smooth="yes"/>
      <point x="166.07" y="213.98"/>
      <point x="133.26999999999998" y="246.78"/>
      <point x="133.26999999999998" y="290.29" type="curve" smooth="yes"/>
      <point x="133.26999999999998" y="333.51"/>
      <point x="166.07" y="367.6"/>
      <point x="209.58" y="367.6" type="curve" smooth="yes"/>
      <point x="253.66" y="367.6"/>
      <point x="286.46" y="333.51"/>
      <point x="286.46" y="290.29" type="curve" smooth="yes"/>
      <point x="286.46" y="246.78"/>
      <point x="253.66" y="213.98"/>
    </contour>
  </outline>
</glyph>
<glyph name="yen" format="2">
  <advance width="323.1"/>
  <unicode hex="00A5"/>
  <outline>
    <contour>
      <point x="41.12" y="323.0" type="line"/>
      <point x="119.72" y="323.0" type="line"/>
      <point x="119.72" y="252.07999999999998" type="line"/>
      <point x="41.12" y="252.07999999999998" type="line"/>
      <point x="41.12" y="192.52" type="line"/>
      <point x="119.72" y="192.52" type="line"/>
      <point x="119.72" y="0.0" type="line"/>
      <point x="206.8" y="0.0" type="line"/>
      <point x="206.8" y="192.52" type="line"/>
      <point x="285.4" y="192.52" type="line"/>
      <point x="285.4" y="252.07999999999998" type="line"/>
      <point x="206.8" y="252.07999999999998" type="line"/>
      <point x="206.8" y="323.0" type="line"/>
      <point x="285.4" y="323.0" type="line"/>
      <point x="285.4" y="381.7" type="line"/>
      <point x="206.8" y="381.7" type="line"/>
      <point x="305.6" y="697.86" type="line"/>
      <point x="209.06" y="702.14" type="line"/>
      <point x="163.26" y="449.82" type="line"/>
      <point x="114.03999999999999" y="702.14" type="line"/>
      <point x="17.5" y="697.86" type="line"/>
      <point x="119.72" y="381.7" type="line"/>
      <point x="41.12" y="381.7" type="line"/>
    </contour>
  </outline>
</glyph>
<glyph name="brokenbar" format="2">
  <advance width="134.23"/>
  <unicode hex="00A6"/>
  <outline>
    <contour>
      <point x="104.85" y="391.0" type="line"/>
      <point x="104.85" y="790.43" type="line"/>
      <point x="29.380000000000003" y="790.43" type="line"/>
      <point x="29.380000000000003" y="391.0" type="line"/>
    </contour>
    <contour>
      <point x="29.380000000000003" y="190.43" type="line"/>
      <point x="29.380000000000003" y="-210.0" type="line"/>
      <point x="104.85" y="-210.0" type="line"/>
      <point x="104.85" y="190.43" type="line"/>
    </contour>
  </outline>
</glyph>
<glyph name="section" format="2">
  <advance width="364.67"/>
  <unicode hex="00A7"/>
  <outline>
    <contour>
      <point x="139.68" y="-220.43" type="curve" smooth="yes"/>
      <point x="265.04" y="-220.43"/>
      <point x="341.36" y="-100.71"/>
      <point x="341.36" y="57.73" type="curve" smooth="yes"/>
      <point x="341.36" y="134.69"/>
      <point x="324.64" y="222.44"/>
      <point x="272.81" y="380.85" type="curve" smooth="yes"/>
      <point x="227.1" y="518.76"/>
      <point x="216.22" y="550.52"/>
      <point x="216.22" y="587.08" type="curve" smooth="yes"/>
      <point x="216.22" y="629.19"/>
      <point x="235.78" y="654.03"/>
      <point x="268.90999999999997" y="654.03" type="curve" smooth="yes"/>
      <point x="281.48" y="654.03"/>
      <point x="292.05" y="652.03"/>
      <point x="305.19" y="645.03" type="curve"/>
      <point x="325.65999999999997" y="730.12" type="line"/>
      <point x="304.65" y="742.56"/>
      <point x="272.89" y="749.43"/>
      <point x="240.7" y="749.43" type="curve" smooth="yes"/>
      <point x="111.63" y="749.43"/>
      <point x="28.28" y="649.42"/>
      <point x="30.72" y="484.71" type="curve" smooth="yes"/>
      <point x="32.01" y="404.31"/>
      <point x="43.42" y="324.91"/>
      <point x="101.86" y="158.25" type="curve" smooth="yes"/>
      <point x="145.57" y="29.47"/>
      <point x="162.01" y="-18.509999999999998"/>
      <point x="162.01" y="-59.08" type="curve" smooth="yes"/>
      <point x="162.01" y="-103.48"/>
      <point x="140.87" y="-125.03"/>
      <point x="105.74" y="-125.03" type="curve" smooth="yes"/>
      <point x="86.18" y="-125.03"/>
      <point x="66.47" y="-118.18"/>
      <point x="46.489999999999995" y="-99.34" type="curve"/>
      <point x="25.89" y="-183.86" type="line"/>
      <point x="55.17" y="-208.85"/>
      <point x="93.65" y="-220.43"/>
    </contour>
    <contour>
      <point x="134.8" y="-163.14" type="curve" smooth="yes"/>
      <point x="118.8" y="-163.14"/>
      <point x="105.93" y="-159.85"/>
      <point x="92.91" y="-153.41" type="curve"/>
      <point x="122.67" y="-172.86" type="line"/>
      <point x="182.7" y="-169.71"/>
      <point x="221.72" y="-125.11"/>
      <point x="221.72" y="-57.07000000000001" type="curve" smooth="yes"/>
      <point x="221.72" y="-8.189999999999998"/>
      <point x="208.29" y="50.81999999999999"/>
      <point x="162.86" y="187.04" type="curve" smooth="yes"/>
      <point x="110.02" y="347.91"/>
      <point x="94.87" y="408.18"/>
      <point x="94.87" y="489.01" type="curve" smooth="yes"/>
      <point x="94.87" y="601.32"/>
      <point x="145.26999999999998" y="679.68"/>
      <point x="212.07" y="679.68" type="curve" smooth="yes"/>
      <point x="222.52" y="679.68"/>
      <point x="229.82" y="677.53"/>
      <point x="238.82999999999998" y="670.94" type="curve"/>
      <point x="222.53" y="694.27" type="line"/>
      <point x="184.1" y="681.84"/>
      <point x="153.22" y="644.55"/>
      <point x="153.22" y="591.81" type="curve" smooth="yes"/>
      <point x="153.22" y="545.08"/>
      <point x="163.37" y="496.33"/>
      <point x="209.95" y="361.23" type="curve" smooth="yes"/>
      <point x="267.51" y="187.92000000000002"/>
      <point x="280.36" y="120.94"/>
      <point x="280.36" y="51.71" type="curve" smooth="yes"/>
      <point x="280.36" y="-74.78999999999999"/>
      <point x="223.36" y="-163.14"/>
    </contour>
  </outline>
</glyph>
<glyph name="copyright" format="2">
  <advance width="476.91999999999996"/>
  <unicode hex="00A9"/>
  <outline>
    <contour>
      <point x="238.45999999999998" y="23.34" type="curve" smooth="yes"/>
      <point x="122.57" y="23.34"/>
      <point x="65.91" y="122.97999999999999"/>
      <point x="65.91" y="350.43" type="curve" smooth="yes"/>
      <point x="65.91" y="578.45"/>
      <point x="122.57" y="677.52"/>
      <point x="238.45999999999998" y="677.52" type="curve" smooth="yes"/>
      <point x="355.64" y="677.52"/>
      <point x="410.58" y="578.45"/>
      <point x="410.58" y="350.43" type="curve" smooth="yes"/>
      <point x="410.58" y="122.97999999999999"/>
      <point x="355.64" y="23.34"/>
    </contour>
    <contour>
      <point x="238.45999999999998" y="710.0" type="curve" smooth="yes"/>
      <point x="100.4" y="710.0"/>
      <point x="32.14" y="596.6"/>
      <point x="32.14" y="350.43" type="curve" smooth="yes"/>
      <point x="32.14" y="105.25999999999999"/>
      <point x="100.4" y="-10.0"/>
      <point x="238.45999999999998" y="-10.0" type="curve" smooth="yes"/>
      <point x="376.52" y="-10.0"/>
      <point x="444.78" y="105.25999999999999"/>
      <point x="444.78" y="350.43" type="curve" smooth="yes"/>
      <point x="444.78" y="596.6"/>
      <point x="376.52" y="710.0"/>
    </contour>
    <contour>
      <point x="142.78" y="344.6" type="curve" smooth="yes"/>
      <point x="142.78" y="210.53"/>
      <point x="177.82" y="145.36"/>
      <point x="248.17000000000002" y="145.36" type="curve" smooth="yes"/>
      <point x="265.2" y="145.36"/>
      <point x="285.93" y="146.93"/>
      <point x="306.25" y="154.95" type="curve"/>
      <point x="295.8" y="215.52" type="line"/>
      <point x="280.2" y="210.94"/>
      <point x="265.35" y="209.51"/>
      <point x="254.62" y="209.51" type="curve" smooth="yes"/>
      <point x="219.64" y="209.51"/>
      <point x="210.51" y="253.74"/>
      <point x="210.51" y="341.59" type="curve" smooth="yes"/>
      <point x="210.51" y="449.84"/>
      <point x="223.64" y="486.96"/>
      <point x="257.90999999999997" y="486.96" type="curve" smooth="yes"/>
      <point x="268.06" y="486.96"/>
      <point x="284.65999999999997" y="484.38"/>
      <point x="296.24" y="480.95" type="curve"/>
      <point x="307.98" y="539.8" type="line"/>
      <point x="291.53" y="547.96"/>
      <point x="267.63" y="551.11"/>
      <point x="247.59" y="551.11" type="curve" smooth="yes"/>
      <point x="182.68" y="551.11"/>
      <point x="142.78" y="499.38"/>
    </contour>
  </outline>
</glyph>
<glyph name="ordfeminine" format="2">
  <advance width="234.15"/>
  <unicode hex="00AA"/>
  <outline>
    <contour>
      <point x="23.43" y="275.77" type="line"/>
      <point x="212.0" y="275.77" type="line"/>
      <point x="212.0" y="323.01" type="line"/>
      <point x="23.43" y="323.01" type="line"/>
    </contour>
    <component base="a.superior" xOffset="10.28"/>
  </outline>
</glyph>
<glyph name="logicalnot" format="2">
  <advance width="391.5"/>
  <unicode hex="00AC"/>
  <outline>
    <contour>
      <point x="42.57" y="342.29" type="line"/>
      <point x="269.3" y="342.29" type="line"/>
      <point x="269.3" y="177.86" type="line"/>
      <point x="349.5" y="177.86" type="line"/>
      <point x="349.5" y="422.49" type="line"/>
      <point x="42.57" y="422.49" type="line"/>
    </contour>
  </outline>
</glyph>
<glyph name="registered" format="2">
  <advance width="456.03"/>
  <unicode hex="00AE"/>
  <outline>
    <contour>
      <point x="228.3" y="208.0" type="curve" smooth="yes"/>
      <point x="359.35" y="208.0"/>
      <point x="423.89" y="317.54"/>
      <point x="423.89" y="550.43" type="curve" smooth="yes"/>
      <point x="423.89" y="784.32"/>
      <point x="359.35" y="892.0"/>
      <point x="228.3" y="892.0" type="curve" smooth="yes"/>
      <point x="97.25" y="892.0"/>
      <point x="32.14" y="784.32"/>
      <point x="32.14" y="550.43" type="curve" smooth="yes"/>
      <point x="32.14" y="317.54"/>
      <point x="97.25" y="208.0"/>
    </contour>
    <contour>
      <point x="228.3" y="239.48" type="curve" smooth="yes"/>
      <point x="117.99000000000001" y="239.48"/>
      <point x="64.62" y="334.26"/>
      <point x="64.62" y="550.43" type="curve" smooth="yes"/>
      <point x="64.62" y="767.17"/>
      <point x="117.99000000000001" y="861.38"/>
      <point x="228.3" y="861.38" type="curve" smooth="yes"/>
      <point x="339.9" y="861.38"/>
      <point x="391.55" y="767.17"/>
      <point x="391.55" y="550.43" type="curve" smooth="yes"/>
      <point x="391.55" y="334.26"/>
      <point x="339.9" y="239.48"/>
    </contour>
    <contour>
      <point x="312.68" y="371.76" type="curve" smooth="yes"/>
      <point x="316.97" y="371.76"/>
      <point x="321.84000000000003" y="371.76"/>
      <point x="327.27" y="372.76" type="curve"/>
      <point x="325.56" y="436.77" type="line"/>
      <point x="323.56" y="436.2"/>
      <point x="321.7" y="436.2"/>
      <point x="319.7" y="436.2" type="curve" smooth="yes"/>
      <point x="299.96" y="436.2"/>
      <point x="292.65999999999997" y="464.77"/>
      <point x="278.97" y="524.95" type="curve"/>
      <point x="309.27" y="542.24"/>
      <point x="317.0" y="585.84"/>
      <point x="317.0" y="634.58" type="curve" smooth="yes"/>
      <point x="317.0" y="710.49"/>
      <point x="286.24" y="743.52"/>
      <point x="230.76" y="743.52" type="curve" smooth="yes"/>
      <point x="203.42000000000002" y="743.52"/>
      <point x="179.1" y="741.09"/>
      <point x="153.21" y="737.52" type="curve"/>
      <point x="153.21" y="375.48" type="line"/>
      <point x="210.48000000000002" y="375.48" type="line"/>
      <point x="210.48000000000002" y="505.9" type="line"/>
      <point x="214.47" y="505.33"/>
      <point x="218.89" y="504.76"/>
      <point x="222.31" y="504.76" type="curve" smooth="yes"/>
      <point x="225.01999999999998" y="504.76"/>
      <point x="227.3" y="504.76"/>
      <point x="230.01" y="505.33" type="curve"/>
      <point x="259.3" y="378.88"/>
      <point x="279.07" y="371.76"/>
    </contour>
    <contour>
      <point x="224.76" y="548.13" type="curve" smooth="yes"/>
      <point x="220.19" y="548.13"/>
      <point x="215.48000000000002" y="548.13"/>
      <point x="210.48000000000002" y="549.13" type="curve"/>
      <point x="210.48000000000002" y="685.54" type="line"/>
      <point x="218.19" y="687.54"/>
      <point x="225.32999999999998" y="688.11"/>
      <point x="229.61" y="688.11" type="curve" smooth="yes"/>
      <point x="256.72" y="688.11"/>
      <point x="258.01" y="663.13"/>
      <point x="258.01" y="624.84" type="curve" smooth="yes"/>
      <point x="258.01" y="577.82"/>
      <point x="255.86" y="548.13"/>
    </contour>
  </outline>
</glyph>
<glyph name="degree" format="2">
  <advance width="261.86"/>
  <unicode hex="00B0"/>
  <outline>
    <contour>
      <point x="130.36" y="456.36" type="curve" smooth="yes"/>
      <point x="201.71" y="456.36"/>
      <point x="236.16" y="513.97"/>
      <point x="236.16" y="587.74" type="curve" smooth="yes"/>
      <point x="236.16" y="658.5"/>
      <point x="204.29" y="720.26"/>
      <point x="130.36" y="720.26" type="curve" smooth="yes"/>
      <point x="56.43" y="720.26"/>
      <point x="25.7" y="658.5"/>
      <point x="25.7" y="587.74" type="curve" smooth="yes"/>
      <point x="25.7" y="513.97"/>
      <point x="59.01" y="456.36"/>
    </contour>
    <contour>
      <point x="130.36" y="521.94" type="curve" smooth="yes"/>
      <point x="100.11" y="521.94"/>
      <point x="86.12" y="549.91"/>
      <point x="86.12" y="587.31" type="curve" smooth="yes"/>
      <point x="86.12" y="623.85"/>
      <point x="99.68" y="652.96"/>
      <point x="130.36" y="652.96" type="curve" smooth="yes"/>
      <point x="161.04" y="652.96"/>
      <point x="175.74" y="623.85"/>
      <point x="175.74" y="587.31" type="curve" smooth="yes"/>
      <point x="175.74" y="549.91"/>
      <point x="160.61" y="521.94"/>
    </contour>
  </outline>
</glyph>
<glyph name="plusminus" format="2">
  <advance width="409.74"/>
  <unicode hex="00B1"/>
  <outline>
    <contour>
      <point x="40.29" y="41.04" type="line"/>
      <point x="369.45" y="41.04" type="line"/>
      <point x="369.45" y="121.24" type="line"/>
      <point x="244.97" y="121.24" type="line"/>
      <point x="244.97" y="273.49" type="line"/>
      <point x="369.45" y="273.49" type="line"/>
      <point x="369.45" y="353.69" type="line"/>
      <point x="244.97" y="353.69" type="line"/>
      <point x="244.97" y="496.41" type="line"/>
      <point x="164.77" y="496.41" type="line"/>
      <point x="164.77" y="353.69" type="line"/>
      <point x="40.29" y="353.69" type="line"/>
      <point x="40.29" y="273.49" type="line"/>
      <point x="164.77" y="273.49" type="line"/>
      <point x="164.77" y="121.24" type="line"/>
      <point x="40.29" y="121.24" type="line"/>
    </contour>
  </outline>
</glyph>
<glyph name="uni00B2" format="2">
  <advance width="239.35"/>
  <unicode hex="00B2"/>
  <outline>
    <contour>
      <point x="43.54" y="370.0" type="line"/>
      <point x="203.81" y="370.0" type="line"/>
      <point x="203.81" y="418.25" type="line"/>
      <point x="105.12" y="418.25" type="line"/>
      <point x="169.26999999999998" y="541.16"/>
      <point x="191.82999999999998" y="603.24"/>
      <point x="191.82999999999998" y="662.24" type="curve" smooth="yes"/>
      <point x="191.82999999999998" y="735.56"/>
      <point x="161.8" y="775.57"/>
      <point x="109.32" y="775.57" type="curve" smooth="yes"/>
      <point x="80.29" y="775.57"/>
      <point x="56.27" y="766.99"/>
      <point x="31.67" y="743.42" type="curve"/>
      <point x="53.43" y="691.86" type="line"/>
      <point x="68.86" y="708.84"/>
      <point x="81.43" y="712.27"/>
      <point x="97.57" y="712.27" type="curve" smooth="yes"/>
      <point x="119.56" y="712.27"/>
      <point x="134.27" y="686.01"/>
      <point x="134.27" y="647.63" type="curve" smooth="yes"/>
      <point x="134.27" y="601.66"/>
      <point x="99.39" y="521.7"/>
      <point x="41.83" y="413.67" type="curve"/>
    </contour>
  </outline>
</glyph>
<glyph name="uni00B3" format="2">
  <advance width="244.94"/>
  <unicode hex="00B3"/>
  <outline>
    <contour>
      <point x="34.82" y="388.3" type="line"/>
      <point x="59.57" y="370.15"/>
      <point x="80.58" y="362.58"/>
      <point x="111.03" y="362.58" type="curve" smooth="yes"/>
      <point x="171.07999999999998" y="362.58"/>
      <point x="207.11" y="408.01"/>
      <point x="207.11" y="483.87" type="curve" smooth="yes"/>
      <point x="207.11" y="531.57"/>
      <point x="190.67" y="567.14"/>
      <point x="158.52" y="581.44" type="curve"/>
      <point x="184.96" y="598.17"/>
      <point x="199.4" y="633.17"/>
      <point x="199.4" y="672.87" type="curve" smooth="yes"/>
      <point x="199.4" y="735.58"/>
      <point x="165.8" y="775.29"/>
      <point x="112.18" y="775.29" type="curve" smooth="yes"/>
      <point x="83.43" y="775.29"/>
      <point x="57.83" y="766.57"/>
      <point x="38.09" y="749.27" type="curve"/>
      <point x="58.13" y="705.16" type="line"/>
      <point x="68.13" y="713.44"/>
      <point x="82.0" y="717.44"/>
      <point x="99.0" y="717.44" type="curve" smooth="yes"/>
      <point x="126.99" y="717.44"/>
      <point x="142.84" y="694.76"/>
      <point x="142.84" y="656.1" type="curve" smooth="yes"/>
      <point x="142.84" y="623.86"/>
      <point x="132.7" y="597.9"/>
      <point x="104.86" y="597.9" type="curve" smooth="yes"/>
      <point x="78.85" y="597.9" type="line"/>
      <point x="78.85" y="551.8" type="line"/>
      <point x="106.58" y="551.8" type="line" smooth="yes"/>
      <point x="139.27" y="551.8"/>
      <point x="148.98" y="527.12"/>
      <point x="148.98" y="489.03" type="curve" smooth="yes"/>
      <point x="148.98" y="443.81"/>
      <point x="131.56" y="417.42"/>
      <point x="102.72" y="417.42" type="curve" smooth="yes"/>
      <point x="83.87" y="417.42"/>
      <point x="71.87" y="422.13"/>
      <point x="57.29" y="433.84" type="curve"/>
    </contour>
  </outline>
</glyph>
<glyph name="uni00B5" format="2">
  <advance width="340.38"/>
  <unicode hex="00B5"/>
  <outline>
    <contour>
      <point x="33.25" y="-210.0" type="line"/>
      <point x="116.03" y="-210.0" type="line"/>
      <point x="116.03" y="8.11" type="line"/>
      <point x="125.72999999999999" y="-4.86"/>
      <point x="139.71" y="-9.14"/>
      <point x="155.55" y="-9.14" type="curve" smooth="yes"/>
      <point x="178.68" y="-9.14"/>
      <point x="205.81" y="2.58"/>
      <point x="223.22" y="17.58" type="curve"/>
      <point x="233.53" y="1.72"/>
      <point x="246.38" y="-10.0"/>
      <point x="278.14" y="-10.0" type="curve" smooth="yes"/>
      <point x="303.62" y="-10.0"/>
      <point x="322.36" y="-3.7"/>
      <point x="340.65999999999997" y="5.88" type="curve"/>
      <point x="331.94" y="80.07" type="line"/>
      <point x="324.95" y="76.78999999999999"/>
      <point x="317.24" y="75.22"/>
      <point x="310.39" y="75.22" type="curve" smooth="yes"/>
      <point x="299.97" y="75.22"/>
      <point x="295.26" y="81.5"/>
      <point x="295.26" y="100.22" type="curve" smooth="yes"/>
      <point x="295.26" y="538.6" type="line"/>
      <point x="208.61" y="538.6" type="line"/>
      <point x="208.61" y="90.33" type="line"/>
      <point x="196.2" y="79.63"/>
      <point x="174.81" y="72.5"/>
      <point x="160.82999999999998" y="72.5" type="curve" smooth="yes"/>
      <point x="135.17000000000002" y="72.5"/>
      <point x="120.33" y="88.75"/>
      <point x="120.33" y="122.7" type="curve" smooth="yes"/>
      <point x="120.33" y="538.6" type="line"/>
      <point x="33.25" y="538.6" type="line"/>
    </contour>
  </outline>
</glyph>
<glyph name="paragraph" format="2">
  <advance width="454.68"/>
  <unicode hex="00B6"/>
  <outline>
    <contour>
      <point x="350.69" y="-210.0" type="line"/>
      <point x="420.57" y="-210.0" type="line"/>
      <point x="420.57" y="740.0" type="line"/>
      <point x="350.69" y="740.0" type="line"/>
    </contour>
    <contour>
      <point x="187.68" y="273.26" type="line"/>
      <point x="132.49" y="286.81"/>
      <point x="99.21000000000001" y="361.73"/>
      <point x="99.21000000000001" y="470.48" type="curve" smooth="yes"/>
      <point x="99.21000000000001" y="574.77"/>
      <point x="136.17000000000002" y="657.23"/>
      <point x="215.63" y="660.08" type="curve"/>
      <point x="215.63" y="-210.0" type="line"/>
      <point x="285.51" y="-210.0" type="line"/>
      <point x="285.51" y="740.0" type="line"/>
      <point x="240.84" y="740.0" type="line" smooth="yes"/>
      <point x="76.44" y="740.0"/>
      <point x="20.73" y="613.87"/>
      <point x="20.73" y="472.63" type="curve" smooth="yes"/>
      <point x="20.73" y="337.82"/>
      <point x="69.03999999999999" y="236.26999999999998"/>
      <point x="178.07999999999998" y="210.69" type="curve"/>
    </contour>
  </outline>
</glyph>
<glyph name="periodcentered" format="2">
  <advance width="137.3"/>
  <unicode hex="00B7"/>
  <outline>
    <contour>
      <point x="20.68" y="305.06" type="curve" smooth="yes"/>
      <point x="20.68" y="262.4"/>
      <point x="33.72" y="245.06"/>
      <point x="69.08" y="245.06" type="curve" smooth="yes"/>
      <point x="104.58" y="245.06"/>
      <point x="116.62" y="262.4"/>
      <point x="116.62" y="305.06" type="curve" smooth="yes"/>
      <point x="116.62" y="347.72"/>
      <point x="104.58" y="365.06"/>
      <point x="69.08" y="365.06" type="curve" smooth="yes"/>
      <point x="32.72" y="365.06"/>
      <point x="20.68" y="347.72"/>
    </contour>
  </outline>
</glyph>
<glyph name="uni00B9" format="2">
  <advance width="221.62"/>
  <unicode hex="00B9"/>
  <outline>
    <contour>
      <point x="26.71" y="370.0" type="line"/>
      <point x="200.93" y="370.0" type="line"/>
      <point x="200.93" y="418.82" type="line"/>
      <point x="146.1" y="418.82" type="line"/>
      <point x="146.1" y="769.57" type="line"/>
      <point x="116.75" y="769.57" type="line"/>
      <point x="21.98" y="717.77" type="line"/>
      <point x="33.85" y="664.07" type="line"/>
      <point x="87.97" y="699.86" type="line"/>
      <point x="87.97" y="418.82" type="line"/>
      <point x="26.71" y="418.82" type="line"/>
    </contour>
  </outline>
</glyph>
<glyph name="ordmasculine" format="2">
  <advance width="245.54"/>
  <unicode hex="00BA"/>
  <outline>
    <contour>
      <point x="30.42" y="275.77" type="line"/>
      <point x="218.99" y="275.77" type="line"/>
      <point x="218.99" y="323.01" type="line"/>
      <point x="30.42" y="323.01" type="line"/>
    </contour>
    <component base="o.superior" xOffset="14.84"/>
  </outline>
</glyph>
<glyph name="questiondown" format="2">
  <advance width="287.47"/>
  <unicode hex="00BF"/>
  <outline>
    <contour>
      <point x="212.76" y="272.02" type="line"/>
      <point x="135.57" y="272.02" type="line"/>
      <point x="135.57" y="196.17" type="line"/>
      <point x="63.7" y="133.66"/>
      <point x="30.42" y="72.6"/>
      <point x="30.42" y="-31.66" type="curve" smooth="yes"/>
      <point x="30.42" y="-153.96"/>
      <point x="89.87" y="-215.7"/>
      <point x="180.26" y="-215.7" type="curve" smooth="yes"/>
      <point x="225.72" y="-215.7"/>
      <point x="267.89" y="-195.13"/>
      <point x="298.19" y="-164.85" type="curve"/>
      <point x="264.26" y="-86.06" type="line"/>
      <point x="236.12" y="-113.47"/>
      <point x="214.43" y="-121.45"/>
      <point x="192.73" y="-121.45" type="curve" smooth="yes"/>
      <point x="149.32999999999998" y="-121.45"/>
      <point x="120.65" y="-79.22"/>
      <point x="120.65" y="-16.46" type="curve" smooth="yes"/>
      <point x="120.65" y="48.019999999999996"/>
      <point x="139.49" y="96.14"/>
      <point x="214.48" y="157.5" type="curve"/>
    </contour>
    <contour>
      <point x="222.49" y="478.17" type="curve" smooth="yes"/>
      <point x="222.49" y="520.83"/>
      <point x="209.17000000000002" y="538.17"/>
      <point x="173.95" y="538.17" type="curve" smooth="yes"/>
      <point x="139.02" y="538.17"/>
      <point x="125.98" y="520.83"/>
      <point x="125.98" y="478.17" type="curve" smooth="yes"/>
      <point x="125.98" y="435.08"/>
      <point x="139.02" y="417.74"/>
      <point x="173.95" y="417.74" type="curve" smooth="yes"/>
      <point x="210.31" y="417.74"/>
      <point x="222.49" y="435.08"/>
    </contour>
  </outline>
</glyph>
<glyph name="AE" format="2">
  <advance width="523.72"/>
  <unicode hex="00C6"/>
  <anchor x="301.17" y="700.0" name="top"/>
  <outline>
    <contour>
      <point x="12.26" y="0.0" type="line"/>
      <point x="106.65" y="-0.5700000000000001" type="line"/>
      <point x="169.11" y="229.25" type="line"/>
      <point x="265.8" y="229.25" type="line"/>
      <point x="265.8" y="0.0" type="line"/>
      <point x="512.29" y="0.0" type="line"/>
      <point x="512.29" y="87.94" type="line"/>
      <point x="349.87" y="87.94" type="line"/>
      <point x="349.87" y="298.77" type="line"/>
      <point x="483.42" y="298.77" type="line"/>
      <point x="483.42" y="382.40999999999997" type="line"/>
      <point x="349.87" y="382.40999999999997" type="line"/>
      <point x="349.87" y="609.91" type="line"/>
      <point x="501.86" y="609.91" type="line"/>
      <point x="501.86" y="700.0" type="line"/>
      <point x="204.5" y="700.0" type="line"/>
    </contour>
    <contour>
      <point x="185.29" y="315.33" type="line"/>
      <point x="264.94" y="637.57" type="line"/>
      <point x="264.94" y="315.33" type="line"/>
    </contour>
  </outline>
</glyph>
<glyph name="multiply" format="2">
  <advance width="380.1"/>
  <unicode hex="00D7"/>
  <outline>
    <contour>
      <point x="102.96000000000001" y="112.97999999999999" type="line"/>
      <point x="189.48" y="250.23" type="line"/>
      <point x="277.14" y="113.55" type="line"/>
      <point x="335.99" y="167.26999999999998" type="line"/>
      <point x="244.91" y="310.79" type="line"/>
      <point x="335.42" y="455.45" type="line"/>
      <point x="276.57" y="509.17" type="line"/>
      <point x="189.48" y="371.92" type="line"/>
      <point x="102.96000000000001" y="509.17" type="line"/>
      <point x="44.11" y="455.45" type="line"/>
      <point x="134.62" y="310.79" type="line"/>
      <point x="44.11" y="166.7" type="line"/>
    </contour>
  </outline>
</glyph>
<glyph name="Oslash" format="2">
  <advance width="352.32"/>
  <unicode hex="00D8"/>
  <anchor x="176.52" y="700.0" name="top"/>
  <outline>
    <contour>
      <point x="79.4" y="-10.0" type="line"/>
      <point x="101.12" y="54.0" type="line"/>
      <point x="109.56" y="54.54" type="line"/>
      <point x="280.42" y="587.64" type="line"/>
      <point x="288.0" y="587.46" type="line"/>
      <point x="331.48" y="714.3" type="line"/>
      <point x="274.64" y="714.3" type="line"/>
      <point x="246.9" y="632.96" type="line"/>
      <point x="238.46" y="632.42" type="line"/>
      <point x="72.76" y="116.66" type="line"/>
      <point x="66.18" y="117.4" type="line"/>
      <point x="22.56" y="-10.0" type="line"/>
    </contour>
    <contour>
      <point x="176.52" y="69.06" type="curve" smooth="yes"/>
      <point x="123.58" y="69.06"/>
      <point x="106.47999999999999" y="120.86"/>
      <point x="106.47999999999999" y="349.0" type="curve" smooth="yes"/>
      <point x="106.47999999999999" y="578.28"/>
      <point x="123.58" y="630.94"/>
      <point x="176.52" y="630.94" type="curve" smooth="yes"/>
      <point x="230.46" y="630.94"/>
      <point x="247.56" y="579.14"/>
      <point x="247.56" y="349.86" type="curve" smooth="yes"/>
      <point x="247.56" y="121.72"/>
      <point x="230.46" y="69.06"/>
    </contour>
    <contour>
      <point x="176.52" y="-10.0" type="curve" smooth="yes"/>
      <point x="285.74" y="-10.0"/>
      <point x="332.92" y="67.88"/>
      <point x="332.92" y="350.72" type="curve" smooth="yes"/>
      <point x="332.92" y="632.98"/>
      <point x="286.6" y="710.0"/>
      <point x="176.52" y="710.0" type="curve" smooth="yes"/>
      <point x="67.44" y="710.0"/>
      <point x="21.12" y="632.12"/>
      <point x="21.12" y="349.0" type="curve" smooth="yes"/>
      <point x="21.12" y="67.02"/>
      <point x="67.44" y="-10.0"/>
    </contour>
  </outline>
</glyph>
<glyph name="Thorn" format="2">
  <advance width="329.27"/>
  <unicode hex="00DE"/>
  <outline>
    <contour>
      <point x="33.97" y="0.0" type="line"/>
      <point x="121.05" y="0.0" type="line"/>
      <point x="121.05" y="147.87" type="line"/>
      <point x="138.79" y="145.57999999999998"/>
      <point x="149.06" y="145.57999999999998"/>
      <point x="167.64" y="145.57999999999998" type="curve" smooth="yes"/>
      <point x="267.98" y="145.57999999999998"/>
      <point x="315.85" y="221.77"/>
      <point x="315.85" y="392.39" type="curve" smooth="yes"/>
      <point x="315.85" y="556.72"/>
      <point x="275.53" y="622.21"/>
      <point x="152.15" y="622.21" type="curve" smooth="yes"/>
      <point x="142.45" y="622.21"/>
      <point x="132.32" y="621.64"/>
      <point x="121.47999999999999" y="620.5" type="curve"/>
      <point x="121.47999999999999" y="700.0" type="line"/>
      <point x="33.97" y="700.0" type="line"/>
    </contour>
    <contour>
      <point x="154.01999999999998" y="232.23" type="curve" smooth="yes"/>
      <point x="141.89" y="232.23"/>
      <point x="132.76" y="232.23"/>
      <point x="121.47999999999999" y="233.66" type="curve"/>
      <point x="121.47999999999999" y="536.14" type="line"/>
      <point x="135.32999999999998" y="539.14"/>
      <point x="148.18" y="539.71"/>
      <point x="157.88" y="539.71" type="curve" smooth="yes"/>
      <point x="214.93" y="539.71"/>
      <point x="228.77" y="498.17"/>
      <point x="228.77" y="395.84" type="curve" smooth="yes"/>
      <point x="228.77" y="287.95"/>
      <point x="207.39" y="232.23"/>
    </contour>
  </outline>
</glyph>
<glyph name="germandbls" format="2">
  <advance width="427.94"/>
  <unicode hex="00DF"/>
  <outline>
    <contour>
      <point x="60.68" y="0.0" type="line"/>
      <point x="146.9" y="0.0" type="line"/>
      <point x="146.9" y="537.4" type="line" smooth="yes"/>
      <point x="146.9" y="625.28"/>
      <point x="174.46" y="666.5"/>
      <point x="237.3" y="666.5" type="curve" smooth="yes"/>
      <point x="279.72" y="666.5"/>
      <point x="301.54" y="644.24"/>
      <point x="301.54" y="606.28" type="curve" smooth="yes"/>
      <point x="301.54" y="576.62"/>
      <point x="295.0" y="557.64"/>
      <point x="255.44" y="525.38" type="curve" smooth="yes"/>
      <point x="213.14" y="491.1"/>
      <point x="188.84" y="452.26"/>
      <point x="188.84" y="395.5" type="curve" smooth="yes"/>
      <point x="188.84" y="318.14"/>
      <point x="214.46" y="284.7"/>
      <point x="277.48" y="234.76" type="curve" smooth="yes"/>
      <point x="329.18" y="193.56"/>
      <point x="343.6" y="171.32"/>
      <point x="343.6" y="136.66" type="curve" smooth="yes"/>
      <point x="343.6" y="98.16"/>
      <point x="323.36" y="70.19999999999999"/>
      <point x="272.22" y="70.19999999999999" type="curve" smooth="yes"/>
      <point x="235.76" y="70.19999999999999"/>
      <point x="215.78" y="77.92"/>
      <point x="189.32" y="87.92" type="curve"/>
      <point x="172.44" y="13.3" type="line"/>
      <point x="200.04" y="-2.14"/>
      <point x="240.36" y="-10.0"/>
      <point x="280.82" y="-10.0" type="curve" smooth="yes"/>
      <point x="370.76" y="-10.0"/>
      <point x="423.8" y="46.46"/>
      <point x="423.8" y="141.82" type="curve" smooth="yes"/>
      <point x="423.8" y="213.3"/>
      <point x="395.2" y="258.02"/>
      <point x="330.46" y="306.24" type="curve" smooth="yes"/>
      <point x="281.62" y="343.72"/>
      <point x="271.62" y="368.0"/>
      <point x="271.62" y="401.52" type="curve" smooth="yes"/>
      <point x="271.62" y="430.34"/>
      <point x="285.32" y="452.86"/>
      <point x="318.74" y="479.12" type="curve" smooth="yes"/>
      <point x="373.64" y="520.7"/>
      <point x="392.06" y="556.56"/>
      <point x="392.06" y="609.72" type="curve" smooth="yes"/>
      <point x="392.06" y="698.38"/>
      <point x="336.58" y="750.0"/>
      <point x="233.86" y="750.0" type="curve" smooth="yes"/>
      <point x="122.76" y="750.0"/>
      <point x="60.68" y="674.1"/>
      <point x="60.68" y="549.4" type="curve" smooth="yes"/>
      <point x="60.68" y="503.92" type="line"/>
      <point x="8.42" y="497.06" type="line"/>
      <point x="8.42" y="428.02" type="line"/>
      <point x="60.68" y="428.02" type="line"/>
    </contour>
  </outline>
</glyph>
<glyph name="ae" format="2">
  <advance width="481.13"/>
  <unicode hex="00E6"/>
  <anchor x="240.85" y="538.6" name="top"/>
  <outline>
    <contour>
      <point x="112.2" y="-10.0" type="curve" smooth="yes"/>
      <point x="156.37" y="-10.0"/>
      <point x="192.37" y="10.129999999999999"/>
      <point x="231.53" y="55.12" type="curve"/>
      <point x="232.53" y="55.12" type="line"/>
      <point x="258.56" y="10.85"/>
      <point x="292.87" y="-10.0"/>
      <point x="343.04" y="-10.0" type="curve" smooth="yes"/>
      <point x="382.78999999999996" y="-10.0"/>
      <point x="419.97" y="-1.56"/>
      <point x="456.59000000000003" y="15.459999999999999" type="curve"/>
      <point x="443.42" y="94.09" type="line"/>
      <point x="413.97" y="83.66"/>
      <point x="379.51" y="76.94"/>
      <point x="358.23" y="76.94" type="curve" smooth="yes"/>
      <point x="301.97" y="76.94"/>
      <point x="277.83" y="114.72999999999999"/>
      <point x="277.83" y="237.05" type="curve" smooth="yes"/>
      <point x="277.83" y="241.76"/>
      <point x="277.83" y="246.04"/>
      <point x="277.83" y="250.75" type="curve"/>
      <point x="349.07" y="252.9"/>
      <point x="424.71" y="265.47"/>
      <point x="461.86" y="271.47" type="curve"/>
      <point x="462.28999999999996" y="282.21"/>
      <point x="463.28999999999996" y="298.25"/>
      <point x="463.28999999999996" y="313.82" type="curve" smooth="yes"/>
      <point x="463.28999999999996" y="477.46"/>
      <point x="424.12" y="548.6"/>
      <point x="331.31" y="548.6" type="curve" smooth="yes"/>
      <point x="287.75" y="548.6"/>
      <point x="258.03" y="521.07"/>
      <point x="238.0" y="473.56" type="curve"/>
      <point x="237.0" y="473.56" type="line"/>
      <point x="220.8" y="522.64"/>
      <point x="189.22" y="548.6"/>
      <point x="138.95" y="548.6" type="curve" smooth="yes"/>
      <point x="105.35" y="548.6"/>
      <point x="61.86" y="539.3"/>
      <point x="28.12" y="524.86" type="curve"/>
      <point x="48.019999999999996" y="443.36" type="line"/>
      <point x="84.64" y="456.23"/>
      <point x="111.50999999999999" y="458.51"/>
      <point x="132.07" y="458.51" type="curve" smooth="yes"/>
      <point x="169.04" y="458.51"/>
      <point x="190.46" y="435.11"/>
      <point x="190.46" y="388.75" type="curve" smooth="yes"/>
      <point x="190.46" y="316.5" type="line"/>
      <point x="57.29" y="286.83"/>
      <point x="6.85" y="237.12"/>
      <point x="6.85" y="130.94" type="curve" smooth="yes"/>
      <point x="6.85" y="42.89"/>
      <point x="46.59" y="-10.0"/>
    </contour>
    <contour>
      <point x="137.85" y="63.18" type="curve" smooth="yes"/>
      <point x="109.03999999999999" y="63.18"/>
      <point x="91.35" y="90.86"/>
      <point x="91.35" y="141.53" type="curve" smooth="yes"/>
      <point x="91.35" y="203.61"/>
      <point x="122.28999999999999" y="239.7"/>
      <point x="190.89" y="259.23" type="curve"/>
      <point x="190.89" y="248.94"/>
      <point x="190.89" y="237.93"/>
      <point x="190.89" y="227.64" type="curve" smooth="yes"/>
      <point x="190.89" y="178.86"/>
      <point x="194.88" y="137.91"/>
      <point x="198.87" y="107.94" type="curve"/>
      <point x="182.48" y="81.0"/>
      <point x="157.81" y="63.18"/>
    </contour>
    <contour>
      <point x="276.97" y="307.45" type="curve"/>
      <point x="275.68" y="430.63"/>
      <point x="293.22" y="475.99"/>
      <point x="327.3" y="475.99" type="curve" smooth="yes"/>
      <point x="361.53" y="475.99"/>
      <point x="377.07" y="428.63"/>
      <point x="377.93" y="318.0" type="curve"/>
      <point x="359.11" y="312.44"/>
      <point x="307.90999999999997" y="307.45"/>
    </contour>
  </outline>
</glyph>
<glyph name="eth" format="2">
  <advance width="317.08"/>
  <unicode hex="00F0"/>
  <outline>
    <contour>
      <point x="223.48" y="457.14" type="curve"/>
      <point x="228.92" y="523.58" type="line"/>
      <point x="211.62" y="534.0"/>
      <point x="189.9" y="540.0"/>
      <point x="167.76" y="540.0" type="curve" smooth="yes"/>
      <point x="60.42" y="540.0"/>
      <point x="21.259999999999998" y="452.84"/>
      <point x="21.259999999999998" y="251.7" type="curve" smooth="yes"/>
      <point x="21.259999999999998" y="65.16"/>
      <point x="61.88" y="-10.0"/>
      <point x="156.82" y="-10.0" type="curve" smooth="yes"/>
      <point x="264.36" y="-10.0"/>
      <point x="298.4" y="68.74"/>
      <point x="298.4" y="332.62" type="curve" smooth="yes"/>
      <point x="298.4" y="606.6"/>
      <point x="250.3" y="727.2"/>
      <point x="109.36" y="727.2" type="curve" smooth="yes"/>
      <point x="77.18" y="727.2"/>
      <point x="50.28" y="719.9"/>
      <point x="22.84" y="710.32" type="curve"/>
      <point x="34.86" y="651.18" type="line"/>
      <point x="53.0" y="657.18"/>
      <point x="69.3" y="661.9"/>
      <point x="90.16" y="661.9" type="curve" smooth="yes"/>
      <point x="186.46" y="661.9"/>
      <point x="210.6" y="593.96"/>
      <point x="210.6" y="344.38" type="curve" smooth="yes"/>
      <point x="210.6" y="105.8"/>
      <point x="200.48" y="56.16"/>
      <point x="160.4" y="56.16" type="curve" smooth="yes"/>
      <point x="122.18" y="56.16"/>
      <point x="110.92" y="104.96000000000001"/>
      <point x="110.92" y="251.7" type="curve" smooth="yes"/>
      <point x="110.92" y="423.92"/>
      <point x="130.74" y="472.12"/>
      <point x="181.52" y="472.12" type="curve" smooth="yes"/>
      <point x="194.36" y="472.12"/>
      <point x="209.2" y="469.12"/>
    </contour>
    <contour>
      <point x="115.44" y="560.84" type="line"/>
      <point x="199.24" y="634.22" type="line"/>
      <point x="202.24" y="641.24" type="line"/>
      <point x="304.06" y="730.62" type="line"/>
      <point x="233.62" y="730.62" type="line"/>
      <point x="176.32" y="681.18" type="line"/>
      <point x="177.48" y="677.46" type="line"/>
      <point x="44.86" y="560.84" type="line"/>
    </contour>
  </outline>
</glyph>
<glyph name="divide" format="2">
  <advance width="391.5"/>
  <unicode hex="00F7"/>
  <outline>
    <contour>
      <point x="149.5" y="132.0" type="curve" smooth="yes"/>
      <point x="149.5" y="97.94"/>
      <point x="161.54" y="84.03999999999999"/>
      <point x="196.18" y="84.03999999999999" type="curve" smooth="yes"/>
      <point x="229.96" y="84.03999999999999"/>
      <point x="242.86" y="97.94"/>
      <point x="242.86" y="132.0" type="curve" smooth="yes"/>
      <point x="242.86" y="166.06"/>
      <point x="229.82" y="179.95999999999998"/>
      <point x="196.18" y="179.95999999999998" type="curve" smooth="yes"/>
      <point x="161.54" y="179.95999999999998"/>
      <point x="149.5" y="166.06"/>
    </contour>
    <contour>
      <point x="149.5" y="481.26" type="curve" smooth="yes"/>
      <point x="149.5" y="447.2"/>
      <point x="161.68" y="434.16"/>
      <point x="196.18" y="434.16" type="curve" smooth="yes"/>
      <point x="229.96" y="434.16"/>
      <point x="242.86" y="447.2"/>
      <point x="242.86" y="481.26" type="curve" smooth="yes"/>
      <point x="242.86" y="516.18"/>
      <point x="229.96" y="529.22"/>
      <point x="196.18" y="529.22" type="curve" smooth="yes"/>
      <point x="161.54" y="529.22"/>
      <point x="149.5" y="516.18"/>
    </contour>
    <contour>
      <point x="40.72" y="266.96" type="line"/>
      <point x="351.64" y="266.96" type="line"/>
      <point x="351.64" y="347.15999999999997" type="line"/>
      <point x="40.72" y="347.15999999999997" type="line"/>
    </contour>
  </outline>
</glyph>
<glyph name="oslash" format="2">
  <advance width="324.24"/>
  <unicode hex="00F8"/>
  <anchor x="160.4" y="538.6" name="top"/>
  <outline>
    <contour>
      <point x="160.4" y="-10.0" type="curve" smooth="yes"/>
      <point x="49.26" y="-10.0"/>
      <point x="20.4" y="76.68"/>
      <point x="20.4" y="270.16" type="curve" smooth="yes"/>
      <point x="20.4" y="463.64"/>
      <point x="49.26" y="548.6"/>
      <point x="160.4" y="548.6" type="curve" smooth="yes"/>
      <point x="271.53999999999996" y="548.6"/>
      <point x="301.26" y="463.64"/>
      <point x="301.26" y="270.16" type="curve" smooth="yes"/>
      <point x="301.26" y="76.68"/>
      <point x="271.53999999999996" y="-10.0"/>
    </contour>
    <contour>
      <point x="161.26" y="66.47999999999999" type="curve" smooth="yes"/>
      <point x="201.64" y="66.47999999999999"/>
      <point x="215.9" y="100.42"/>
      <point x="215.9" y="270.16" type="curve" smooth="yes"/>
      <point x="215.9" y="439.9"/>
      <point x="201.64" y="472.98"/>
      <point x="161.26" y="472.98" type="curve" smooth="yes"/>
      <point x="120.02" y="472.98"/>
      <point x="106.62" y="439.9"/>
      <point x="106.62" y="270.16" type="curve" smooth="yes"/>
      <point x="106.62" y="100.42"/>
      <point x="120.02" y="66.47999999999999"/>
    </contour>
    <contour>
      <point x="18.4" y="-5.7" type="line"/>
      <point x="72.36" y="124.06" type="line"/>
      <point x="77.8" y="122.34" type="line"/>
      <point x="218.1" y="492.86" type="line"/>
      <point x="225.26" y="491.14" type="line"/>
      <point x="248.86" y="548.6" type="line"/>
      <point x="303.26" y="548.6" type="line"/>
      <point x="259.48" y="442.5" type="line"/>
      <point x="253.18" y="444.22" type="line"/>
      <point x="107.86" y="61.22" type="line"/>
      <point x="100.7" y="62.94" type="line"/>
      <point x="72.8" y="-5.7" type="line"/>
    </contour>
  </outline>
</glyph>
<glyph name="thorn" format="2">
  <advance width="324.37"/>
  <unicode hex="00FE"/>
  <outline>
    <contour>
      <point x="33.25" y="-210.0" type="line"/>
      <point x="119.03999999999999" y="-210.0" type="line"/>
      <point x="119.03999999999999" y="-5.4399999999999995" type="line"/>
      <point x="131.16" y="-8.86"/>
      <point x="140.57" y="-10.0"/>
      <point x="149.84" y="-10.0" type="curve" smooth="yes"/>
      <point x="262.22" y="-10.0"/>
      <point x="303.53999999999996" y="69.15"/>
      <point x="303.53999999999996" y="283.74" type="curve" smooth="yes"/>
      <point x="303.53999999999996" y="460.76"/>
      <point x="266.24" y="548.6"/>
      <point x="188.76" y="548.6" type="curve" smooth="yes"/>
      <point x="166.62" y="548.6"/>
      <point x="136.76" y="538.74"/>
      <point x="119.9" y="526.45" type="curve"/>
      <point x="119.9" y="740.0" type="line"/>
      <point x="33.25" y="740.0" type="line"/>
    </contour>
    <contour>
      <point x="148.71" y="62.47" type="curve" smooth="yes"/>
      <point x="141.01" y="62.47"/>
      <point x="134.59" y="64.03999999999999"/>
      <point x="120.33" y="68.32" type="curve"/>
      <point x="120.33" y="450.12" type="line"/>
      <point x="136.3" y="461.53"/>
      <point x="145.28" y="465.24"/>
      <point x="160.54" y="465.24" type="curve" smooth="yes"/>
      <point x="195.34" y="465.24"/>
      <point x="212.16" y="407.91"/>
      <point x="212.16" y="274.71" type="curve" smooth="yes"/>
      <point x="212.16" y="109.25999999999999"/>
      <point x="197.05" y="62.47"/>
    </contour>
  </outline>
</glyph>
<glyph name="Dcroat" format="2">
  <advance width="354.63"/>
  <unicode hex="0110"/>
  <outline>
    <contour>
      <point x="2.7" y="314.74" type="line"/>
      <point x="192.35" y="314.74" type="line"/>
      <point x="192.35" y="396.23" type="line"/>
      <point x="2.7" y="396.23" type="line"/>
    </contour>
    <component base="D" xOffset="3.99"/>
  </outline>
</glyph>
<glyph name="dcroat" format="2">
  <advance width="327.81"/>
  <unicode hex="0111"/>
  <outline>
    <contour>
      <point x="126.9" y="612.41" type="line"/>
      <point x="331.83" y="612.41" type="line"/>
      <point x="331.83" y="667.39" type="line"/>
      <point x="126.9" y="667.39" type="line"/>
    </contour>
    <component base="d"/>
  </outline>
</glyph>
<glyph name="Hbar" format="2">
  <advance width="361.75"/>
  <unicode hex="0126"/>
  <outline>
    <contour>
      <point x="6.12" y="502.43" type="line"/>
      <point x="33.97" y="502.43" type="line"/>
      <point x="33.97" y="0.0" type="line"/>
      <point x="120.62" y="0.0" type="line"/>
      <point x="120.62" y="263.91" type="line"/>
      <point x="241.13" y="263.91" type="line"/>
      <point x="241.13" y="0.0" type="line"/>
      <point x="327.78" y="0.0" type="line"/>
      <point x="327.78" y="502.43" type="line"/>
      <point x="355.63" y="502.43" type="line"/>
      <point x="355.63" y="575.33" type="line"/>
      <point x="327.78" y="575.33" type="line"/>
      <point x="327.78" y="700.0" type="line"/>
      <point x="241.13" y="700.0" type="line"/>
      <point x="241.13" y="575.33" type="line"/>
      <point x="120.62" y="575.33" type="line"/>
      <point x="120.62" y="700.0" type="line"/>
      <point x="33.97" y="700.0" type="line"/>
      <point x="33.97" y="575.33" type="line"/>
      <point x="6.12" y="575.33" type="line"/>
    </contour>
    <contour>
      <point x="120.62" y="354.29" type="line"/>
      <point x="120.62" y="502.43" type="line"/>
      <point x="241.13" y="502.43" type="line"/>
      <point x="241.13" y="354.29" type="line"/>
    </contour>
  </outline>
</glyph>
<glyph name="hbar" format="2">
  <advance width="327.65"/>
  <unicode hex="0127"/>
  <outline>
    <contour>
      <point x="-1.7299999999999995" y="612.41" type="line"/>
      <point x="194.17000000000002" y="612.41" type="line"/>
      <point x="194.17000000000002" y="667.39" type="line"/>
      <point x="-1.7299999999999995" y="667.39" type="line"/>
    </contour>
    <component base="h"/>
  </outline>
</glyph>
<glyph name="Idotaccent" format="2">
  <advance width="154.59"/>
  <unicode hex="0130"/>
  <outline>
    <contour>
      <point x="77.94" y="769.16" type="curve" smooth="yes"/>
      <point x="113.44" y="769.16"/>
      <point x="128.06" y="785.64"/>
      <point x="128.06" y="826.15" type="curve" smooth="yes"/>
      <point x="128.06" y="867.52"/>
      <point x="112.58" y="883.57"/>
      <point x="77.94" y="883.57" type="curve" smooth="yes"/>
      <point x="42.87" y="883.57"/>
      <point x="27.39" y="867.52"/>
      <point x="27.39" y="826.15" type="curve" smooth="yes"/>
      <point x="27.39" y="785.21"/>
      <point x="43.44" y="769.16"/>
    </contour>
    <component base="I"/>
  </outline>
</glyph>
<glyph name="dotlessi" format="2">
  <advance width="154.44"/>
  <unicode hex="0131"/>
  <anchor x="119.47" y="4.3" name="ogonek"/>
  <anchor x="78.08" y="0.0" name="bottom"/>
  <anchor x="77.22" y="538.6" name="top"/>
  <outline>
    <contour>
      <point x="33.25" y="0.0" type="line"/>
      <point x="121.19" y="0.0" type="line"/>
      <point x="121.19" y="538.6" type="line"/>
      <point x="33.25" y="538.6" type="line"/>
    </contour>
  </outline>
</glyph>
<glyph name="kgreenlandic" format="2">
  <advance width="308.8"/>
  <unicode hex="0138"/>
  <anchor x="161.54" y="538.6" name="top"/>
  <anchor x="161.54" y="0.0" name="bottom"/>
  <outline>
    <contour>
      <point x="284.44" y="-7.72" type="curve" smooth="yes"/>
      <point x="293.88" y="-7.72"/>
      <point x="303.32" y="-6.58"/>
      <point x="312.48" y="-3.7199999999999998" type="curve"/>
      <point x="311.34" y="92.67999999999999" type="line"/>
      <point x="308.2" y="92.53999999999999"/>
      <point x="304.06" y="91.53999999999999"/>
      <point x="300.92" y="91.53999999999999" type="curve" smooth="yes"/>
      <point x="280.76" y="91.53999999999999"/>
      <point x="269.02" y="104.14"/>
      <point x="212.88" y="205.95999999999998" type="curve" smooth="yes"/>
      <point x="115.6" y="382.04" type="line"/>
      <point x="115.6" y="538.6" type="line"/>
      <point x="33.68" y="538.6" type="line"/>
      <point x="33.68" y="0.0" type="line"/>
      <point x="115.6" y="0.0" type="line"/>
      <point x="115.6" y="228.38" type="line"/>
      <point x="185.12" y="97.5" type="line" smooth="yes"/>
      <point x="233.94" y="6.4399999999999995"/>
      <point x="249.26" y="-7.72"/>
    </contour>
    <contour>
      <point x="172.82" y="225.68" type="line"/>
      <point x="230.72" y="315.02"/>
      <point x="286.28" y="420.34"/>
      <point x="301.4" y="534.58" type="curve"/>
      <point x="217.18" y="542.44" type="line"/>
      <point x="204.5" y="425.5"/>
      <point x="166.7" y="357.26"/>
      <point x="120.68" y="286.1" type="curve"/>
    </contour>
  </outline>
</glyph>
<glyph name="Ldot" format="2">
  <advance width="266.90999999999997"/>
  <unicode hex="013F"/>
  <outline>
    <contour>
      <point x="178.4" y="373.77" type="curve" smooth="yes"/>
      <point x="178.4" y="343.15"/>
      <point x="186.71" y="331.83"/>
      <point x="211.75" y="331.83" type="curve" smooth="yes"/>
      <point x="237.79" y="331.83"/>
      <point x="245.53" y="343.15"/>
      <point x="245.53" y="373.77" type="curve" smooth="yes"/>
      <point x="245.53" y="404.82"/>
      <point x="237.79" y="416.14"/>
      <point x="211.75" y="416.14" type="curve" smooth="yes"/>
      <point x="186.14" y="416.14"/>
      <point x="178.4" y="404.82"/>
    </contour>
    <component base="L"/>
  </outline>
</glyph>
<glyph name="ldot" format="2">
  <advance width="231.04"/>
  <unicode hex="0140"/>
  <outline>
    <contour>
      <point x="190.81" y="322.37" type="curve" smooth="yes"/>
      <point x="214.7" y="322.37"/>
      <point x="225.01999999999998" y="332.83"/>
      <point x="225.01999999999998" y="365.17" type="curve" smooth="yes"/>
      <point x="225.01999999999998" y="397.94"/>
      <point x="214.7" y="408.4"/>
      <point x="190.81" y="408.4" type="curve" smooth="yes"/>
      <point x="167.35" y="408.4"/>
      <point x="157.03" y="397.94"/>
      <point x="157.03" y="365.17" type="curve" smooth="yes"/>
      <point x="157.03" y="332.83"/>
      <point x="167.92000000000002" y="322.37"/>
    </contour>
    <component base="l"/>
  </outline>
</glyph>
<glyph name="Lslash" format="2">
  <advance width="287.9"/>
  <unicode hex="0141"/>
  <outline>
    <contour>
      <point x="16.259999999999998" y="212.71" type="line"/>
      <point x="54.96" y="245.96" type="line"/>
      <point x="54.96" y="0.0" type="line"/>
      <point x="281.32" y="0.0" type="line"/>
      <point x="281.32" y="87.37" type="line"/>
      <point x="142.04" y="87.37" type="line"/>
      <point x="142.04" y="295.35" type="line"/>
      <point x="248.86" y="384.39" type="line"/>
      <point x="248.86" y="474.03" type="line"/>
      <point x="142.04" y="385.56" type="line"/>
      <point x="142.04" y="700.0" type="line"/>
      <point x="54.96" y="700.0" type="line"/>
      <point x="54.96" y="336.17" type="line"/>
      <point x="16.259999999999998" y="302.92" type="line"/>
    </contour>
  </outline>
</glyph>
<glyph name="lslash" format="2">
  <advance width="188.9"/>
  <unicode hex="0142"/>
  <outline>
    <contour>
      <point x="128.53" y="-10.0" type="curve" smooth="yes"/>
      <point x="148.71" y="-10.0"/>
      <point x="168.88" y="-2.84"/>
      <point x="182.6" y="5.17" type="curve"/>
      <point x="176.01999999999998" y="90.39" type="line"/>
      <point x="165.32" y="87.11"/>
      <point x="158.18" y="86.11"/>
      <point x="153.04" y="86.11" type="curve" smooth="yes"/>
      <point x="135.76999999999998" y="86.11"/>
      <point x="125.49000000000001" y="95.96"/>
      <point x="125.49000000000001" y="161.87" type="curve" smooth="yes"/>
      <point x="125.49000000000001" y="311.99" type="line"/>
      <point x="183.74" y="367.09" type="line"/>
      <point x="183.74" y="446.84000000000003" type="line"/>
      <point x="125.49000000000001" y="391.74" type="line"/>
      <point x="125.49000000000001" y="740.0" type="line"/>
      <point x="38.84" y="740.0" type="line"/>
      <point x="38.84" y="314.40999999999997" type="line"/>
      <point x="1.29" y="279.15" type="line"/>
      <point x="1.29" y="199.97" type="line"/>
      <point x="38.84" y="234.66" type="line"/>
      <point x="38.84" y="141.66" type="line" smooth="yes"/>
      <point x="38.84" y="22.77"/>
      <point x="66.59" y="-10.0"/>
    </contour>
  </outline>
</glyph>
<glyph name="Eng" format="2">
  <advance width="367.07"/>
  <unicode hex="014A"/>
  <outline>
    <contour>
      <point x="33.97" y="0.0" type="line"/>
      <point x="111.59" y="0.0" type="line"/>
      <point x="111.59" y="476.35" type="line"/>
      <point x="248.17" y="0.9800000000000004" type="line"/>
      <point x="248.17" y="-10.85" type="line" smooth="yes"/>
      <point x="248.17" y="-55.91"/>
      <point x="228.48" y="-74.6"/>
      <point x="188.54" y="-74.6" type="curve" smooth="yes"/>
      <point x="181.81" y="-74.6"/>
      <point x="174.94" y="-74.6"/>
      <point x="165.63" y="-70.73" type="curve"/>
      <point x="151.44" y="-152.51" type="line"/>
      <point x="165.05" y="-160.68"/>
      <point x="181.81" y="-167.56"/>
      <point x="208.75" y="-167.56" type="curve" smooth="yes"/>
      <point x="300.9" y="-167.56"/>
      <point x="333.1" y="-107.68"/>
      <point x="333.1" y="-12.58" type="curve" smooth="yes"/>
      <point x="333.1" y="700.0" type="line"/>
      <point x="255.48" y="700.0" type="line"/>
      <point x="255.48" y="212.17" type="line"/>
      <point x="125.21000000000001" y="700.0" type="line"/>
      <point x="33.97" y="700.0" type="line"/>
    </contour>
  </outline>
</glyph>
<glyph name="eng" format="2">
  <advance width="328.08"/>
  <unicode hex="014B"/>
  <outline>
    <contour>
      <point x="295.69" y="16.15" type="curve"/>
      <point x="295.69" y="439.55" type="line" smooth="yes"/>
      <point x="295.69" y="513.42"/>
      <point x="261.12" y="548.6"/>
      <point x="206.93" y="548.6" type="curve" smooth="yes"/>
      <point x="172.62" y="548.6"/>
      <point x="138.18" y="536.02"/>
      <point x="113.02" y="515.71" type="curve"/>
      <point x="113.02" y="538.6" type="line"/>
      <point x="33.25" y="538.6" type="line"/>
      <point x="33.25" y="0.0" type="line"/>
      <point x="120.33" y="0.0" type="line"/>
      <point x="120.33" y="446.12" type="line"/>
      <point x="132.31" y="455.96"/>
      <point x="153.26999999999998" y="463.95"/>
      <point x="168.11" y="463.95" type="curve" smooth="yes"/>
      <point x="195.06" y="463.95"/>
      <point x="208.61" y="446.41"/>
      <point x="208.61" y="413.75" type="curve" smooth="yes"/>
      <point x="208.61" y="13.57" type="line" smooth="yes"/>
      <point x="208.61" y="-50.89"/>
      <point x="196.49" y="-90.81"/>
      <point x="174.1" y="-109.05" type="curve" smooth="yes"/>
      <point x="169.96" y="-111.9"/>
      <point x="164.53" y="-113.75"/>
      <point x="160.25" y="-115.03" type="curve"/>
      <point x="161.94" y="-210.72" type="line"/>
      <point x="174.24" y="-210.02"/>
      <point x="186.82999999999998" y="-207.46"/>
      <point x="201.57" y="-204.04" type="curve" smooth="yes"/>
      <point x="261.5" y="-182.95"/>
      <point x="295.69" y="-107.63"/>
    </contour>
  </outline>
</glyph>
<glyph name="OE" format="2">
  <advance width="487.94"/>
  <unicode hex="0152"/>
  <outline>
    <contour>
      <point x="476.51" y="0.0" type="line"/>
      <point x="476.51" y="87.94" type="line"/>
      <point x="317.1" y="87.94" type="line"/>
      <point x="317.1" y="314.73" type="line"/>
      <point x="447.64" y="314.73" type="line"/>
      <point x="447.64" y="398.37" type="line"/>
      <point x="317.1" y="398.37" type="line"/>
      <point x="317.1" y="609.91" type="line"/>
      <point x="466.08" y="609.91" type="line"/>
      <point x="466.08" y="700.0" type="line"/>
      <point x="295.17" y="700.0" type="line"/>
      <point x="264.56" y="705.15"/>
      <point x="231.82" y="706.58"/>
      <point x="201.81" y="706.58" type="curve" smooth="yes"/>
      <point x="77.4" y="706.58"/>
      <point x="19.83" y="629.18"/>
      <point x="19.83" y="351.72" type="curve" smooth="yes"/>
      <point x="19.83" y="66.86"/>
      <point x="80.73" y="-7.72"/>
      <point x="196.09" y="-7.72" type="curve" smooth="yes"/>
      <point x="226.69" y="-7.72"/>
      <point x="269.75" y="-6.15"/>
      <point x="316.67" y="0.0" type="curve"/>
    </contour>
    <contour>
      <point x="230.02" y="79.21000000000001" type="line"/>
      <point x="218.89" y="77.21000000000001"/>
      <point x="205.76" y="75.78"/>
      <point x="195.77" y="75.78" type="curve" smooth="yes"/>
      <point x="136.29" y="75.78"/>
      <point x="110.06" y="124.49000000000001"/>
      <point x="110.06" y="350.0" type="curve" smooth="yes"/>
      <point x="110.06" y="580.51"/>
      <point x="136.14" y="622.79"/>
      <point x="200.05" y="622.79" type="curve" smooth="yes"/>
      <point x="210.33" y="622.79"/>
      <point x="217.17" y="621.36"/>
      <point x="230.02" y="619.36" type="curve"/>
    </contour>
  </outline>
</glyph>
<glyph name="oe" format="2">
  <advance width="507.57"/>
  <unicode hex="0153"/>
  <outline>
    <contour>
      <point x="20.83" y="269.73" type="curve" smooth="yes"/>
      <point x="20.83" y="76.25"/>
      <point x="50.12" y="-10.0"/>
      <point x="161.26" y="-10.0" type="curve" smooth="yes"/>
      <point x="212.67" y="-10.0"/>
      <point x="237.41" y="17.97"/>
      <point x="256.43" y="74.44" type="curve"/>
      <point x="278.32" y="18.54"/>
      <point x="310.76" y="-10.0"/>
      <point x="371.62" y="-10.0" type="curve" smooth="yes"/>
      <point x="408.25" y="-10.0"/>
      <point x="448.28" y="-0.56"/>
      <point x="482.17" y="15.459999999999999" type="curve"/>
      <point x="469.0" y="94.95" type="line"/>
      <point x="431.25" y="82.23"/>
      <point x="398.78999999999996" y="77.8"/>
      <point x="382.09000000000003" y="77.8" type="curve" smooth="yes"/>
      <point x="337.55" y="77.8"/>
      <point x="300.83" y="105.88"/>
      <point x="300.83" y="219.95" type="curve" smooth="yes"/>
      <point x="300.83" y="230.93"/>
      <point x="300.83" y="242.05"/>
      <point x="300.83" y="253.03" type="curve"/>
      <point x="374.65" y="255.18"/>
      <point x="454.15999999999997" y="265.9"/>
      <point x="488.3" y="271.47" type="curve"/>
      <point x="488.73" y="281.35"/>
      <point x="489.73" y="297.39"/>
      <point x="489.73" y="313.82" type="curve" smooth="yes"/>
      <point x="489.73" y="474.84"/>
      <point x="450.87" y="548.6"/>
      <point x="352.88" y="548.6" type="curve" smooth="yes"/>
      <point x="305.04" y="548.6"/>
      <point x="279.45" y="519.77"/>
      <point x="259.29" y="461.87" type="curve"/>
      <point x="236.69" y="520.49"/>
      <point x="210.52" y="548.6"/>
      <point x="161.26" y="548.6" type="curve" smooth="yes"/>
      <point x="50.12" y="548.6"/>
      <point x="20.83" y="463.21"/>
    </contour>
    <contour>
      <point x="110.49000000000001" y="269.73" type="curve" smooth="yes"/>
      <point x="110.49000000000001" y="434.31"/>
      <point x="123.46000000000001" y="466.96"/>
      <point x="161.26" y="466.96" type="curve" smooth="yes"/>
      <point x="198.63" y="466.96"/>
      <point x="212.03" y="434.31"/>
      <point x="212.03" y="269.73" type="curve" smooth="yes"/>
      <point x="212.03" y="105.15"/>
      <point x="198.63" y="72.07"/>
      <point x="161.26" y="72.07" type="curve" smooth="yes"/>
      <point x="123.46000000000001" y="72.07"/>
      <point x="110.49000000000001" y="105.15"/>
    </contour>
    <contour>
      <point x="300.83" y="309.73" type="curve"/>
      <point x="304.82" y="452.18"/>
      <point x="321.93" y="475.99"/>
      <point x="352.45" y="475.99" type="curve" smooth="yes"/>
      <point x="381.54" y="475.99"/>
      <point x="403.51" y="439.47"/>
      <point x="403.51" y="318.0" type="curve"/>
      <point x="386.24" y="314.15"/>
      <point x="339.04" y="309.73"/>
    </contour>
  </outline>
</glyph>
<glyph name="uni0162" format="2">
  <advance width="303.65999999999997"/>
  <unicode hex="0162"/>
  <outline>
    <contour>
      <point x="80.15" y="-151.14" type="curve"/>
      <point x="76.59" y="-210.0" type="line"/>
      <point x="94.32" y="-218.0"/>
      <point x="111.33" y="-220.0"/>
      <point x="126.49" y="-220.0" type="curve" smooth="yes"/>
      <point x="183.28" y="-220.0"/>
      <point x="202.3" y="-178.84"/>
      <point x="202.3" y="-128.8" type="curve" smooth="yes"/>
      <point x="202.3" y="-90.24"/>
      <point x="185.16" y="-33.1"/>
      <point x="174.73" y="2.58" type="curve"/>
      <point x="120.33" y="2.58" type="line"/>
      <point x="135.18" y="-37.79"/>
      <point x="146.89" y="-81.48"/>
      <point x="146.89" y="-109.02000000000001" type="curve" smooth="yes"/>
      <point x="146.89" y="-139.86"/>
      <point x="131.88" y="-157.42000000000002"/>
      <point x="111.31" y="-157.42000000000002" type="curve" smooth="yes"/>
      <point x="101.45" y="-157.42000000000002"/>
      <point x="92.45" y="-155.28"/>
    </contour>
    <component base="T"/>
  </outline>
</glyph>
<glyph name="Tbar" format="2">
  <advance width="303.65999999999997"/>
  <unicode hex="0166"/>
  <outline>
    <contour>
      <point x="37.75" y="315.39" type="line"/>
      <point x="108.72" y="315.39" type="line"/>
      <point x="108.72" y="0.0" type="line"/>
      <point x="195.37" y="0.0" type="line"/>
      <point x="195.37" y="315.39" type="line"/>
      <point x="265.05" y="315.39" type="line"/>
      <point x="265.05" y="397.31" type="line"/>
      <point x="195.37" y="397.31" type="line"/>
      <point x="195.37" y="610.91" type="line"/>
      <point x="296.51" y="610.91" type="line"/>
      <point x="296.51" y="700.0" type="line"/>
      <point x="7.15" y="700.0" type="line"/>
      <point x="7.15" y="610.91" type="line"/>
      <point x="108.72" y="610.91" type="line"/>
      <point x="108.72" y="397.31" type="line"/>
      <point x="37.75" y="397.31" type="line"/>
    </contour>
  </outline>
</glyph>
<glyph name="tbar" format="2">
  <advance width="233.0"/>
  <unicode hex="0167"/>
  <outline>
    <contour>
      <point x="139.48" y="282.18" type="line"/>
      <point x="212.4" y="282.18" type="line"/>
      <point x="212.4" y="351.78" type="line"/>
      <point x="139.48" y="351.78" type="line"/>
      <point x="139.48" y="463.7" type="line"/>
      <point x="224.12" y="463.7" type="line"/>
      <point x="224.12" y="538.6" type="line"/>
      <point x="139.48" y="538.6" type="line"/>
      <point x="139.48" y="660.7" type="line"/>
      <point x="66.0" y="660.7" type="line"/>
      <point x="53.26" y="538.6" type="line"/>
      <point x="7.14" y="532.6" type="line"/>
      <point x="7.14" y="463.7" type="line"/>
      <point x="53.26" y="463.7" type="line"/>
      <point x="53.26" y="351.78" type="line"/>
      <point x="16.28" y="351.78" type="line"/>
      <point x="16.28" y="282.18" type="line"/>
      <point x="53.26" y="282.18" type="line"/>
      <point x="53.26" y="141.54" type="line" smooth="yes"/>
      <point x="53.26" y="47.3"/>
      <point x="79.02" y="-10.0"/>
      <point x="158.32" y="-10.0" type="curve" smooth="yes"/>
      <point x="179.92" y="-10.0"/>
      <point x="207.82" y="-8.0"/>
      <point x="236.0" y="4.74" type="curve"/>
      <point x="221.68" y="78.64" type="line"/>
      <point x="206.68" y="74.5"/>
      <point x="196.26" y="73.5"/>
      <point x="188.42000000000002" y="73.5" type="curve" smooth="yes"/>
      <point x="154.9" y="73.5"/>
      <point x="139.48" y="93.03999999999999"/>
      <point x="139.48" y="151.0" type="curve" smooth="yes"/>
    </contour>
  </outline>
</glyph>
<glyph name="uogonek" format="2">
  <advance width="339.52"/>
  <unicode hex="0173"/>
  <outline>
    <contour>
      <point x="300.59" y="-214.12" type="curve" smooth="yes"/>
      <point x="320.05" y="-214.12"/>
      <point x="333.21" y="-210.69"/>
      <point x="345.51" y="-204.4" type="curve"/>
      <point x="338.65" y="-137.51" type="line"/>
      <point x="333.94" y="-140.22"/>
      <point x="328.94" y="-141.22"/>
      <point x="322.51" y="-141.22" type="curve" smooth="yes"/>
      <point x="308.94" y="-141.22"/>
      <point x="297.8" y="-132.22"/>
      <point x="297.8" y="-106.25" type="curve" smooth="yes"/>
      <point x="297.8" y="-70.15"/>
      <point x="309.51" y="-36.92"/>
      <point x="339.8" y="5.88" type="curve"/>
      <point x="331.08" y="84.8" type="line"/>
      <point x="324.09000000000003" y="81.52"/>
      <point x="316.38" y="79.95"/>
      <point x="309.53" y="79.95" type="curve" smooth="yes"/>
      <point x="299.11" y="79.95"/>
      <point x="294.4" y="86.23"/>
      <point x="294.4" y="104.95" type="curve" smooth="yes"/>
      <point x="294.4" y="538.6" type="line"/>
      <point x="207.75" y="538.6" type="line"/>
      <point x="207.75" y="92.47999999999999" type="line"/>
      <point x="195.34" y="81.78"/>
      <point x="173.95" y="74.65"/>
      <point x="159.97" y="74.65" type="curve" smooth="yes"/>
      <point x="134.31" y="74.65"/>
      <point x="119.47" y="90.9"/>
      <point x="119.47" y="124.85" type="curve" smooth="yes"/>
      <point x="119.47" y="538.6" type="line"/>
      <point x="32.39" y="538.6" type="line"/>
      <point x="32.39" y="111.95" type="line" smooth="yes"/>
      <point x="32.39" y="20.02"/>
      <point x="74.27" y="-10.0"/>
      <point x="125.02" y="-10.0" type="curve" smooth="yes"/>
      <point x="158.47" y="-10.0"/>
      <point x="191.62" y="2.58"/>
      <point x="217.63" y="22.740000000000002" type="curve"/>
      <point x="228.37" y="3.87"/>
      <point x="248.96" y="-10.0"/>
      <point x="277.28" y="-10.0" type="curve" smooth="yes"/>
      <point x="286.72" y="-10.0"/>
      <point x="296.3" y="-9.0"/>
      <point x="305.59" y="-7.0" type="curve"/>
      <point x="290.83" y="6.43" type="line"/>
      <point x="248.94" y="-40.92"/>
      <point x="226.05" y="-89.76"/>
      <point x="226.05" y="-135.2" type="curve" smooth="yes"/>
      <point x="226.05" y="-189.09"/>
      <point x="254.66" y="-214.12"/>
    </contour>
  </outline>
</glyph>
<glyph name="longs" format="2">
  <advance width="196.98"/>
  <unicode hex="017F"/>
  <outline>
    <contour>
      <point x="146.9" y="504.49" type="line"/>
      <point x="146.9" y="642.25"/>
      <point x="173.15" y="667.36"/>
      <point x="211.67" y="667.36" type="curve" smooth="yes"/>
      <point x="221.23" y="667.36"/>
      <point x="238.96" y="665.07"/>
      <point x="251.38" y="660.5" type="curve"/>
      <point x="265.27" y="733.54" type="line"/>
      <point x="240.96" y="743.27"/>
      <point x="216.93" y="750.0"/>
      <point x="186.3" y="750.0" type="curve" smooth="yes"/>
      <point x="90.02" y="750.0"/>
      <point x="60.25" y="655.48"/>
      <point x="60.25" y="510.94" type="curve" smooth="yes"/>
      <point x="60.25" y="503.35" type="line"/>
      <point x="8.42" y="496.92" type="line"/>
      <point x="8.42" y="428.02" type="line"/>
      <point x="60.25" y="428.02" type="line"/>
      <point x="60.25" y="0.0" type="line"/>
      <point x="146.9" y="0.0" type="line"/>
    </contour>
  </outline>
</glyph>
<glyph name="uni018F" format="2">
  <advance width="320.9"/>
  <unicode hex="018F"/>
  <outline>
    <contour>
      <point x="45.74" y="602.76" type="line"/>
      <point x="78.9" y="615.34"/>
      <point x="105.18" y="622.34"/>
      <point x="125.34" y="622.34" type="curve" smooth="yes"/>
      <point x="182.7" y="622.34"/>
      <point x="205.82" y="561.74"/>
      <point x="210.98" y="401.74" type="curve" smooth="yes"/>
      <point x="210.98" y="392.6"/>
      <point x="210.98" y="384.32"/>
      <point x="210.98" y="375.18" type="curve"/>
      <point x="129.74" y="370.88"/>
      <point x="69.6" y="359.6"/>
      <point x="19.42" y="350.74" type="curve"/>
      <point x="18.56" y="334.28"/>
      <point x="17.56" y="308.5"/>
      <point x="17.56" y="292.64" type="curve" smooth="yes"/>
      <point x="17.56" y="88.44"/>
      <point x="63.019999999999996" y="-10.0"/>
      <point x="157.1" y="-10.0" type="curve" smooth="yes"/>
      <point x="257.6" y="-10.0"/>
      <point x="300.64" y="102.3"/>
      <point x="300.64" y="365.84" type="curve" smooth="yes"/>
      <point x="300.64" y="599.26"/>
      <point x="251.6" y="710.0"/>
      <point x="151.26" y="710.0" type="curve" smooth="yes"/>
      <point x="107.64" y="710.0"/>
      <point x="66.32" y="699.56"/>
      <point x="31.0" y="678.1" type="curve"/>
    </contour>
    <contour>
      <point x="213.56" y="299.28" type="curve"/>
      <point x="210.14" y="135.57999999999998"/>
      <point x="193.88" y="70.19999999999999"/>
      <point x="154.8" y="70.19999999999999" type="curve" smooth="yes"/>
      <point x="115.44" y="70.19999999999999"/>
      <point x="98.62" y="129.68"/>
      <point x="98.62" y="286.3" type="curve"/>
      <point x="132.56" y="295.0"/>
      <point x="165.07999999999998" y="298.28"/>
    </contour>
  </outline>
</glyph>
<glyph name="florin" format="2">
  <advance width="323.1"/>
  <unicode hex="0192"/>
  <outline>
    <contour>
      <point x="62.19" y="392.17" type="line"/>
      <point x="50.16" y="320.42" type="line"/>
      <point x="100.56" y="320.42" type="line"/>
      <point x="17.009999999999998" y="-210.0" type="line"/>
      <point x="97.36" y="-210.0" type="line"/>
      <point x="180.91" y="320.42" type="line"/>
      <point x="236.73" y="320.42" type="line"/>
      <point x="248.76" y="395.18" type="line"/>
      <point x="192.94" y="395.18" type="line"/>
      <point x="203.37" y="459.48" type="line" smooth="yes"/>
      <point x="223.62" y="582.12"/>
      <point x="242.31" y="621.48"/>
      <point x="277.13" y="621.48" type="curve" smooth="yes"/>
      <point x="285.13" y="621.48"/>
      <point x="292.7" y="619.91"/>
      <point x="305.99" y="615.05" type="curve"/>
      <point x="334.63" y="693.54" type="line"/>
      <point x="312.59" y="705.42"/>
      <point x="293.42" y="710.0"/>
      <point x="268.95" y="710.0" type="curve" smooth="yes"/>
      <point x="195.63" y="710.0"/>
      <point x="153.01" y="643.55"/>
      <point x="124.74" y="469.8" type="curve" smooth="yes"/>
      <point x="112.59" y="395.18" type="line"/>
    </contour>
  </outline>
</glyph>
<glyph name="uni0237" format="2">
  <advance width="152.57999999999998"/>
  <unicode hex="0237"/>
  <anchor x="75.78999999999999" y="538.6" name="top"/>
  <outline>
    <contour>
      <point x="119.33" y="10.129999999999999" type="curve" smooth="yes"/>
      <point x="119.33" y="538.6" type="line"/>
      <point x="32.68" y="538.6" type="line"/>
      <point x="32.68" y="17.009999999999998" type="line"/>
      <point x="32.68" y="-56.91"/>
      <point x="18.84" y="-98.55000000000001"/>
      <point x="-10.0" y="-116.78999999999999" type="curve" smooth="yes"/>
      <point x="-18.009999999999998" y="-119.64"/>
      <point x="-25.16" y="-120.63"/>
      <point x="-35.03" y="-120.19" type="curve"/>
      <point x="-41.51" y="-205.99" type="line"/>
      <point x="-21.47" y="-208.3"/>
      <point x="-3.7199999999999998" y="-207.46"/>
      <point x="13.17" y="-204.04" type="curve" smooth="yes"/>
      <point x="88.58" y="-182.95"/>
      <point x="119.33" y="-114.08"/>
    </contour>
  </outline>
</glyph>
<glyph name="uni0259" format="2">
  <advance width="312.24"/>
  <unicode hex="0259"/>
  <outline>
    <contour>
      <point x="15.57" y="267.13" type="curve"/>
      <point x="14.57" y="253.97"/>
      <point x="14.14" y="237.36"/>
      <point x="14.14" y="224.78" type="curve" smooth="yes"/>
      <point x="14.14" y="63.76"/>
      <point x="53.0" y="-10.0"/>
      <point x="150.99" y="-10.0" type="curve" smooth="yes"/>
      <point x="245.95" y="-10.0"/>
      <point x="291.40999999999997" y="66.64"/>
      <point x="291.40999999999997" y="281.29" type="curve" smooth="yes"/>
      <point x="291.40999999999997" y="471.56"/>
      <point x="245.24" y="548.6"/>
      <point x="146.86" y="548.6" type="curve" smooth="yes"/>
      <point x="100.78" y="548.6"/>
      <point x="60.45" y="540.87"/>
      <point x="21.7" y="523.14" type="curve"/>
      <point x="34.87" y="443.65" type="line"/>
      <point x="72.62" y="456.37"/>
      <point x="106.22" y="460.8"/>
      <point x="121.78" y="460.8" type="curve" smooth="yes"/>
      <point x="168.6" y="460.8"/>
      <point x="200.89" y="429.3"/>
      <point x="200.89" y="301.55" type="curve" smooth="yes"/>
      <point x="200.89" y="296.27"/>
      <point x="200.89" y="290.85"/>
      <point x="200.89" y="285.57" type="curve"/>
      <point x="127.07" y="283.42"/>
      <point x="49.71" y="272.7"/>
    </contour>
    <contour>
      <point x="201.75" y="228.01" type="curve"/>
      <point x="197.76" y="87.28"/>
      <point x="181.07999999999998" y="63.47"/>
      <point x="151.42000000000002" y="63.47" type="curve" smooth="yes"/>
      <point x="122.75999999999999" y="63.47"/>
      <point x="101.65" y="99.99000000000001"/>
      <point x="101.65" y="219.74" type="curve"/>
      <point x="117.19999999999999" y="223.59"/>
      <point x="164.4" y="228.01"/>
    </contour>
  </outline>
</glyph>
<glyph name="gravecomb" format="2">
  <unicode hex="0300"/>
  <anchor x="-216.01999999999998" y="743.97" name="top"/>
  <anchor x="-163.84" y="538.6" name="_top"/>
  <outline>
    <contour>
      <point x="-199.07" y="595.57" type="line"/>
      <point x="-127.61" y="595.57" type="line"/>
      <point x="-194.14" y="789.57" type="line"/>
      <point x="-285.94" y="789.57" type="line"/>
    </contour>
  </outline>
</glyph>
<glyph name="acutecomb" format="2">
  <unicode hex="0301"/>
  <anchor x="-119.97" y="743.97" name="top"/>
  <anchor x="-163.84" y="538.6" name="_top"/>
  <outline>
    <contour>
      <point x="-197.63" y="595.57" type="line"/>
      <point x="-130.04" y="595.57" type="line"/>
      <point x="-42.74" y="789.57" type="line"/>
      <point x="-130.53" y="789.57" type="line"/>
    </contour>
  </outline>
</glyph>
<glyph name="uni0302" format="2">
  <unicode hex="0302"/>
  <anchor x="-163.84" y="761.62" name="top"/>
  <anchor x="-163.84" y="538.6" name="_top"/>
  <anchor x="-27.1" y="662.97" name="top_viet"/>
  <outline>
    <contour>
      <point x="-273.09000000000003" y="595.57" type="line"/>
      <point x="-202.2" y="595.57" type="line"/>
      <point x="-163.84" y="738.07" type="line"/>
      <point x="-126.05" y="595.57" type="line"/>
      <point x="-54.59" y="595.57" type="line"/>
      <point x="-116.86" y="789.57" type="line"/>
      <point x="-210.25" y="789.57" type="line"/>
    </contour>
  </outline>
</glyph>
<glyph name="tildecomb" format="2">
  <unicode hex="0303"/>
  <anchor x="-163.84" y="681.94" name="top"/>
  <anchor x="-163.84" y="538.6" name="_top"/>
  <outline>
    <contour>
      <point x="-275.65999999999997" y="600.56" type="curve"/>
      <point x="-223.12" y="600.56" type="line"/>
      <point x="-225.4" y="607.12"/>
      <point x="-226.68" y="617.24"/>
      <point x="-226.68" y="628.22" type="curve" smooth="yes"/>
      <point x="-226.68" y="648.06"/>
      <point x="-220.68" y="664.32"/>
      <point x="-207.4" y="664.32" type="curve" smooth="yes"/>
      <point x="-188.44" y="664.32"/>
      <point x="-146.92" y="604.0"/>
      <point x="-109.96000000000001" y="604.0" type="curve" smooth="yes"/>
      <point x="-68.78" y="604.0"/>
      <point x="-47.74" y="636.0"/>
      <point x="-47.74" y="700.08" type="curve" smooth="yes"/>
      <point x="-47.74" y="714.94"/>
      <point x="-48.88" y="730.8"/>
      <point x="-51.88" y="746.66" type="curve"/>
      <point x="-103.28" y="746.66" type="line"/>
      <point x="-101.14" y="738.82"/>
      <point x="-100.0" y="729.84"/>
      <point x="-100.0" y="721.0" type="curve" smooth="yes"/>
      <point x="-100.0" y="703.58"/>
      <point x="-103.44" y="680.48"/>
      <point x="-119.42" y="680.48" type="curve" smooth="yes"/>
      <point x="-143.52" y="680.48"/>
      <point x="-164.84" y="739.66"/>
      <point x="-216.0" y="739.66" type="curve" smooth="yes"/>
      <point x="-257.76" y="739.66"/>
      <point x="-279.8" y="706.22"/>
      <point x="-279.8" y="647.14" type="curve" smooth="yes"/>
      <point x="-279.8" y="633.14"/>
      <point x="-278.65999999999997" y="616.28"/>
    </contour>
  </outline>
</glyph>
<glyph name="uni0304" format="2">
  <unicode hex="0304"/>
  <anchor x="-163.84" y="730.37" name="top"/>
  <anchor x="-163.84" y="538.6" name="_top"/>
  <outline>
    <contour>
      <point x="-259.2" y="648.45" type="line"/>
      <point x="-68.48" y="648.45" type="line"/>
      <point x="-68.48" y="721.77" type="line"/>
      <point x="-259.2" y="721.77" type="line"/>
    </contour>
  </outline>
</glyph>
<glyph name="uni0306" format="2">
  <unicode hex="0306"/>
  <anchor x="-163.84" y="724.38" name="top"/>
  <anchor x="-163.84" y="538.6" name="_top"/>
  <outline>
    <contour>
      <point x="-163.41" y="602.28" type="curve" smooth="yes"/>
      <point x="-85.61" y="602.28"/>
      <point x="-49.88" y="635.0"/>
      <point x="-49.88" y="726.19" type="curve" smooth="yes"/>
      <point x="-49.88" y="732.34"/>
      <point x="-49.88" y="738.35"/>
      <point x="-50.31" y="744.93" type="curve"/>
      <point x="-102.71000000000001" y="746.07" type="line"/>
      <point x="-102.71000000000001" y="742.93"/>
      <point x="-102.71000000000001" y="739.65"/>
      <point x="-102.71000000000001" y="737.08" type="curve" smooth="yes"/>
      <point x="-102.71000000000001" y="690.72"/>
      <point x="-119.25" y="666.29"/>
      <point x="-163.41" y="666.29" type="curve" smooth="yes"/>
      <point x="-208.0" y="666.29"/>
      <point x="-224.54" y="690.72"/>
      <point x="-224.54" y="737.08" type="curve" smooth="yes"/>
      <point x="-224.54" y="739.65"/>
      <point x="-224.54" y="742.93"/>
      <point x="-224.54" y="746.07" type="curve"/>
      <point x="-277.37" y="744.93" type="line"/>
      <point x="-277.8" y="738.35"/>
      <point x="-277.8" y="732.34"/>
      <point x="-277.8" y="726.19" type="curve" smooth="yes"/>
      <point x="-277.8" y="627.26"/>
      <point x="-231.75" y="602.28"/>
    </contour>
  </outline>
</glyph>
<glyph name="uni0307" format="2">
  <unicode hex="0307"/>
  <anchor x="-163.84" y="682.31" name="top"/>
  <anchor x="-163.84" y="538.6" name="_top"/>
  <outline>
    <contour>
      <point x="-163.84" y="638.59" type="curve" smooth="yes"/>
      <point x="-138.94" y="638.59"/>
      <point x="-124.9" y="650.46"/>
      <point x="-124.9" y="686.26" type="curve" smooth="yes"/>
      <point x="-124.9" y="722.06"/>
      <point x="-138.94" y="733.93"/>
      <point x="-163.84" y="733.93" type="curve" smooth="yes"/>
      <point x="-187.6" y="733.93"/>
      <point x="-202.78" y="722.06"/>
      <point x="-202.78" y="686.26" type="curve" smooth="yes"/>
      <point x="-202.78" y="650.46"/>
      <point x="-187.6" y="638.59"/>
    </contour>
  </outline>
</glyph>
<glyph name="uni0308" format="2">
  <unicode hex="0308"/>
  <anchor x="-163.84" y="682.31" name="top"/>
  <anchor x="-163.84" y="538.6" name="_top"/>
  <outline>
    <contour>
      <point x="-97.65" y="641.17" type="curve" smooth="yes"/>
      <point x="-73.32" y="641.17"/>
      <point x="-59.71" y="652.61"/>
      <point x="-59.71" y="688.41" type="curve" smooth="yes"/>
      <point x="-59.71" y="724.64"/>
      <point x="-73.32" y="736.51"/>
      <point x="-97.65" y="736.51" type="curve" smooth="yes"/>
      <point x="-121.97999999999999" y="736.51"/>
      <point x="-136.01999999999998" y="724.64"/>
      <point x="-136.01999999999998" y="688.41" type="curve" smooth="yes"/>
      <point x="-136.01999999999998" y="652.61"/>
      <point x="-121.97999999999999" y="641.17"/>
    </contour>
    <contour>
      <point x="-230.03" y="641.17" type="curve" smooth="yes"/>
      <point x="-205.7" y="641.17"/>
      <point x="-191.66" y="652.61"/>
      <point x="-191.66" y="688.41" type="curve" smooth="yes"/>
      <point x="-191.66" y="724.64"/>
      <point x="-205.7" y="736.51"/>
      <point x="-230.03" y="736.51" type="curve" smooth="yes"/>
      <point x="-254.36" y="736.51"/>
      <point x="-267.97" y="724.64"/>
      <point x="-267.97" y="688.41" type="curve" smooth="yes"/>
      <point x="-267.97" y="652.61"/>
      <point x="-254.36" y="641.17"/>
    </contour>
  </outline>
</glyph>
<glyph name="hookabovecomb" format="2">
  <unicode hex="0309"/>
  <anchor x="-166.16" y="794.0" name="top"/>
  <anchor x="-162.12" y="538.6" name="_top"/>
  <outline>
    <contour>
      <point x="-174.18" y="599.98" type="line"/>
      <point x="-107.2" y="623.2"/>
      <point x="-84.18" y="664.9"/>
      <point x="-84.18" y="709.48" type="curve" smooth="yes"/>
      <point x="-84.18" y="760.52"/>
      <point x="-116.22" y="794.0"/>
      <point x="-166.57999999999998" y="794.0" type="curve" smooth="yes"/>
      <point x="-191.74" y="794.0"/>
      <point x="-213.04" y="789.58"/>
      <point x="-229.48" y="778.04" type="curve"/>
      <point x="-214.04" y="717.16" type="line"/>
      <point x="-201.46" y="723.84"/>
      <point x="-195.2" y="727.12"/>
      <point x="-180.48" y="727.12" type="curve" smooth="yes"/>
      <point x="-160.48" y="727.12"/>
      <point x="-148.76" y="716.14"/>
      <point x="-148.76" y="698.16" type="curve" smooth="yes"/>
      <point x="-148.76" y="678.22"/>
      <point x="-159.62" y="665.72"/>
      <point x="-187.04" y="650.54" type="curve"/>
    </contour>
  </outline>
</glyph>
<glyph name="uni030A" format="2">
  <unicode hex="030A"/>
  <anchor x="-163.84" y="760.93" name="top"/>
  <anchor x="-163.84" y="538.6" name="_top"/>
  <outline>
    <contour>
      <point x="-163.84" y="603.67" type="curve" smooth="yes"/>
      <point x="-114.94" y="603.67"/>
      <point x="-85.91" y="637.26"/>
      <point x="-85.91" y="694.14" type="curve" smooth="yes"/>
      <point x="-85.91" y="751.02"/>
      <point x="-114.94" y="784.61"/>
      <point x="-163.84" y="784.61" type="curve" smooth="yes"/>
      <point x="-212.74" y="784.61"/>
      <point x="-241.76999999999998" y="751.02"/>
      <point x="-241.76999999999998" y="694.14" type="curve" smooth="yes"/>
      <point x="-241.76999999999998" y="637.26"/>
      <point x="-212.74" y="603.67"/>
    </contour>
    <contour>
      <point x="-163.84" y="650.34" type="curve" smooth="yes"/>
      <point x="-182.68" y="650.34"/>
      <point x="-192.67" y="664.89"/>
      <point x="-192.67" y="694.14" type="curve" smooth="yes"/>
      <point x="-192.67" y="723.96"/>
      <point x="-182.68" y="737.94"/>
      <point x="-163.84" y="737.94" type="curve" smooth="yes"/>
      <point x="-145.0" y="737.94"/>
      <point x="-135.01" y="723.96"/>
      <point x="-135.01" y="694.14" type="curve" smooth="yes"/>
      <point x="-135.01" y="664.89"/>
      <point x="-145.0" y="650.34"/>
    </contour>
  </outline>
</glyph>
<glyph name="uni030B" format="2">
  <unicode hex="030B"/>
  <anchor x="-125.43" y="789.57" name="top"/>
  <anchor x="-163.84" y="538.6" name="_top"/>
  <outline>
    <contour>
      <point x="-134.13" y="595.57" type="line"/>
      <point x="-76.43" y="595.57" type="line"/>
      <point x="-3.8900000000000006" y="789.57" type="line"/>
      <point x="-78.35" y="789.57" type="line"/>
    </contour>
    <contour>
      <point x="-246.97" y="595.57" type="line"/>
      <point x="-189.26999999999998" y="595.57" type="line"/>
      <point x="-116.72999999999999" y="789.57" type="line"/>
      <point x="-191.19" y="789.57" type="line"/>
    </contour>
  </outline>
</glyph>
<glyph name="uni030F" format="2">
  <unicode hex="030F"/>
  <anchor x="-197.69" y="789.57" name="top"/>
  <anchor x="-163.84" y="538.6" name="_top"/>
  <outline>
    <contour>
      <point x="-246.69" y="595.57" type="line"/>
      <point x="-188.99" y="595.57" type="line"/>
      <point x="-244.77" y="789.57" type="line"/>
      <point x="-319.23" y="789.57" type="line"/>
    </contour>
    <contour>
      <point x="-133.85" y="595.57" type="line"/>
      <point x="-76.15" y="595.57" type="line"/>
      <point x="-131.93" y="789.57" type="line"/>
      <point x="-206.39" y="789.57" type="line"/>
    </contour>
  </outline>
</glyph>
